<svg id="Layer_1" data-name="Layer 1" xmlns="http://www.w3.org/2000/svg" viewBox="0 0 98.82 98.53"><defs><style>.cls-1{fill:#eb465f;stroke:#eb465f;stroke-width:6px;}.cls-1,.cls-2{stroke-miterlimit:10;}.cls-2{fill:none;stroke:#efb4bf;stroke-linecap:round;stroke-width:9px;}.cls-3{fill:#efb4bf;}</style></defs><path class="cls-1" d="M93.53,49.1q0,19-12.47,32.51a41.11,41.11,0,0,1-31.6,13.93A41.32,41.32,0,0,1,17.77,81.7Q5.29,68.32,5.29,49.28T17.77,16.86A41.77,41.77,0,0,1,49.46,3.21,41.42,41.42,0,0,1,81,16.86Q93.53,30.17,93.53,49.1Zm-19.21.18a27.85,27.85,0,0,0-6.83-18.94,22.73,22.73,0,0,0-18-8.28,23.07,23.07,0,0,0-18.12,8.19,28.14,28.14,0,0,0-6.83,19,28,28,0,0,0,6.92,18.94,22.82,22.82,0,0,0,18,8.47,22.68,22.68,0,0,0,18-8.47A28.27,28.27,0,0,0,74.32,49.28Z"/><path class="cls-2" d="M83.65,49.37C83.65,71.5,71.54,86,49.41,86"/><circle class="cls-3" cx="83.65" cy="39.39" r="3.92"/></svg>