<svg id="Layer_1" data-name="Layer 1" xmlns="http://www.w3.org/2000/svg" viewBox="0 0 48.05 48.05"><defs><style>.cls-1{fill:#c12126;}</style></defs><path class="cls-1" d="M42.91,24.07a19.41,19.41,0,0,1-5.27,13.84A18,18,0,0,1,24,43.58a17.91,17.91,0,0,1-13.59-5.72A19.27,19.27,0,0,1,5.15,24.07a19.41,19.41,0,0,1,5.29-13.85A17.87,17.87,0,0,1,24,4.47a17.89,17.89,0,0,1,13.55,5.75A19.47,19.47,0,0,1,42.91,24.07Zm-10-.06a9.92,9.92,0,0,0-2.41-6.75A8.12,8.12,0,0,0,24,14.35a8,8,0,0,0-6.33,3,9.93,9.93,0,0,0-2.52,6.7,9.9,9.9,0,0,0,2.36,6.75A8.22,8.22,0,0,0,24,33.65a8.17,8.17,0,0,0,6.35-3A9.82,9.82,0,0,0,32.87,24Z"/></svg>