<svg id="Layer_1" data-name="Layer 1" xmlns="http://www.w3.org/2000/svg" viewBox="0 0 48.05 48.05"><defs><style>.cls-1{fill:#003049;}</style></defs><path class="cls-1" d="M42.91,39.75a9.22,9.22,0,0,1-.3,3.22c-.25.41-1,.61-2.27.61H39l-1.68,0c-.45,0-1.13,0-2,0s-1.57-.06-2-.06-1.95-1.77-4.79-5.32-4.31-5.34-4.42-5.36a51.11,51.11,0,0,0-4.79,5.61q-3.93,4.91-4.6,5.07a14.89,14.89,0,0,1-2.49.11q-6.82,0-6.82-.58c0-.39,0-.94-.08-1.66s-.09-1.26-.09-1.61c0-2.3.17-3.65.5-4.05l5.49-6.08Q15.63,24.7,15.63,24T11.2,18.51q-2.79-3-5.55-6a2.12,2.12,0,0,1-.37-1.19c0-.39,0-.92,0-1.58s.1-1.24.1-1.33c0-.37,0-.95-.12-1.72S5.15,5.37,5.15,5s.38-.53,1.16-.53c.51,0,1.27,0,2.26.08s1.74.09,2.23.09,1.1,0,2-.06,1.51,0,1.93,0,2,1.8,4.85,5.39a63.34,63.34,0,0,0,4.5,5.4q.67-.33,4.89-5.66,4-5.13,4.63-5.13h7.91c.78,0,1.17.15,1.17.47v6.74q0,.72-5.14,6.29t-5.14,5.91q0,.48,4.52,5.47,5.32,5.85,5.56,6.13C42.75,35.94,42.91,37.35,42.91,39.75Z"/></svg>