<svg id="Layer_1" data-name="Layer 1" xmlns="http://www.w3.org/2000/svg" viewBox="0 0 98.82 98.53"><defs><style>.cls-1{fill:#74c0dd;stroke:#74c0dd;stroke-miterlimit:10;stroke-width:6px;}.cls-2{fill:none;stroke:#c3e8f3;stroke-linecap:round;stroke-linejoin:round;stroke-width:9px;}.cls-3{fill:#c3e8f3;}</style></defs><path class="cls-1" d="M95.73,19a6.24,6.24,0,0,1-2.31,4.49L67.72,49.31,93.28,74.87a7.13,7.13,0,0,1,2.32,4.76q0,3.68-6.06,9.79t-9.72,6.12a6.57,6.57,0,0,1-4.49-2.31L49.49,67.39,23.93,93.09a6.35,6.35,0,0,1-4.49,2.18q-3.81,0-9.93-5.91T3.39,79.63a6.75,6.75,0,0,1,2.18-4.49L31.41,49.31,5.84,23.74a6.38,6.38,0,0,1-2.17-4.49q0-3.94,5.91-10t9.59-6a6.81,6.81,0,0,1,4.62,2.17l25.7,25.84L75.2,5.65q2.31-2.45,4.62-2.44,3.68,0,9.79,6.05T95.73,19Z"/><polyline class="cls-2" points="80.88 22.91 61.12 42.68 54.89 48.91 77.93 71.95"/><circle class="cls-3" cx="88.76" cy="14.9" r="4.32"/></svg>