<svg xmlns="http://www.w3.org/2000/svg" viewBox="0 0 453.13 351.12"><defs><style>.cls-1{opacity:0.65;}.cls-2{fill:#fff;}.cls-3{fill:none;stroke:#000;stroke-width:9px;}.cls-3,.cls-4,.cls-5,.cls-6,.cls-7{stroke-miterlimit:10;}.cls-4,.cls-5,.cls-6{font-size:41.31px;stroke:#020203;}.cls-4,.cls-7{fill:#6c96cf;}.cls-4,.cls-5,.cls-6,.cls-7{stroke-width:3px;}.cls-10,.cls-11,.cls-4,.cls-5,.cls-6,.cls-7{font-family:ShowcardGothic-Reg, Showcard Gothic;}.cls-5,.cls-8{fill:#cd2027;}.cls-6,.cls-9{fill:#118442;}.cls-7{font-size:42.22px;stroke:#231f20;}.cls-8{font-size:42.22px;}.cls-10{font-size:21px;}.cls-10,.cls-11{fill:#231f20;}.cls-11{font-size:27.07px;}</style></defs><g id="Layer_1" data-name="Layer 1"><g class="cls-1"><path class="cls-2" d="M440.74,330.38a8.53,8.53,0,0,1-8.5,8.51H22a8.53,8.53,0,0,1-8.5-8.51V103.63A8.53,8.53,0,0,1,22,95.12H432.24a8.53,8.53,0,0,1,8.5,8.51Z"/><path class="cls-3" d="M440.74,330.38a8.53,8.53,0,0,1-8.5,8.51H22a8.53,8.53,0,0,1-8.5-8.51V103.63A8.53,8.53,0,0,1,22,95.12H432.24a8.53,8.53,0,0,1,8.5,8.51Z"/></g><path class="cls-3" d="M440.74,330.38a8.53,8.53,0,0,1-8.5,8.51H22a8.53,8.53,0,0,1-8.5-8.51V103.63A8.53,8.53,0,0,1,22,95.12H432.24a8.53,8.53,0,0,1,8.5,8.51Z"/><text class="cls-4" transform="translate(103.29 46.9)">ROCK</text><text class="cls-5" transform="translate(234.33 46.9)">PAPER</text><text class="cls-6" transform="translate(144.45 85.89)">SCISSORS</text><rect x="224.16" y="95.12" width="9" height="4.5"/><path d="M233.16,325.69h-9V317h9Zm0-17.39h-9v-8.69h9Zm0-17.39h-9v-8.69h9Zm0-17.39h-9v-8.69h9Zm0-17.39h-9v-8.69h9Zm0-69.56h-9v-8.69h9Zm0-17.39h-9v-8.69h9Zm0-17.39h-9V143.1h9Z"/><rect x="224.16" y="334.39" width="9" height="4.5"/><text class="cls-7" transform="translate(202.04 236.43)">V<tspan class="cls-8" x="27.6" y="0">s</tspan><tspan class="cls-9" x="48.84" y="0">.</tspan></text><text class="cls-10" transform="translate(96.95 310.07)">yOU </text><text class="cls-10" transform="translate(276.47 310.59)">COMPUTER </text><text class="cls-11" transform="translate(180.57 129.98)">Round</text></g></svg>