<svg xmlns="http://www.w3.org/2000/svg" viewBox="0 0 77.65 78.26"><defs><style>.cls-1{fill:#118442;}.cls-2,.cls-3,.cls-5,.cls-6,.cls-7{fill:none;}.cls-2{stroke:#118442;}.cls-2,.cls-3,.cls-4,.cls-5,.cls-6,.cls-7{stroke-miterlimit:10;}.cls-2,.cls-3{stroke-width:9px;}.cls-3{stroke:#fff;}.cls-4{fill:#fff;}.cls-4,.cls-7{stroke:#000;stroke-width:0.75px;}.cls-5{stroke:#91d7ef;stroke-width:0.5px;}.cls-6{stroke:#e02b27;}</style></defs><g id="Layer_4" data-name="Layer 4"><path class="cls-1" d="M71,62.82a8.53,8.53,0,0,1-8.51,8.5H15.13a8.52,8.52,0,0,1-8.5-8.5V15.44a8.53,8.53,0,0,1,8.5-8.51H62.51A8.54,8.54,0,0,1,71,15.44Z"/><path class="cls-2" d="M71,62.82a8.53,8.53,0,0,1-8.51,8.5H15.13a8.52,8.52,0,0,1-8.5-8.5V15.44a8.53,8.53,0,0,1,8.5-8.51H62.51A8.54,8.54,0,0,1,71,15.44Z"/><path class="cls-1" d="M69.58,61.38a8.53,8.53,0,0,1-8.51,8.5H16.57a8.53,8.53,0,0,1-8.5-8.5V16.88a8.53,8.53,0,0,1,8.5-8.51h44.5a8.54,8.54,0,0,1,8.51,8.51Z"/><path class="cls-3" d="M69.58,61.38a8.53,8.53,0,0,1-8.51,8.5H16.57a8.53,8.53,0,0,1-8.5-8.5V16.88a8.53,8.53,0,0,1,8.5-8.51h44.5a8.54,8.54,0,0,1,8.51,8.51Z"/><g id="paper"><path class="cls-4" d="M8.67,15.76s1.81,3.77,2.23,4.86,4.36,10.64,5,15.84a10.42,10.42,0,0,0,1.51.19l-1,1.29,1.34.45-.78.72S19.54,47.38,20.37,50s4.31,13.49,4.53,13.6a2.92,2.92,0,0,0,1.17.2,3.49,3.49,0,0,1-.83.92,27.2,27.2,0,0,1,1.28,3.52,15.23,15.23,0,0,0,3.66-.53c1.4-.47,10-2.29,10-2.29S49,63.23,50.24,63.28v-.89s.31.28,1.17.92c0,0,7.32-1.23,8.41-2v-.78a4.58,4.58,0,0,1,1.4.75s6.19-.81,7.76-1.84c0,0-1-2.71-1.53-3.61A23.37,23.37,0,0,1,66,51.88c-.14-.72-1.28-3.88-1.56-4.89s-1-2.82-1.12-3.15-.5-2.21-.5-2.21l-1.15,0,.64-1a20.22,20.22,0,0,1-1.65-4.45,25.26,25.26,0,0,0-1.87-5.86l-1.17,0a3.6,3.6,0,0,1,.81-1.2A42.14,42.14,0,0,1,56.75,24,70.17,70.17,0,0,0,54,16.23a35.52,35.52,0,0,1-1.7-4.47,3,3,0,0,0-1.12-.5A2.32,2.32,0,0,0,51.41,10a20.86,20.86,0,0,1-3.8.51c-1.59,0-6.73.44-8.94.72S31,12,30.26,12.29a52.39,52.39,0,0,1-6,.76l-.16,1-.9-1S15.76,15,12.83,14.89a3.81,3.81,0,0,1-.08,1.26s-.87-.87-1.29-1.18A25.29,25.29,0,0,0,8.67,15.76Z"/><path class="cls-5" d="M12.34,24.3l6.94-.92c1-.12,10-1.58,12.7-2.23s9.85-2.5,13.46-3l3.6-.51s3.72-.81,5.32-.53"/><path class="cls-5" d="M13.47,27.43s5.45-1.41,8-1.72,11.58-2.2,12.5-2.37,8.51-1.63,9.22-1.84a93,93,0,0,1,12-2.1"/><path class="cls-5" d="M14.33,30s6.77-1.48,8.15-1.51,9.21-1.79,11.22-2.2,8.8-1.56,10.39-2,7.38-1.86,8.39-1.85a22.1,22.1,0,0,0,3.62-.69"/><path class="cls-5" d="M15,32.3s7.44-.92,8.18-1.25,11.8-2.26,14-2.8,11.23-2.31,12.24-2.56,6.45-1.51,7.29-1.72"/><path class="cls-5" d="M15.8,35.59s4.28-.81,5.66-1.14,4.53-1,5.74-1.34S39.07,30.63,40,30.47s9.47-1.76,13.15-2.69l4.42-1.1"/><path class="cls-5" d="M17.3,38.22s4.83-.75,7.73-1.55,10.51-2.18,12.9-2.73,8.3-1.42,11.7-2.3,8.45-2.21,8.77-2.53"/><line class="cls-5" x1="17.65" y1="41.17" x2="19.76" y2="40.89"/><path class="cls-5" d="M22.25,40.24s3.24-.76,6.38-1.69,12.2-2.65,13.83-3,7.21-1.66,8.55-1.92,7.63-1.51,8.47-1.71"/><path class="cls-5" d="M18.61,44.31s2.81-.6,4.57-.89A42.13,42.13,0,0,0,28.76,42c1.67-.54,7.92-1.88,9.68-2.39s8-1.71,9.8-2.17,6.62-1.35,7.34-1.68A35.54,35.54,0,0,1,60.42,35"/><path class="cls-5" d="M19.39,46.87s3.46-.44,5.3-.9,8-1.88,9.26-2.18,9.52-2,10.31-2.26,8.76-2.12,10.31-2.4,6.5-1.38,6.5-1.38"/><path class="cls-5" d="M20.37,50s3.34-1,5.09-1.34,7.78-1.76,9.2-2.1,8.81-2.18,10.27-2.51,5.7-1.25,8.26-1.78,8.72-1.58,9.09-1.74"/><path class="cls-5" d="M21.13,52.43s3.85-.59,4.9-.84,7.88-1.72,8.72-1.93,9.89-2.26,11.06-2.47,6.88-1.43,7.8-1.68,6.79-1.63,7.46-1.76,2.07-.45,2.07-.45"/><path class="cls-5" d="M22,55.14s2.4-.28,3.91-.41,7.5-1.72,9-2,9.22-2.18,10.23-2.39,8-1.76,9.68-2,8.18-2,9.14-2.77"/><path class="cls-5" d="M22.93,58a34.8,34.8,0,0,0,3.6-.2c1.89-.21,6-1.38,7.34-1.63s7.77-1.89,8.27-2l7.61-1.71c1.26-.3,5.45-1.09,8-1.64s7.2-2.24,7.2-2.24"/><path class="cls-5" d="M24.19,61.76s3-.37,5-.79,8.5-2.51,9.89-2.8,8.17-2.26,10-2.64,6.33-1.39,10-2.2,6.8-1.73,6.8-1.73"/><path class="cls-5" d="M26.07,63.84s2-.48,3.86-.89,7-1.81,8.55-2.23,7.08-1.92,9.18-2.22,7.58-1.76,8.21-1.82,4.86-1.11,6.41-1.36A31,31,0,0,0,66.66,54"/><path class="cls-5" d="M25.63,65.7s3-.49,5.81-1.16,11.15-2.68,12.7-3,8.34-1.84,9.84-2.13S61,58,62,57.75s5.82-1.07,5.82-1.07"/><path class="cls-6" d="M16.67,14.57s1.82,3.4,2.1,4.16,2.21,5.36,2.35,5.89,1.7,4.61,1.87,5.56.87,2.85,1.12,4.69A60.18,60.18,0,0,0,25.39,41c.17.46,2.54,7.92,2.54,7.92S29.61,54,30.14,55s1.62,5.56,2,6.57a53.43,53.43,0,0,0,2.14,5.3"/><path d="M14.36,21.57a3.07,3.07,0,0,0,0,1,1.37,1.37,0,0,0,.39.68,1.24,1.24,0,0,0,.85.39,1.09,1.09,0,0,0,.87-.41.51.51,0,0,0,.1-.36,3.48,3.48,0,0,0,0-.47,1.06,1.06,0,0,0-.35-.67,1,1,0,0,0-.72-.25C15.11,21.47,14.73,21.57,14.36,21.57Zm0-.06a3.46,3.46,0,0,1,1-.62,1.4,1.4,0,0,1,1.33.21,1.47,1.47,0,0,1,.56,1.24,2,2,0,0,1-.07.6,1,1,0,0,1-.42.58,3,3,0,0,1-1.13.35,2,2,0,0,1-1.23-.12,1.27,1.27,0,0,1-.61-1.17A1.46,1.46,0,0,1,14.32,21.51Z"/><path d="M20.53,39.56a1,1,0,0,0-.42.68,4,4,0,0,0,0,.68c-.06.22.51.78,1,.73a1.23,1.23,0,0,0,.72-.22s.06-.07.06-.09,0,0,0-.07a2.33,2.33,0,0,0,0-.36,1.51,1.51,0,0,0-.5-1.13l.07,0a3.09,3.09,0,0,0-.48-.25A.63.63,0,0,0,20.53,39.56Zm0-.06a1.63,1.63,0,0,1,.57-.17,3.08,3.08,0,0,1,.61-.07l.08,0a1.36,1.36,0,0,1,.8.65A1.56,1.56,0,0,1,22.69,41a2.54,2.54,0,0,1-.14.47.76.76,0,0,1-.19.3.64.64,0,0,1-.28.15,2.36,2.36,0,0,1-1,0l-.89-.15a.94.94,0,0,1-.79-.73,1.12,1.12,0,0,1,.33-1A4.44,4.44,0,0,1,20.49,39.5Z"/><path d="M26.62,58.54c-.18.49-.53,1-.64,1.28a.88.88,0,0,0,.53,1c.5.18.76-.32.95-.65A1.79,1.79,0,0,0,27.53,59l.16.16-.52-.31-.28-.15Zm0-.07a2.14,2.14,0,0,1,.7-.06,2.83,2.83,0,0,1,.69.11l.08,0,.08.13a1.61,1.61,0,0,1-.08,1.83,1.51,1.51,0,0,1-.73.56,1.15,1.15,0,0,1-.9-.06,3.52,3.52,0,0,1-.74-.44,1.57,1.57,0,0,1-.3-.37.73.73,0,0,1-.05-.58,1.62,1.62,0,0,1,.53-.72A2.16,2.16,0,0,1,26.59,58.47Z"/><path class="cls-7" d="M8.67,15.76s1.81,3.77,2.23,4.86,4.36,10.64,5,15.84a10.42,10.42,0,0,0,1.51.19l-1,1.29,1.34.45-.78.72S19.54,47.38,20.37,50s4.31,13.49,4.53,13.6a2.92,2.92,0,0,0,1.17.2,3.49,3.49,0,0,1-.83.92,27.2,27.2,0,0,1,1.28,3.52,15.23,15.23,0,0,0,3.66-.53c1.4-.47,10-2.29,10-2.29S49,63.23,50.24,63.28v-.89s.31.28,1.17.92c0,0,7.32-1.23,8.41-2v-.78a4.58,4.58,0,0,1,1.4.75s6.19-.81,7.76-1.84c0,0-1-2.71-1.53-3.61A23.37,23.37,0,0,1,66,51.88c-.14-.72-1.28-3.88-1.56-4.89s-1-2.82-1.12-3.15-.5-2.21-.5-2.21l-1.15,0,.64-1a20.22,20.22,0,0,1-1.65-4.45,25.26,25.26,0,0,0-1.87-5.86l-1.17,0a3.6,3.6,0,0,1,.81-1.2A42.14,42.14,0,0,1,56.75,24,70.17,70.17,0,0,0,54,16.23a35.52,35.52,0,0,1-1.7-4.47,3,3,0,0,0-1.12-.5A2.32,2.32,0,0,0,51.41,10a20.86,20.86,0,0,1-3.8.51c-1.59,0-6.73.44-8.94.72S31,12,30.26,12.29a52.39,52.39,0,0,1-6,.76l-.16,1-.9-1S15.76,15,12.83,14.89a3.81,3.81,0,0,1-.08,1.26s-.87-.87-1.29-1.18A25.29,25.29,0,0,0,8.67,15.76Z"/></g></g></svg>