<svg xmlns="http://www.w3.org/2000/svg" viewBox="0 0 73.29 73.06"><defs><style>.cls-1{fill:#6c96ce;}.cls-2,.cls-3,.cls-5,.cls-6,.cls-7{fill:none;}.cls-2{stroke:#6c96ce;}.cls-2,.cls-3,.cls-4,.cls-5,.cls-6,.cls-7{stroke-miterlimit:10;}.cls-2,.cls-3{stroke-width:9px;}.cls-3{stroke:#fff;}.cls-4{fill:#fff;}.cls-4,.cls-7{stroke:#000;stroke-width:0.75px;}.cls-5{stroke:#91d7ef;stroke-width:0.5px;}.cls-6{stroke:#e02b27;}</style></defs><g id="Layer_4" data-name="Layer 4"><path class="cls-1" d="M68.77,60.29a8.53,8.53,0,0,1-8.5,8.5H12.88a8.53,8.53,0,0,1-8.5-8.5V12.9a8.53,8.53,0,0,1,8.5-8.5H60.27a8.53,8.53,0,0,1,8.5,8.5Z"/><path class="cls-2" d="M68.77,60.29a8.53,8.53,0,0,1-8.5,8.5H12.88a8.53,8.53,0,0,1-8.5-8.5V12.9a8.53,8.53,0,0,1,8.5-8.5H60.27a8.53,8.53,0,0,1,8.5,8.5Z"/><path class="cls-1" d="M67.33,58.84a8.54,8.54,0,0,1-8.51,8.51H14.33a8.54,8.54,0,0,1-8.51-8.51V14.35a8.54,8.54,0,0,1,8.51-8.51H58.82a8.54,8.54,0,0,1,8.51,8.51Z"/><path class="cls-3" d="M67.33,58.84a8.54,8.54,0,0,1-8.51,8.51H14.33a8.54,8.54,0,0,1-8.51-8.51V14.35a8.54,8.54,0,0,1,8.51-8.51H58.82a8.54,8.54,0,0,1,8.51,8.51Z"/><g id="paper"><path class="cls-4" d="M6.42,13.22S8.24,17,8.65,18.09s4.36,10.64,5,15.84a10.62,10.62,0,0,0,1.51.19l-1,1.29,1.35.45-.79.72s2.52,8.27,3.36,10.93,4.3,13.49,4.52,13.6a2.94,2.94,0,0,0,1.18.2,3.76,3.76,0,0,1-.84.92,25.29,25.29,0,0,1,1.28,3.52,15.73,15.73,0,0,0,3.66-.53c1.4-.48,10-2.29,10-2.29S46.74,60.69,48,60.75v-.89s.31.27,1.18.92c0,0,7.32-1.23,8.41-2V58a4.68,4.68,0,0,1,1.39.76s6.19-.81,7.76-1.85c0,0-1-2.71-1.53-3.6a23.37,23.37,0,0,1-1.48-3.94c-.14-.73-1.28-3.88-1.56-4.89s-1-2.82-1.12-3.16-.5-2.2-.5-2.2l-1.15,0L60,38a20.08,20.08,0,0,1-1.65-4.44,26,26,0,0,0-1.87-5.87l-1.18.06a3.5,3.5,0,0,1,.81-1.2,42.14,42.14,0,0,1-1.65-5.14,72.2,72.2,0,0,0-2.73-7.74,34.3,34.3,0,0,1-1.71-4.47,2.87,2.87,0,0,0-1.12-.5,2.39,2.39,0,0,0,.23-1.29,21.41,21.41,0,0,1-3.8.5c-1.6,0-6.74.45-8.94.73S28.74,9.48,28,9.76a50.49,50.49,0,0,1-5.95.75l-.17,1-.9-.95s-7.48,1.87-10.42,1.79a3.54,3.54,0,0,1-.08,1.26s-.87-.87-1.29-1.18A27.91,27.91,0,0,0,6.42,13.22Z"/><path class="cls-5" d="M10.09,21.77l7-.92c1-.12,10-1.58,12.7-2.23s9.84-2.5,13.45-3l3.6-.5s3.72-.81,5.32-.53"/><path class="cls-5" d="M11.23,24.9s5.44-1.42,8-1.73S30.82,21,31.75,20.81,40.25,19.18,41,19a90.62,90.62,0,0,1,12-2.1"/><path class="cls-5" d="M12.08,27.46S18.85,26,20.23,26s9.21-1.79,11.22-2.21,8.8-1.55,10.4-2a83,83,0,0,1,8.38-1.85,22,22,0,0,0,3.63-.7"/><path class="cls-5" d="M12.77,29.76s7.44-.91,8.18-1.24,11.8-2.26,14-2.81,11.24-2.3,12.24-2.55,6.46-1.51,7.29-1.72"/><path class="cls-5" d="M13.55,33.06s4.28-.81,5.67-1.14,4.52-1,5.74-1.35S36.82,28.1,37.7,27.93s9.47-1.76,13.16-2.68l4.41-1.11"/><path class="cls-5" d="M15.05,35.69s4.84-.76,7.73-1.55S33.3,32,35.69,31.41,44,30,47.38,29.11s8.45-2.21,8.77-2.53"/><line class="cls-5" x1="15.4" y1="38.64" x2="17.51" y2="38.35"/><path class="cls-5" d="M20,37.7s3.24-.76,6.38-1.68,12.2-2.65,13.83-3,7.21-1.66,8.55-1.93,7.63-1.5,8.47-1.7"/><path class="cls-5" d="M16.36,41.78s2.81-.6,4.57-.9a40.6,40.6,0,0,0,5.58-1.38c1.67-.54,7.92-1.88,9.68-2.39s8.05-1.72,9.81-2.18,6.62-1.34,7.33-1.67a35.54,35.54,0,0,1,4.84-.78"/><path class="cls-5" d="M17.14,44.34s3.46-.44,5.3-.9,8-1.89,9.27-2.18,9.51-2,10.3-2.26,8.76-2.13,10.31-2.4,6.5-1.39,6.5-1.39"/><path class="cls-5" d="M18.13,47.51s3.33-1,5.08-1.35S31,44.4,32.42,44.07s8.8-2.18,10.27-2.52,5.69-1.25,8.25-1.77S59.66,38.2,60,38"/><path class="cls-5" d="M18.89,49.89s3.85-.58,4.89-.83,7.88-1.72,8.72-1.93,9.89-2.26,11.07-2.47,6.87-1.43,7.79-1.68,6.79-1.63,7.46-1.76,2.07-.46,2.07-.46"/><path class="cls-5" d="M19.76,52.61s2.39-.28,3.9-.41,7.5-1.72,9-2S41.85,48,42.85,47.8s8-1.76,9.68-2,8.18-2,9.14-2.77"/><path class="cls-5" d="M20.68,55.45a33.37,33.37,0,0,0,3.61-.19c1.88-.21,5.95-1.38,7.33-1.64s7.78-1.88,8.27-2l7.61-1.72c1.26-.29,5.45-1.08,8-1.63S62.66,46,62.66,46"/><path class="cls-5" d="M21.94,59.23s3-.37,5-.79,8.51-2.51,9.89-2.8S45,53.37,46.83,53s6.33-1.39,10-2.21,6.8-1.73,6.8-1.73"/><path class="cls-5" d="M23.83,61.31s2-.48,3.85-.9,7-1.8,8.55-2.22,7.08-1.93,9.18-2.22,7.58-1.76,8.21-1.82S58.48,53,60,52.79a30.27,30.27,0,0,0,4.37-1.34"/><path class="cls-5" d="M23.38,63.17s3-.49,5.81-1.16,11.15-2.69,12.7-3,8.34-1.84,9.85-2.14,7-1.38,8-1.67,5.83-1.07,5.83-1.07"/><path class="cls-6" d="M14.42,12s1.82,3.4,2.1,4.15,2.21,5.37,2.35,5.9,1.7,4.61,1.87,5.56.87,2.85,1.12,4.69S23,38,23.14,38.42s2.55,7.92,2.55,7.92,1.67,5.11,2.2,6.09,1.62,5.56,2,6.57A56,56,0,0,0,32,64.3"/><path d="M12.11,19a3.38,3.38,0,0,0,0,1,1.45,1.45,0,0,0,.39.68,1.21,1.21,0,0,0,.85.38,1.09,1.09,0,0,0,.88-.41.47.47,0,0,0,.09-.35,2.48,2.48,0,0,0,0-.48,1,1,0,0,0-.35-.66,1,1,0,0,0-.72-.25C12.86,18.94,12.48,19,12.11,19Zm0-.06a3.25,3.25,0,0,1,1-.62,1.4,1.4,0,0,1,1.33.2A1.54,1.54,0,0,1,15,19.81a2.35,2.35,0,0,1-.08.6,1,1,0,0,1-.42.58,3,3,0,0,1-1.13.35,2,2,0,0,1-1.23-.12,1.27,1.27,0,0,1-.61-1.17A1.49,1.49,0,0,1,12.07,19Z"/><path d="M18.29,37a.9.9,0,0,0-.42.68,4,4,0,0,0,0,.67c-.06.23.51.79,1,.74a1.14,1.14,0,0,0,.71-.23s.06-.06.06-.08,0,0,0-.07,0-.25,0-.36a1.51,1.51,0,0,0-.51-1.13l.08,0A2.82,2.82,0,0,0,18.8,37,.61.61,0,0,0,18.29,37Zm0-.06a1.35,1.35,0,0,1,.56-.17,4,4,0,0,1,.62-.08l.07,0a1.36,1.36,0,0,1,.8.66,1.56,1.56,0,0,1,.14,1.05,2.23,2.23,0,0,1-.13.46.87.87,0,0,1-.19.3.77.77,0,0,1-.29.16,2.49,2.49,0,0,1-.95,0L18,39.2a.94.94,0,0,1-.8-.72,1.18,1.18,0,0,1,.33-1A4,4,0,0,1,18.25,37Z"/><path d="M24.37,56c-.18.49-.52.94-.64,1.28a.88.88,0,0,0,.53,1c.5.18.76-.32,1-.65a1.79,1.79,0,0,0,.06-1.14l.16.15-.52-.3-.28-.15Zm0-.07a2.06,2.06,0,0,1,.69-.06,2.37,2.37,0,0,1,.69.11l.08,0,.08.13A1.63,1.63,0,0,1,25.82,58a1.58,1.58,0,0,1-.74.56,1.2,1.2,0,0,1-.9-.06,3.57,3.57,0,0,1-.74-.45,1.34,1.34,0,0,1-.3-.36.75.75,0,0,1-.05-.59,1.83,1.83,0,0,1,.53-.72A2.26,2.26,0,0,1,24.35,55.94Z"/><path class="cls-7" d="M6.42,13.22S8.24,17,8.65,18.09s4.36,10.64,5,15.84a10.62,10.62,0,0,0,1.51.19l-1,1.29,1.35.45-.79.72s2.52,8.27,3.36,10.93,4.3,13.49,4.52,13.6a2.94,2.94,0,0,0,1.18.2,3.76,3.76,0,0,1-.84.92,25.29,25.29,0,0,1,1.28,3.52,15.73,15.73,0,0,0,3.66-.53c1.4-.48,10-2.29,10-2.29S46.74,60.69,48,60.75v-.89s.31.27,1.18.92c0,0,7.32-1.23,8.41-2V58a4.68,4.68,0,0,1,1.39.76s6.19-.81,7.76-1.85c0,0-1-2.71-1.53-3.6a23.37,23.37,0,0,1-1.48-3.94c-.14-.73-1.28-3.88-1.56-4.89s-1-2.82-1.12-3.16-.5-2.2-.5-2.2l-1.15,0L60,38a20.08,20.08,0,0,1-1.65-4.44,26,26,0,0,0-1.87-5.87l-1.18.06a3.5,3.5,0,0,1,.81-1.2,42.14,42.14,0,0,1-1.65-5.14,72.2,72.2,0,0,0-2.73-7.74,34.3,34.3,0,0,1-1.71-4.47,2.87,2.87,0,0,0-1.12-.5,2.39,2.39,0,0,0,.23-1.29,21.41,21.41,0,0,1-3.8.5c-1.6,0-6.74.45-8.94.73S28.74,9.48,28,9.76a50.49,50.49,0,0,1-5.95.75l-.17,1-.9-.95s-7.48,1.87-10.42,1.79a3.54,3.54,0,0,1-.08,1.26s-.87-.87-1.29-1.18A27.91,27.91,0,0,0,6.42,13.22Z"/></g></g></svg>