<svg xmlns="http://www.w3.org/2000/svg" viewBox="0 0 77.65 78.26"><defs><style>.cls-1{fill:#cd2028;}.cls-2,.cls-3,.cls-5,.cls-6,.cls-7{fill:none;}.cls-2{stroke:#cd2028;}.cls-2,.cls-3,.cls-4,.cls-5,.cls-6,.cls-7{stroke-miterlimit:10;}.cls-2,.cls-3{stroke-width:9px;}.cls-3{stroke:#fff;}.cls-4{fill:#fff;}.cls-4,.cls-7{stroke:#000;stroke-width:0.75px;}.cls-5{stroke:#91d7ef;stroke-width:0.5px;}.cls-6{stroke:#e02b27;}</style></defs><g id="Layer_4" data-name="Layer 4"><path class="cls-1" d="M69.73,63.15a8.52,8.52,0,0,1-8.5,8.5H13.85a8.53,8.53,0,0,1-8.51-8.5V15.76a8.53,8.53,0,0,1,8.51-8.5H61.23a8.52,8.52,0,0,1,8.5,8.5Z"/><path class="cls-2" d="M69.73,63.15a8.52,8.52,0,0,1-8.5,8.5H13.85a8.53,8.53,0,0,1-8.51-8.5V15.76a8.53,8.53,0,0,1,8.51-8.5H61.23a8.52,8.52,0,0,1,8.5,8.5Z"/><path class="cls-1" d="M68.29,61.7a8.53,8.53,0,0,1-8.5,8.51H15.29a8.53,8.53,0,0,1-8.5-8.51V17.21a8.53,8.53,0,0,1,8.5-8.51h44.5a8.53,8.53,0,0,1,8.5,8.51Z"/><path class="cls-3" d="M68.29,61.7a8.53,8.53,0,0,1-8.5,8.51H15.29a8.53,8.53,0,0,1-8.5-8.51V17.21a8.53,8.53,0,0,1,8.5-8.51h44.5a8.53,8.53,0,0,1,8.5,8.51Z"/><g id="paper"><path class="cls-4" d="M7.38,16.08S9.2,19.86,9.62,21s4.36,10.64,5,15.84a10.44,10.44,0,0,0,1.5.19l-1,1.29,1.34.45-.78.72s2.51,8.27,3.35,10.93,4.3,13.49,4.52,13.6a3,3,0,0,0,1.18.2,3.76,3.76,0,0,1-.84.92,25.29,25.29,0,0,1,1.28,3.52,15.73,15.73,0,0,0,3.66-.53c1.4-.48,10-2.29,10-2.29S47.7,63.55,49,63.61v-.89s.3.27,1.17.92c0,0,7.32-1.23,8.41-2v-.79a4.69,4.69,0,0,1,1.4.76s6.19-.81,7.76-1.85c0,0-1.06-2.71-1.53-3.6a21.76,21.76,0,0,1-1.48-3.94c-.14-.73-1.29-3.88-1.57-4.89s-1-2.82-1.12-3.16-.5-2.2-.5-2.2l-1.15,0,.65-1a20.08,20.08,0,0,1-1.65-4.44,25.74,25.74,0,0,0-1.87-5.86l-1.18.05a3.5,3.5,0,0,1,.81-1.2,40.85,40.85,0,0,1-1.64-5.14,72.29,72.29,0,0,0-2.74-7.74A34.3,34.3,0,0,1,51,12.09a2.88,2.88,0,0,0-1.11-.5,2.42,2.42,0,0,0,.22-1.29,21.41,21.41,0,0,1-3.8.5c-1.59,0-6.73.45-8.94.73s-7.68.81-8.41,1.09a50.24,50.24,0,0,1-5.95.75l-.17,1-.89-1s-7.49,1.87-10.43,1.79a3.54,3.54,0,0,1-.08,1.26s-.87-.87-1.28-1.18A28,28,0,0,0,7.38,16.08Z"/><path class="cls-5" d="M11.05,24.63l7-.92c1.05-.12,10-1.58,12.7-2.23s9.85-2.5,13.45-3l3.6-.5s3.72-.81,5.32-.53"/><path class="cls-5" d="M12.19,27.76s5.44-1.42,8-1.73,11.59-2.19,12.51-2.36,8.51-1.63,9.22-1.84a90.62,90.62,0,0,1,12-2.1"/><path class="cls-5" d="M13,30.32s6.77-1.48,8.15-1.51S30.4,27,32.42,26.6s8.8-1.55,10.39-2,7.37-1.86,8.38-1.85a21.79,21.79,0,0,0,3.63-.7"/><path class="cls-5" d="M13.73,32.62s7.44-.91,8.18-1.24,11.8-2.26,14-2.81S47.17,26.27,48.17,26s6.46-1.51,7.3-1.72"/><path class="cls-5" d="M14.51,35.92s4.28-.81,5.67-1.14,4.52-1,5.74-1.34S37.78,31,38.66,30.79,48.13,29,51.82,28.11L56.24,27"/><path class="cls-5" d="M16,38.55s4.84-.76,7.73-1.55,10.52-2.18,12.91-2.73S45,32.85,48.34,32s8.45-2.21,8.77-2.53"/><line class="cls-5" x1="16.36" y1="41.5" x2="18.47" y2="41.21"/><path class="cls-5" d="M21,40.56s3.24-.75,6.38-1.68,12.2-2.65,13.83-3,7.21-1.66,8.55-1.93,7.64-1.5,8.47-1.7"/><path class="cls-5" d="M17.32,44.64s2.82-.6,4.58-.9a40.46,40.46,0,0,0,5.57-1.38c1.68-.54,7.92-1.88,9.68-2.39S45.2,38.25,47,37.79s6.62-1.34,7.33-1.67a35.54,35.54,0,0,1,4.84-.78"/><path class="cls-5" d="M18.11,47.2s3.45-.44,5.29-.9,8-1.88,9.27-2.18,9.51-2,10.31-2.26,8.76-2.12,10.31-2.4,6.49-1.39,6.49-1.39"/><path class="cls-5" d="M19.09,50.37s3.33-1,5.08-1.34,7.78-1.76,9.21-2.1,8.8-2.18,10.27-2.51,5.7-1.26,8.25-1.78,8.72-1.58,9.1-1.75"/><path class="cls-5" d="M19.85,52.75s3.85-.58,4.9-.83S32.62,50.2,33.46,50s9.89-2.26,11.07-2.47,6.87-1.43,7.79-1.68,6.79-1.63,7.46-1.76,2.07-.46,2.07-.46"/><path class="cls-5" d="M20.72,55.47s2.39-.28,3.9-.41,7.5-1.72,9-2,9.22-2.18,10.22-2.39,8-1.76,9.69-2,8.17-2,9.13-2.77"/><path class="cls-5" d="M21.64,58.32a35,35,0,0,0,3.61-.2c1.88-.21,5.95-1.38,7.33-1.63s7.78-1.89,8.27-2,6.36-1.42,7.62-1.72,5.44-1.08,8-1.63,7.19-2.24,7.19-2.24"/><path class="cls-5" d="M22.9,62.09s3-.37,5-.79,8.51-2.51,9.89-2.8,8.17-2.27,10-2.64,6.32-1.39,10-2.21,6.81-1.73,6.81-1.73"/><path class="cls-5" d="M24.79,64.17s2-.48,3.85-.9,7-1.8,8.55-2.22,7.09-1.92,9.18-2.22S54,57.07,54.59,57,59.45,55.9,61,55.65a30.55,30.55,0,0,0,4.38-1.34"/><path class="cls-5" d="M24.34,66s3-.49,5.81-1.16,11.15-2.69,12.7-3,8.34-1.84,9.85-2.14,7-1.38,8-1.67S66.57,57,66.57,57"/><path class="cls-6" d="M15.39,14.9s1.82,3.4,2.09,4.15,2.21,5.37,2.35,5.9,1.71,4.61,1.87,5.56.87,2.85,1.12,4.69a59.6,59.6,0,0,0,1.29,6.08c.16.46,2.54,7.92,2.54,7.92s1.68,5.11,2.21,6.09,1.62,5.56,1.95,6.57A53.14,53.14,0,0,0,33,67.16"/><path d="M13.08,21.9a3.09,3.09,0,0,0-.05,1,1.39,1.39,0,0,0,.4.68,1.17,1.17,0,0,0,.84.38,1.09,1.09,0,0,0,.88-.41.53.53,0,0,0,.1-.35,3.58,3.58,0,0,0,0-.48,1,1,0,0,0-.35-.66,1,1,0,0,0-.72-.25C13.83,21.8,13.44,21.89,13.08,21.9ZM13,21.84a3.6,3.6,0,0,1,1-.62,1.42,1.42,0,0,1,1.34.2,1.56,1.56,0,0,1,.56,1.25,2.35,2.35,0,0,1-.08.6.92.92,0,0,1-.42.58,3,3,0,0,1-1.13.35,2,2,0,0,1-1.23-.12,1.29,1.29,0,0,1-.61-1.17A1.49,1.49,0,0,1,13,21.84Z"/><path d="M19.25,39.89a.9.9,0,0,0-.42.68,3.83,3.83,0,0,0,0,.67c-.07.23.5.79,1,.74a1.14,1.14,0,0,0,.71-.23.23.23,0,0,0,.07-.08s0,0,0-.07a2.47,2.47,0,0,0,0-.36,1.52,1.52,0,0,0-.51-1.13l.08,0a3.75,3.75,0,0,0-.49-.25A.61.61,0,0,0,19.25,39.89Zm0-.06a1.4,1.4,0,0,1,.57-.17,3.91,3.91,0,0,1,.61-.08l.07,0a1.36,1.36,0,0,1,.8.66,1.56,1.56,0,0,1,.14,1,2.23,2.23,0,0,1-.13.46.74.74,0,0,1-.19.3.77.77,0,0,1-.29.16,2.49,2.49,0,0,1-.95,0L19,42.07a1,1,0,0,1-.8-.73,1.18,1.18,0,0,1,.33-1A4.36,4.36,0,0,1,19.21,39.83Z"/><path d="M25.33,58.87c-.18.49-.52,1-.64,1.28-.11.1.07.85.53,1s.77-.32,1-.65a1.72,1.72,0,0,0,.06-1.14l.17.15-.53-.3L25.6,59Zm0-.07a2.1,2.1,0,0,1,.7-.06,2.35,2.35,0,0,1,.68.11l.08,0,.09.13a1.65,1.65,0,0,1-.08,1.84,1.49,1.49,0,0,1-.74.56,1.2,1.2,0,0,1-.9-.06,3.51,3.51,0,0,1-.73-.45,1.37,1.37,0,0,1-.31-.36.73.73,0,0,1-.05-.58,1.8,1.8,0,0,1,.53-.73A2.26,2.26,0,0,1,25.31,58.8Z"/><path class="cls-7" d="M7.38,16.08S9.2,19.86,9.62,21s4.36,10.64,5,15.84a10.44,10.44,0,0,0,1.5.19l-1,1.29,1.34.45-.78.72s2.51,8.27,3.35,10.93,4.3,13.49,4.52,13.6a3,3,0,0,0,1.18.2,3.76,3.76,0,0,1-.84.92,25.29,25.29,0,0,1,1.28,3.52,15.73,15.73,0,0,0,3.66-.53c1.4-.48,10-2.29,10-2.29S47.7,63.55,49,63.61v-.89s.3.27,1.17.92c0,0,7.32-1.23,8.41-2v-.79a4.69,4.69,0,0,1,1.4.76s6.19-.81,7.76-1.85c0,0-1.06-2.71-1.53-3.6a21.76,21.76,0,0,1-1.48-3.94c-.14-.73-1.29-3.88-1.57-4.89s-1-2.82-1.12-3.16-.5-2.2-.5-2.2l-1.15,0,.65-1a20.08,20.08,0,0,1-1.65-4.44,25.74,25.74,0,0,0-1.87-5.86l-1.18.05a3.5,3.5,0,0,1,.81-1.2,40.85,40.85,0,0,1-1.64-5.14,72.29,72.29,0,0,0-2.74-7.74A34.3,34.3,0,0,1,51,12.09a2.88,2.88,0,0,0-1.11-.5,2.42,2.42,0,0,0,.22-1.29,21.41,21.41,0,0,1-3.8.5c-1.59,0-6.73.45-8.94.73s-7.68.81-8.41,1.09a50.24,50.24,0,0,1-5.95.75l-.17,1-.89-1s-7.49,1.87-10.43,1.79a3.54,3.54,0,0,1-.08,1.26s-.87-.87-1.28-1.18A28,28,0,0,0,7.38,16.08Z"/></g></g></svg>