<svg xmlns="http://www.w3.org/2000/svg" viewBox="0 0 73.53 73.53"><defs><style>.cls-1{fill:#cd2028;}.cls-2,.cls-3,.cls-5,.cls-6,.cls-7{fill:none;}.cls-2{stroke:#cd2028;}.cls-2,.cls-3,.cls-4,.cls-5,.cls-6,.cls-7{stroke-miterlimit:10;}.cls-2,.cls-3{stroke-width:9px;}.cls-3{stroke:#fff;}.cls-4{fill:#fff;}.cls-4,.cls-7{stroke:#000;stroke-width:0.75px;}.cls-5{stroke:#91d7ef;stroke-width:0.5px;}.cls-6{stroke:#e02b27;}</style></defs><g id="Layer_4" data-name="Layer 4"><path class="cls-1" d="M69,60.49a8.52,8.52,0,0,1-8.5,8.5H13.06a8.52,8.52,0,0,1-8.5-8.5V13.11a8.53,8.53,0,0,1,8.5-8.51H60.45A8.53,8.53,0,0,1,69,13.11Z"/><path class="cls-2" d="M69,60.49a8.52,8.52,0,0,1-8.5,8.5H13.06a8.52,8.52,0,0,1-8.5-8.5V13.11a8.53,8.53,0,0,1,8.5-8.51H60.45A8.53,8.53,0,0,1,69,13.11Z"/><path class="cls-1" d="M67.51,59.05A8.53,8.53,0,0,1,59,67.55H14.51A8.53,8.53,0,0,1,6,59.05V14.55a8.53,8.53,0,0,1,8.51-8.5H59a8.53,8.53,0,0,1,8.51,8.5Z"/><path class="cls-3" d="M67.51,59.05A8.53,8.53,0,0,1,59,67.55H14.51A8.53,8.53,0,0,1,6,59.05V14.55a8.53,8.53,0,0,1,8.51-8.5H59a8.53,8.53,0,0,1,8.51,8.5Z"/><g id="paper"><path class="cls-4" d="M6.6,13.43s1.81,3.77,2.23,4.86,4.36,10.64,5,15.84a11.94,11.94,0,0,0,1.51.2l-1,1.28,1.34.45-.78.73s2.52,8.27,3.35,10.92,4.31,13.49,4.53,13.61a3,3,0,0,0,1.17.19,3.49,3.49,0,0,1-.83.92A27.2,27.2,0,0,1,24.45,66a15.23,15.23,0,0,0,3.66-.53c1.4-.47,10-2.29,10-2.29S46.91,60.9,48.17,61v-.89s.31.28,1.18.92c0,0,7.32-1.23,8.41-2v-.78a4.57,4.57,0,0,1,1.39.75s6.19-.81,7.76-1.84c0,0-1-2.71-1.53-3.61a23.37,23.37,0,0,1-1.48-3.94c-.14-.72-1.28-3.88-1.56-4.89s-1-2.82-1.12-3.15-.5-2.21-.5-2.21l-1.15,0,.64-1a20.41,20.41,0,0,1-1.64-4.44,25.18,25.18,0,0,0-1.88-5.87L55.52,28a3.6,3.6,0,0,1,.81-1.2,42.14,42.14,0,0,1-1.65-5.14,70.9,70.9,0,0,0-2.74-7.74,35.52,35.52,0,0,1-1.7-4.47,3,3,0,0,0-1.12-.5,2.39,2.39,0,0,0,.23-1.29,21,21,0,0,1-3.8.51c-1.6,0-6.74.44-8.94.72S28.92,9.68,28.2,10a50.61,50.61,0,0,1-6,.76l-.16,1-.9-1s-7.49,1.88-10.42,1.79a3.53,3.53,0,0,1-.08,1.26,16.06,16.06,0,0,0-1.29-1.17A27.91,27.91,0,0,0,6.6,13.43Z"/><path class="cls-5" d="M10.27,22s5.9-.79,7-.91,10-1.58,12.69-2.24,9.85-2.5,13.46-3l3.6-.51s3.72-.81,5.32-.53"/><path class="cls-5" d="M11.41,25.1s5.44-1.41,8-1.72S31,21.18,31.93,21s8.5-1.63,9.22-1.84a92.31,92.31,0,0,1,12-2.1"/><path class="cls-5" d="M12.26,27.66s6.77-1.48,8.15-1.51,9.21-1.78,11.22-2.2,8.8-1.56,10.4-2,7.37-1.86,8.38-1.85A22.1,22.1,0,0,0,54,19.43"/><path class="cls-5" d="M13,30s7.44-.92,8.18-1.25,11.8-2.26,14-2.8,11.23-2.31,12.24-2.56,6.45-1.51,7.29-1.72"/><path class="cls-5" d="M13.73,33.26s4.28-.81,5.66-1.14,4.53-1,5.75-1.34S37,28.31,37.88,28.14,47.35,26.38,51,25.46l4.41-1.11"/><path class="cls-5" d="M15.23,35.89s4.84-.75,7.73-1.55,10.52-2.18,12.9-2.72,8.3-1.43,11.7-2.31S56,27.1,56.33,26.78"/><line class="cls-5" x1="15.58" y1="38.84" x2="17.69" y2="38.56"/><path class="cls-5" d="M20.18,37.91s3.24-.76,6.38-1.68,12.2-2.66,13.83-3,7.21-1.66,8.55-1.92,7.63-1.51,8.47-1.71"/><path class="cls-5" d="M16.54,42s2.81-.61,4.57-.9a42.13,42.13,0,0,0,5.58-1.39c1.67-.54,7.92-1.88,9.68-2.38s8-1.72,9.8-2.18,6.63-1.34,7.34-1.68a37.18,37.18,0,0,1,4.84-.78"/><path class="cls-5" d="M17.32,44.54s3.46-.43,5.3-.9,8-1.88,9.26-2.18,9.52-2.05,10.31-2.26S51,37.08,52.5,36.8,59,35.42,59,35.42"/><path class="cls-5" d="M18.3,47.71s3.34-1,5.09-1.34,7.78-1.76,9.21-2.1,8.8-2.18,10.26-2.51,5.7-1.25,8.26-1.78,8.72-1.57,9.09-1.74"/><path class="cls-5" d="M19.06,50.1s3.85-.59,4.9-.84,7.88-1.72,8.72-1.93,9.89-2.26,11.06-2.47,6.88-1.43,7.8-1.68,6.79-1.63,7.46-1.76S61.07,41,61.07,41"/><path class="cls-5" d="M19.94,52.81s2.39-.28,3.9-.41,7.5-1.72,9-2S42,48.21,43,48s8-1.76,9.68-2,8.18-2,9.14-2.77"/><path class="cls-5" d="M20.86,55.66a35,35,0,0,0,3.61-.2c1.88-.21,6-1.38,7.33-1.63s7.78-1.89,8.27-2,6.36-1.43,7.61-1.72,5.45-1.09,8-1.64,7.19-2.24,7.19-2.24"/><path class="cls-5" d="M22.12,59.43s3-.37,5-.79,8.51-2.51,9.89-2.8,8.17-2.26,10-2.64,6.33-1.39,10-2.2,6.8-1.73,6.8-1.73"/><path class="cls-5" d="M24,61.51s2-.47,3.86-.89,7-1.8,8.55-2.22,7.08-1.93,9.18-2.22,7.58-1.77,8.21-1.83,4.86-1.11,6.41-1.36a31,31,0,0,0,4.38-1.33"/><path class="cls-5" d="M23.56,63.37s3-.49,5.81-1.16,11.15-2.68,12.7-3,8.34-1.84,9.85-2.13,7-1.39,8-1.68,5.83-1.07,5.83-1.07"/><path class="cls-6" d="M14.6,12.24s1.82,3.4,2.1,4.16,2.21,5.36,2.35,5.89,1.7,4.61,1.87,5.56.87,2.85,1.12,4.7,1.12,5.61,1.28,6.07,2.55,7.92,2.55,7.92,1.67,5.12,2.2,6.09,1.62,5.56,2,6.57a52.44,52.44,0,0,0,2.14,5.3"/><path d="M12.29,19.24a3.07,3.07,0,0,0,0,1,1.4,1.4,0,0,0,.39.68,1.2,1.2,0,0,0,.85.39,1.09,1.09,0,0,0,.87-.41.46.46,0,0,0,.1-.35,3.64,3.64,0,0,0,0-.48,1,1,0,0,0-.35-.66,1,1,0,0,0-.72-.26C13,19.14,12.66,19.24,12.29,19.24Zm0-.06a3.69,3.69,0,0,1,1-.62,1.43,1.43,0,0,1,1.33.21A1.5,1.5,0,0,1,15.14,20a2.49,2.49,0,0,1-.08.61.92.92,0,0,1-.42.57,2.74,2.74,0,0,1-1.13.35,2,2,0,0,1-1.23-.12,1.27,1.27,0,0,1-.61-1.17A1.46,1.46,0,0,1,12.25,19.18Z"/><path d="M18.47,37.24a.9.9,0,0,0-.43.67,4,4,0,0,0,0,.68c-.06.22.51.78,1,.73a1.22,1.22,0,0,0,.71-.22.16.16,0,0,0,.06-.08s0,0,0-.08a2.2,2.2,0,0,0,0-.36,1.53,1.53,0,0,0-.5-1.13l.07,0a3.09,3.09,0,0,0-.48-.25A.6.6,0,0,0,18.47,37.24Zm0-.07A1.63,1.63,0,0,1,19,37a3.08,3.08,0,0,1,.61-.07l.08,0a1.34,1.34,0,0,1,.8.65,1.57,1.57,0,0,1,.14,1,3.22,3.22,0,0,1-.13.47,1.1,1.1,0,0,1-.19.3.73.73,0,0,1-.29.15,2.3,2.3,0,0,1-1,0l-.89-.15a.94.94,0,0,1-.8-.73,1.16,1.16,0,0,1,.33-1A4.92,4.92,0,0,1,18.42,37.17Z"/><path d="M24.55,56.21c-.18.49-.53.95-.64,1.29a.88.88,0,0,0,.53,1c.5.17.76-.33,1-.66a1.85,1.85,0,0,0,.06-1.14l.16.16-.52-.31-.28-.15A2.4,2.4,0,0,1,24.55,56.21Zm0-.07a2.46,2.46,0,0,1,.7-.06,2.83,2.83,0,0,1,.69.11l.08,0,.08.13A1.61,1.61,0,0,1,26,58.18a1.51,1.51,0,0,1-.73.56,1.15,1.15,0,0,1-.9-.06,3.52,3.52,0,0,1-.74-.44,1.25,1.25,0,0,1-.3-.37.73.73,0,0,1-.05-.58,1.7,1.7,0,0,1,.53-.72A2.16,2.16,0,0,1,24.52,56.14Z"/><path class="cls-7" d="M6.6,13.43s1.81,3.77,2.23,4.86,4.36,10.64,5,15.84a11.94,11.94,0,0,0,1.51.2l-1,1.28,1.34.45-.78.73s2.52,8.27,3.35,10.92,4.31,13.49,4.53,13.61a3,3,0,0,0,1.17.19,3.49,3.49,0,0,1-.83.92A27.2,27.2,0,0,1,24.45,66a15.23,15.23,0,0,0,3.66-.53c1.4-.47,10-2.29,10-2.29S46.91,60.9,48.17,61v-.89s.31.28,1.18.92c0,0,7.32-1.23,8.41-2v-.78a4.57,4.57,0,0,1,1.39.75s6.19-.81,7.76-1.84c0,0-1-2.71-1.53-3.61a23.37,23.37,0,0,1-1.48-3.94c-.14-.72-1.28-3.88-1.56-4.89s-1-2.82-1.12-3.15-.5-2.21-.5-2.21l-1.15,0,.64-1a20.41,20.41,0,0,1-1.64-4.44,25.18,25.18,0,0,0-1.88-5.87L55.52,28a3.6,3.6,0,0,1,.81-1.2,42.14,42.14,0,0,1-1.65-5.14,70.9,70.9,0,0,0-2.74-7.74,35.52,35.52,0,0,1-1.7-4.47,3,3,0,0,0-1.12-.5,2.39,2.39,0,0,0,.23-1.29,21,21,0,0,1-3.8.51c-1.6,0-6.74.44-8.94.72S28.92,9.68,28.2,10a50.61,50.61,0,0,1-6,.76l-.16,1-.9-1s-7.49,1.88-10.42,1.79a3.53,3.53,0,0,1-.08,1.26,16.06,16.06,0,0,0-1.29-1.17A27.91,27.91,0,0,0,6.6,13.43Z"/></g></g></svg>