<svg xmlns="http://www.w3.org/2000/svg" viewBox="0 0 77.65 78.26"><defs><style>.cls-1{fill:#6c96ce;}.cls-2,.cls-3,.cls-5,.cls-6,.cls-7{fill:none;}.cls-2{stroke:#6c96ce;}.cls-2,.cls-3,.cls-4,.cls-5,.cls-6,.cls-7{stroke-miterlimit:10;}.cls-2,.cls-3{stroke-width:9px;}.cls-3{stroke:#fff;}.cls-4{fill:#fff;}.cls-4,.cls-7{stroke:#000;stroke-width:0.75px;}.cls-5{stroke:#91d7ef;stroke-width:0.5px;}.cls-6{stroke:#e02b27;}</style></defs><g id="Layer_4" data-name="Layer 4"><path class="cls-1" d="M69.44,62.47A8.54,8.54,0,0,1,60.93,71H13.55a8.53,8.53,0,0,1-8.5-8.51V15.09a8.52,8.52,0,0,1,8.5-8.5H60.93a8.53,8.53,0,0,1,8.51,8.5Z"/><path class="cls-2" d="M69.44,62.47A8.54,8.54,0,0,1,60.93,71H13.55a8.53,8.53,0,0,1-8.5-8.51V15.09a8.52,8.52,0,0,1,8.5-8.5H60.93a8.53,8.53,0,0,1,8.51,8.5Z"/><path class="cls-1" d="M68,61a8.52,8.52,0,0,1-8.5,8.5H15A8.52,8.52,0,0,1,6.49,61V16.53A8.53,8.53,0,0,1,15,8h44.5a8.52,8.52,0,0,1,8.5,8.5Z"/><path class="cls-3" d="M68,61a8.52,8.52,0,0,1-8.5,8.5H15A8.52,8.52,0,0,1,6.49,61V16.53A8.53,8.53,0,0,1,15,8h44.5a8.52,8.52,0,0,1,8.5,8.5Z"/><g id="paper"><path class="cls-4" d="M7.08,15.41s1.82,3.77,2.24,4.86,4.36,10.65,5,15.84a10.13,10.13,0,0,0,1.51.2l-1,1.28,1.34.45-.78.73S18,47,18.79,49.69s4.3,13.5,4.53,13.61a3,3,0,0,0,1.17.19,3.55,3.55,0,0,1-.84.93,26.49,26.49,0,0,1,1.29,3.52,15.8,15.8,0,0,0,3.66-.53c1.4-.48,10-2.3,10-2.3s8.83-2.23,10.09-2.17V62s.31.28,1.17.92c0,0,7.32-1.23,8.41-2v-.78a4.58,4.58,0,0,1,1.4.75s6.19-.81,7.76-1.84c0,0-1.06-2.71-1.53-3.6a23.14,23.14,0,0,1-1.48-3.94c-.14-.73-1.29-3.89-1.57-4.89s-1-2.82-1.11-3.16-.51-2.21-.51-2.21l-1.14,0,.64-1a20.08,20.08,0,0,1-1.65-4.44,25.35,25.35,0,0,0-1.87-5.87L56,30a3.5,3.5,0,0,1,.81-1.2,41.86,41.86,0,0,1-1.65-5.15,70,70,0,0,0-2.74-7.73,36.11,36.11,0,0,1-1.7-4.47,3,3,0,0,0-1.12-.51,2.4,2.4,0,0,0,.22-1.28,21.25,21.25,0,0,1-3.8.5c-1.59,0-6.73.45-8.94.73s-7.68.81-8.41,1.09a50,50,0,0,1-5.95.75l-.17,1-.89-1s-7.49,1.87-10.42,1.78a3.65,3.65,0,0,1-.09,1.26s-.86-.86-1.28-1.17A28,28,0,0,0,7.08,15.41Z"/><path class="cls-5" d="M10.76,24s5.89-.8,6.94-.92,10-1.58,12.7-2.24,9.85-2.5,13.45-3l3.61-.5s3.71-.82,5.31-.54"/><path class="cls-5" d="M11.89,27.09s5.45-1.42,8-1.73,11.58-2.2,12.5-2.36,8.51-1.64,9.22-1.85a90.94,90.94,0,0,1,12-2.09"/><path class="cls-5" d="M12.75,29.65s6.77-1.49,8.14-1.51,9.22-1.79,11.23-2.21,8.8-1.56,10.39-2a84.25,84.25,0,0,1,8.38-1.85,21.79,21.79,0,0,0,3.63-.7"/><path class="cls-5" d="M13.44,32s7.44-.92,8.18-1.25,11.8-2.26,14-2.8,11.23-2.31,12.24-2.56,6.45-1.51,7.29-1.72"/><path class="cls-5" d="M14.22,35.25s4.28-.81,5.66-1.15,4.53-1,5.74-1.34,11.86-2.47,12.74-2.64,9.48-1.76,13.16-2.68l4.42-1.11"/><path class="cls-5" d="M15.72,37.87s4.83-.75,7.72-1.55S34,34.14,36.35,33.6s8.3-1.43,11.69-2.31,8.46-2.2,8.78-2.52"/><line class="cls-5" x1="16.07" y1="40.82" x2="18.18" y2="40.54"/><path class="cls-5" d="M20.66,39.89s3.24-.76,6.39-1.68,12.19-2.66,13.83-3,7.21-1.66,8.55-1.93,7.63-1.51,8.47-1.7"/><path class="cls-5" d="M17,44s2.81-.61,4.57-.9a41.58,41.58,0,0,0,5.57-1.38c1.68-.55,7.92-1.89,9.68-2.39s8-1.72,9.81-2.18,6.62-1.34,7.34-1.68a37.18,37.18,0,0,1,4.84-.78"/><path class="cls-5" d="M17.81,46.53s3.45-.44,5.3-.9,8-1.89,9.26-2.18,9.51-2.06,10.31-2.27,8.76-2.12,10.31-2.4,6.5-1.38,6.5-1.38"/><path class="cls-5" d="M18.79,49.69s3.34-1,5.08-1.34,7.79-1.76,9.21-2.09,8.8-2.18,10.27-2.52,5.7-1.25,8.26-1.78,8.71-1.57,9.09-1.74"/><path class="cls-5" d="M19.55,52.08s3.85-.59,4.9-.84,7.88-1.72,8.72-1.92,9.89-2.27,11.06-2.48,6.87-1.42,7.8-1.67,6.79-1.64,7.46-1.76S61.56,43,61.56,43"/><path class="cls-5" d="M20.42,54.79s2.4-.28,3.9-.4,7.51-1.72,9-2S42.51,50.2,43.52,50s8-1.76,9.68-2.06,8.18-2,9.14-2.77"/><path class="cls-5" d="M21.35,57.64a33.14,33.14,0,0,0,3.6-.19c1.89-.21,5.95-1.39,7.34-1.64s7.77-1.88,8.26-2,6.36-1.43,7.62-1.72,5.45-1.09,8-1.63,7.19-2.25,7.19-2.25"/><path class="cls-5" d="M22.61,61.42s3-.38,5-.79,8.51-2.51,9.9-2.81,8.17-2.26,10-2.64,6.33-1.39,10-2.2,6.8-1.73,6.8-1.73"/><path class="cls-5" d="M24.49,63.49s2-.47,3.86-.89,7-1.8,8.55-2.22,7.08-1.93,9.17-2.22,7.59-1.77,8.22-1.83S59.15,55.22,60.7,55a31,31,0,0,0,4.38-1.33"/><path class="cls-5" d="M24,65.35s3-.49,5.82-1.16,11.14-2.68,12.69-3,8.34-1.85,9.85-2.14,7-1.38,8.05-1.68,5.82-1.07,5.82-1.07"/><path class="cls-6" d="M15.09,14.22s1.82,3.41,2.1,4.16,2.21,5.36,2.35,5.9,1.7,4.61,1.87,5.56.86,2.84,1.11,4.69,1.12,5.61,1.29,6.07,2.54,7.93,2.54,7.93,1.68,5.11,2.21,6.09,1.62,5.56,2,6.56a53.75,53.75,0,0,0,2.14,5.31"/><path d="M12.78,21.22a2.81,2.81,0,0,0,0,1,1.23,1.23,0,0,0,.39.68,1.2,1.2,0,0,0,.85.39,1.1,1.1,0,0,0,.87-.41.5.5,0,0,0,.1-.35,3.64,3.64,0,0,0,0-.48,1,1,0,0,0-.35-.66,1,1,0,0,0-.73-.25C13.53,21.13,13.14,21.22,12.78,21.22Zm0-.06a3.62,3.62,0,0,1,1-.61,1.4,1.4,0,0,1,1.33.2A1.48,1.48,0,0,1,15.62,22a2,2,0,0,1-.07.61,1,1,0,0,1-.43.58,2.83,2.83,0,0,1-1.13.34,1.88,1.88,0,0,1-1.22-.12,1.27,1.27,0,0,1-.61-1.17A1.48,1.48,0,0,1,12.73,21.16Z"/><path d="M19,39.22a.94.94,0,0,0-.42.67,4,4,0,0,0,0,.68c-.06.22.5.78,1,.73a1.23,1.23,0,0,0,.72-.22.18.18,0,0,0,.06-.08s0,0,0-.07a2.46,2.46,0,0,0,0-.37,1.53,1.53,0,0,0-.5-1.13l.07,0a2.48,2.48,0,0,0-.49-.24A.61.61,0,0,0,19,39.22Zm0-.06a1.46,1.46,0,0,1,.57-.18,6,6,0,0,1,.61-.07l.07,0a1.37,1.37,0,0,1,.81.66,1.56,1.56,0,0,1,.14,1,3.5,3.5,0,0,1-.14.46.76.76,0,0,1-.19.3.64.64,0,0,1-.28.15,2.19,2.19,0,0,1-1,0l-.89-.15a.93.93,0,0,1-.79-.73,1.11,1.11,0,0,1,.33-.95A3.54,3.54,0,0,1,18.91,39.16Z"/><path d="M25,58.19c-.17.49-.52,1-.63,1.29-.12.1.06.85.53,1s.76-.32.95-.65a1.72,1.72,0,0,0,.06-1.14l.17.15-.52-.3-.28-.15A2.61,2.61,0,0,1,25,58.19Zm0-.07a2.46,2.46,0,0,1,.7-.06,2.32,2.32,0,0,1,.68.12l.08,0,.09.13a1.61,1.61,0,0,1-.08,1.83,1.52,1.52,0,0,1-.73.57,1.28,1.28,0,0,1-.91-.06,4,4,0,0,1-.73-.45,1.45,1.45,0,0,1-.31-.37.73.73,0,0,1,0-.58,1.81,1.81,0,0,1,.52-.72A2.51,2.51,0,0,1,25,58.12Z"/><path class="cls-7" d="M7.08,15.41s1.82,3.77,2.24,4.86,4.36,10.65,5,15.84a10.13,10.13,0,0,0,1.51.2l-1,1.28,1.34.45-.78.73S18,47,18.79,49.69s4.3,13.5,4.53,13.61a3,3,0,0,0,1.17.19,3.55,3.55,0,0,1-.84.93,26.49,26.49,0,0,1,1.29,3.52,15.8,15.8,0,0,0,3.66-.53c1.4-.48,10-2.3,10-2.3s8.83-2.23,10.09-2.17V62s.31.28,1.17.92c0,0,7.32-1.23,8.41-2v-.78a4.58,4.58,0,0,1,1.4.75s6.19-.81,7.76-1.84c0,0-1.06-2.71-1.53-3.6a23.14,23.14,0,0,1-1.48-3.94c-.14-.73-1.29-3.89-1.57-4.89s-1-2.82-1.11-3.16-.51-2.21-.51-2.21l-1.14,0,.64-1a20.08,20.08,0,0,1-1.65-4.44,25.35,25.35,0,0,0-1.87-5.87L56,30a3.5,3.5,0,0,1,.81-1.2,41.86,41.86,0,0,1-1.65-5.15,70,70,0,0,0-2.74-7.73,36.11,36.11,0,0,1-1.7-4.47,3,3,0,0,0-1.12-.51,2.4,2.4,0,0,0,.22-1.28,21.25,21.25,0,0,1-3.8.5c-1.59,0-6.73.45-8.94.73s-7.68.81-8.41,1.09a50,50,0,0,1-5.95.75l-.17,1-.89-1s-7.49,1.87-10.42,1.78a3.65,3.65,0,0,1-.09,1.26s-.86-.86-1.28-1.17A28,28,0,0,0,7.08,15.41Z"/></g></g></svg>