<svg xmlns="http://www.w3.org/2000/svg" viewBox="0 0 229.63 55.29"><defs><style>.cls-1{fill:#6c96ce;}.cls-2,.cls-4{fill:none;stroke-width:9px;}.cls-2{stroke:#6c96ce;}.cls-2,.cls-4,.cls-5{stroke-miterlimit:10;}.cls-3{fill:#fff;}.cls-4{stroke:#fff;}.cls-5{font-size:32.71px;fill:#6c96cf;stroke:#231f20;stroke-width:2px;font-family:ShowcardGothic-Reg, Showcard Gothic;}</style></defs><g id="Layer_6" data-name="Layer 6"><path class="cls-1" d="M225.13,42.11a8.53,8.53,0,0,1-8.5,8.51h-203a8.53,8.53,0,0,1-8.5-8.51V13.18a8.52,8.52,0,0,1,8.5-8.5h203a8.52,8.52,0,0,1,8.5,8.5Z"/><path class="cls-2" d="M225.13,42.11a8.53,8.53,0,0,1-8.5,8.51h-203a8.53,8.53,0,0,1-8.5-8.51V13.18a8.52,8.52,0,0,1,8.5-8.5h203a8.52,8.52,0,0,1,8.5,8.5Z"/><path class="cls-3" d="M220.21,41.08a8.54,8.54,0,0,1-8.51,8.51H18.55a8.53,8.53,0,0,1-8.5-8.51V14.21a8.52,8.52,0,0,1,8.5-8.5H211.7a8.53,8.53,0,0,1,8.51,8.5Z"/><path class="cls-4" d="M220.21,41.08a8.54,8.54,0,0,1-8.51,8.51H18.55a8.53,8.53,0,0,1-8.5-8.51V14.21a8.52,8.52,0,0,1,8.5-8.5H211.7a8.53,8.53,0,0,1,8.51,8.5Z"/><text class="cls-5" transform="translate(14.11 38.64)">play again?</text></g></svg>