<svg xmlns="http://www.w3.org/2000/svg" viewBox="0 0 73.53 73.65"><defs><style>.cls-1,.cls-4{fill:#fff;}.cls-2,.cls-3{fill:none;stroke-miterlimit:10;stroke-width:9px;}.cls-2{stroke:#000;}.cls-3{stroke:#fff;}.cls-4{font-size:45.61px;font-family:ShowcardGothic-Reg, Showcard Gothic;}</style></defs><g id="Layer_3" data-name="Layer 3"><path class="cls-1" d="M69.06,60.63a8.53,8.53,0,0,1-8.5,8.51H13.17a8.53,8.53,0,0,1-8.5-8.51V13.25a8.52,8.52,0,0,1,8.5-8.5H60.56a8.52,8.52,0,0,1,8.5,8.5Z"/><path class="cls-2" d="M69.06,60.63a8.53,8.53,0,0,1-8.5,8.51H13.17a8.53,8.53,0,0,1-8.5-8.51V13.25a8.52,8.52,0,0,1,8.5-8.5H60.56a8.52,8.52,0,0,1,8.5,8.5Z"/><path d="M67.62,59.19a8.53,8.53,0,0,1-8.51,8.5H14.62a8.53,8.53,0,0,1-8.51-8.5V14.69a8.53,8.53,0,0,1,8.51-8.5H59.11a8.53,8.53,0,0,1,8.51,8.5Z"/><path class="cls-3" d="M67.62,59.19a8.53,8.53,0,0,1-8.51,8.5H14.62a8.53,8.53,0,0,1-8.51-8.5V14.69a8.53,8.53,0,0,1,8.51-8.5H59.11a8.53,8.53,0,0,1,8.51,8.5Z"/><text class="cls-4" transform="translate(25.6 52.26)">?</text></g></svg>