<svg xmlns="http://www.w3.org/2000/svg" viewBox="0 0 77.65 78.26"><defs><style>.cls-1,.cls-4{fill:#fff;}.cls-2,.cls-3{fill:none;stroke-miterlimit:10;stroke-width:9px;}.cls-2{stroke:#000;}.cls-3{stroke:#fff;}.cls-4{font-size:45.61px;font-family:ShowcardGothic-Reg, Showcard Gothic;}</style></defs><g id="Layer_3" data-name="Layer 3"><path class="cls-1" d="M71,62.82a8.53,8.53,0,0,1-8.51,8.5H15.13a8.52,8.52,0,0,1-8.5-8.5V15.44a8.53,8.53,0,0,1,8.5-8.51H62.51A8.54,8.54,0,0,1,71,15.44Z"/><path class="cls-2" d="M71,62.82a8.53,8.53,0,0,1-8.51,8.5H15.13a8.52,8.52,0,0,1-8.5-8.5V15.44a8.53,8.53,0,0,1,8.5-8.51H62.51A8.54,8.54,0,0,1,71,15.44Z"/><path d="M69.58,61.38a8.53,8.53,0,0,1-8.51,8.5H16.57a8.53,8.53,0,0,1-8.5-8.5V16.88a8.53,8.53,0,0,1,8.5-8.51h44.5a8.54,8.54,0,0,1,8.51,8.51Z"/><path class="cls-3" d="M69.58,61.38a8.53,8.53,0,0,1-8.51,8.5H16.57a8.53,8.53,0,0,1-8.5-8.5V16.88a8.53,8.53,0,0,1,8.5-8.51h44.5a8.54,8.54,0,0,1,8.51,8.51Z"/><text class="cls-4" transform="translate(27.55 54.45)">?</text></g></svg>