<svg xmlns="http://www.w3.org/2000/svg" xmlns:xlink="http://www.w3.org/1999/xlink" viewBox="0 0 73.88 73.41"><defs><style>.cls-1,.cls-5{fill:#5c5a5f;}.cls-1,.cls-8{stroke:#000;stroke-width:5px;}.cls-1,.cls-10,.cls-3,.cls-4,.cls-8{stroke-miterlimit:10;}.cls-2{fill:#118442;}.cls-10,.cls-3,.cls-4,.cls-8{fill:none;}.cls-3{stroke:#118442;}.cls-3,.cls-4{stroke-width:9px;}.cls-4{stroke:#fff;}.cls-6{clip-path:url(#clip-path);}.cls-7{fill:#4a484c;}.cls-9{fill:#030202;}.cls-10{stroke:#030202;stroke-width:3px;}</style><clipPath id="clip-path"><path class="cls-1" d="M27.21,14.62s6.3-.13,8,.33S39,16.3,41.49,16.23s3.89-.34,5.16,1.21S49,24.67,49,24.67s4.15,3.22,5.16,3.36,4.76,3.82,5.9,5.09,4.29,2.48,4.22,5.77-2.08,7.84-1.47,10.39S62,51.89,62.14,53s1.07,2.28-.27,3.55-2.75,1-4.63,1.21S51,59.2,50,59.13a21.84,21.84,0,0,0-5.16,0,39.34,39.34,0,0,1-7.57.74c-2.28-.14-5.63.13-7-.27s-6.84-.6-7.91-.2l-7.31-3.29s-1.61-2.54-.67-4.62S13.07,45,13.07,45l-2.68-4a18.7,18.7,0,0,1-.54-4.56c.07-2.22,1.68-6.51,1.81-8s-.47-1.41,1-2.48,2.54-3.29,4.62-4,4.36-5.09,4.56-5.63A5.79,5.79,0,0,1,27.21,14.62Z"/></clipPath></defs><g id="Layer_4" data-name="Layer 4"><path class="cls-2" d="M69.26,60.87a8.53,8.53,0,0,1-8.5,8.51H13.37a8.53,8.53,0,0,1-8.5-8.51V13.49A8.52,8.52,0,0,1,13.37,5H60.76a8.52,8.52,0,0,1,8.5,8.5Z"/><path class="cls-3" d="M69.26,60.87a8.53,8.53,0,0,1-8.5,8.51H13.37a8.53,8.53,0,0,1-8.5-8.51V13.49A8.52,8.52,0,0,1,13.37,5H60.76a8.52,8.52,0,0,1,8.5,8.5Z"/><path class="cls-2" d="M67.82,59.43a8.53,8.53,0,0,1-8.51,8.5H14.82a8.53,8.53,0,0,1-8.51-8.5V14.93a8.53,8.53,0,0,1,8.51-8.5H59.31a8.53,8.53,0,0,1,8.51,8.5Z"/><path class="cls-4" d="M67.82,59.43a8.53,8.53,0,0,1-8.51,8.5H14.82a8.53,8.53,0,0,1-8.51-8.5V14.93a8.53,8.53,0,0,1,8.51-8.5H59.31a8.53,8.53,0,0,1,8.51,8.5Z"/><g id="rock"><path class="cls-5" d="M27.21,14.62s6.3-.13,8,.33S39,16.3,41.49,16.23s3.89-.34,5.16,1.21S49,24.67,49,24.67s4.15,3.22,5.16,3.36,4.76,3.82,5.9,5.09,4.29,2.48,4.22,5.77-2.08,7.84-1.47,10.39S62,51.89,62.14,53s1.07,2.28-.27,3.55-2.75,1-4.63,1.21S51,59.2,50,59.13a21.84,21.84,0,0,0-5.16,0,39.34,39.34,0,0,1-7.57.74c-2.28-.14-5.63.13-7-.27s-6.84-.6-7.91-.2l-7.31-3.29s-1.61-2.54-.67-4.62S13.07,45,13.07,45l-2.68-4a18.7,18.7,0,0,1-.54-4.56c.07-2.22,1.68-6.51,1.81-8s-.47-1.41,1-2.48,2.54-3.29,4.62-4,4.36-5.09,4.56-5.63A5.79,5.79,0,0,1,27.21,14.62Z"/><g class="cls-6"><path class="cls-7" d="M62.27,58.53l2.41-5.23.2-6.1,1.41-7.91-1.47-5.57-3.45,1.13-2.85-6.42L53,25.75s-3.21-4.83-3.35-6.1-4-4.29-4-4.29l-6.77-.88s5.64,3.49,6.44,5.9A36.1,36.1,0,0,1,46.38,27L50,30.77s3.22,4.63,4.23,5.37,4.42,2.21,4.56,3.75.72,5.3.66,6.3-1.37,3.89-1.24,4.5.57,3.46.31,3.81S57,59.59,57,59.59Z"/><path class="cls-7" d="M53.42,32.52l-5.36-5.83-4.16-.07-6-1.74-7.52.57s11.47,3.18,11,3.92-4.36,7.81-4.36,7.81,5.3-7.14,6.84-6.94,6.3,4.18,7.91,5,5.95,2.79,6,3.22S53.42,32.52,53.42,32.52Z"/><path class="cls-7" d="M11.66,27.48s1.11,4.31,2.07,5.24a36.68,36.68,0,0,1,3,4.15s.69,5.63.63,6.4a17.52,17.52,0,0,0,1,4.36,46.91,46.91,0,0,1,1.21,7.48c-.06.8,0,4.07,0,4.07l-7.88-1.06L10.19,43.78,7.3,37.55l4.36-10.07"/><path class="cls-7" d="M26.54,48.54A4.91,4.91,0,0,1,25.6,52a5.62,5.62,0,0,0-1.2,3.15s-.87,1.14-1.48,1.14-.6.06-1.4-1.14-2.08-3.82-2-5.77S18,47,17.68,45.47s-2.08,3.4-2.08,3.4l2.16,11,4.83,1,4.29-1.69-1.34-.65S29,53.7,26.54,48.54Z"/><path class="cls-7" d="M25.54,57.05s6,1,7.57.4,3.22.41,5.1.27a2,2,0,0,0,2.07-1.61s-.45,2,1.55-1,3.48-2.75,4.22-5.37,2.48-4.35,2.61-6c0,0-1.18,6.5-1.94,8.18a10.58,10.58,0,0,0,3.69-1.48,15.62,15.62,0,0,0,3-2.85s-1,3-2.17,3.58-3.61,1.36-4.86,2.16S43.3,55,42.93,56.8a22.31,22.31,0,0,1-1.1,3.54l-12.61.93L24,59.59Z"/><path class="cls-7" d="M24.46,56.25c-1.67-3.15-1.81-4.43-1.87-6.37a2.22,2.22,0,0,0-.87,2.34c.4,1.48.53,3.36.8,4.63S24.46,56.25,24.46,56.25Z"/><path class="cls-7" d="M41.83,58.12s3.28-4.51,6-5.47,7.54-.29,9.15-2.44.67-3.28.67-3.28l.56-4.49s-.3-3.77-.9-4.56S60,39.56,60,39.56l.54,12.6-1.81,7.73L44.84,62.08l-4.56-3.22Z"/><path class="cls-7" d="M12.8,30.77s2.15,3.16,3.35,3.16c0,0,.7-1,4.56-2.28s6.7-4.5,7.44-5.23,1.68-1.61,1.68-1.61S28,21.19,27.28,19.24A36.32,36.32,0,0,1,30,24a7.56,7.56,0,0,0,.74,1.79l-4.53,3.36c-.28.2-3,2.13-3.58,2.48s-3.26,1.61-4.1,2.61a29.41,29.41,0,0,0-1.87,2.61l-2.21-1.2Z"/></g><path class="cls-8" d="M27.21,14.62s6.3-.13,8,.33S39,16.3,41.49,16.23s3.89-.34,5.16,1.21S49,24.67,49,24.67s4.15,3.22,5.16,3.36,4.76,3.82,5.9,5.09,4.29,2.48,4.22,5.77-2.08,7.84-1.47,10.39S62,51.89,62.14,53s1.07,2.28-.27,3.55-2.75,1-4.63,1.21S51,59.2,50,59.13a21.84,21.84,0,0,0-5.16,0,39.34,39.34,0,0,1-7.57.74c-2.28-.14-5.63.13-7-.27s-6.84-.6-7.91-.2l-7.31-3.29s-1.61-2.54-.67-4.62S13.07,45,13.07,45l-2.68-4a18.7,18.7,0,0,1-.54-4.56c.07-2.22,1.68-6.51,1.81-8s-.47-1.41,1-2.48,2.54-3.29,4.62-4,4.36-5.09,4.56-5.63A5.79,5.79,0,0,1,27.21,14.62Z"/><path class="cls-9" d="M17.54,58.14c.11-2.55.18-5.2,0-7.67,0-.3,0-.61-.09-.88a3.22,3.22,0,0,0-.15-.75c-.17-.57-.39-1.13-.64-1.78a7.55,7.55,0,0,1-.54-2.28,7.69,7.69,0,0,1,.07-1.19,8.85,8.85,0,0,0,.11-.9,25.33,25.33,0,0,0-.05-3.79c0-.31-.06-.63-.11-.94a3,3,0,0,0-.18-.77,10.21,10.21,0,0,0-1-1.54A12.62,12.62,0,0,1,13.82,34a1.5,1.5,0,0,1-.1-.3q0-.09-.06-.21L13.5,33l-.35-.92c-.48-1.22-1-2.43-1.49-3.64.66,1.14,1.31,2.28,1.95,3.43l.46.88.23.45.11.26.08.16A11.86,11.86,0,0,0,15.74,35a11,11,0,0,1,1.36,1.59,4.18,4.18,0,0,1,.43,1.08c.09.34.17.67.24,1a26.87,26.87,0,0,1,.57,4c0,.34,0,.72,0,1.07a3.84,3.84,0,0,0,0,.77A5.44,5.44,0,0,0,19,46c.29.54.64,1.16.93,1.82A6.39,6.39,0,0,1,20.3,49c.11.37.17.71.25,1.06a80,80,0,0,1,1,8Z"/><path class="cls-9" d="M16.55,37.14a7,7,0,0,1,2.22-4.34,13.39,13.39,0,0,1,2-1.4c.59-.39,1.19-.81,1.79-1.24,1.2-.86,2.4-1.75,3.69-2.52l2-1.14,1-.59c.29-.17.68-.45.83-.54l.5-.3.17.06a10.74,10.74,0,0,0,4.18.82,19.86,19.86,0,0,1,2.31.26l2.22.34c.74.12,1.48.24,2.22.39a15.25,15.25,0,0,1,2.27.62,3.58,3.58,0,0,1,.68.33c.19.11.35.22.52.33l.94.63,1.81,1.24c.58.41,1.19.8,1.73,1.13.11.06.27.16.33.18l.05,0s-.05,0-.07,0h-.08l.07,0,.39.11.18.07.09,0,.18.1a1.82,1.82,0,0,1,.32.18c.19.11.37.23.53.34,1.29.9,2.36,1.85,3.49,2.74.56.43,1.11.9,1.62,1.23.13.09.22.13.31.19s0,0,0,0,0,0,0,0a2.39,2.39,0,0,0,.78-.2c1.27-.49,2.59-1.22,3.93-1.87l.19.23a17.13,17.13,0,0,1-3.23,3.25,4.45,4.45,0,0,1-1.24.65,1.62,1.62,0,0,1-.52.08,2.63,2.63,0,0,1-.55-.06,6,6,0,0,1-.71-.23,16.42,16.42,0,0,1-2.14-1.07c-1.3-.77-2.55-1.6-3.7-2.34l-.41-.25-.16-.09-.07,0,0,0,.06,0,.12,0s0,0,0,0l-.09,0L49,34.51l-.33-.11-.19-.09a5.86,5.86,0,0,1-.64-.36A20.69,20.69,0,0,1,46,32.55c-.59-.47-1.15-.95-1.71-1.42l-.82-.69c-.29-.22-.51-.41-.67-.5-.51-.27-1.23-.58-1.88-.86s-1.32-.6-2-.89-1.35-.56-2-.79a9,9,0,0,0-2-.5c-1.56,0-3-.37-4.5-.54l.67-.23c-.37.47-.58.66-.86,1l-.79.85c-.53.57-1.08,1.11-1.65,1.64A22.58,22.58,0,0,1,24,32.35a23.09,23.09,0,0,1-2.09,1.12,20.79,20.79,0,0,0-2,.86,9.76,9.76,0,0,0-3.1,2.9Z"/><path class="cls-9" d="M29.53,26c-.06-.59-.14-1.2-.23-1.78,0-.26-.12-.63-.13-.72l-.41-.84L28,21a9.91,9.91,0,0,1-.69-1.73,9.86,9.86,0,0,0,1.11,1.46l1.21,1.39.61.69a6.45,6.45,0,0,1,.52,1c.27.59.51,1.16.74,1.75Z"/><path class="cls-9" d="M45.14,30l-2,1.94-1,1-.62.55a2.63,2.63,0,0,0-.44.34c-1.33,1.21-2.67,2.5-4,3.77.79-1.67,1.56-3.32,2.41-5a5,5,0,0,1,.42-.71c0-.07.16-.31.24-.49l.59-1.21,1.14-2.47Z"/><path class="cls-9" d="M23.72,58.3a22.1,22.1,0,0,0,1.72-2.08A10,10,0,0,0,26.73,54a3.27,3.27,0,0,0,.16-.57l.09-.7a10.9,10.9,0,0,0,.08-1.39,8.07,8.07,0,0,0-.52-2.75,8.44,8.44,0,0,1,1.27,2.65,12.16,12.16,0,0,1,.29,1.46l.1.73a4.82,4.82,0,0,1,0,.85,11.89,11.89,0,0,1-.77,3,23.19,23.19,0,0,1-1.28,2.79Z"/><path class="cls-9" d="M39.44,58.86A22.33,22.33,0,0,1,42,54.63c.13-.17.28-.34.43-.51l.4-.41.75-.78c.49-.51,1-1,1.4-1.55a13.67,13.67,0,0,0,2.15-3.53,39.77,39.77,0,0,0,1.56-4.07,44.12,44.12,0,0,1-.35,4.41,16.15,16.15,0,0,1-1.21,4.47c-.31.72-.65,1.41-1,2.08l-.52,1-.24.47-.17.39a18.31,18.31,0,0,0-1,3.74Z"/><path class="cls-9" d="M42.62,53.58A18.85,18.85,0,0,1,45,52.44a14.32,14.32,0,0,1,2.56-.77,9.56,9.56,0,0,1,1.27-.16A7.58,7.58,0,0,0,50,51.33a8.61,8.61,0,0,0,2.22-.85,8.74,8.74,0,0,1-1.79,1.75,11.32,11.32,0,0,1-1.09.71,6.43,6.43,0,0,0-1,.59A11.87,11.87,0,0,0,46.65,55a15.86,15.86,0,0,0-1.46,1.67Z"/><path class="cls-10" d="M57,37.54s2.07,2,2.07,3.16a11.87,11.87,0,0,0,.34,3.82c.4,1-1.28,5.22-1.21,6s1,3.35.34,4-1.28,3.22-1.28,3.22"/></g></g></svg>