<svg xmlns="http://www.w3.org/2000/svg" xmlns:xlink="http://www.w3.org/1999/xlink" viewBox="0 0 73.41 73.65"><defs><style>.cls-1,.cls-5{fill:#5c5a5f;}.cls-1,.cls-8{stroke:#000;stroke-width:5px;}.cls-1,.cls-10,.cls-3,.cls-4,.cls-8{stroke-miterlimit:10;}.cls-2{fill:#6c96ce;}.cls-10,.cls-3,.cls-4,.cls-8{fill:none;}.cls-3{stroke:#6c96ce;}.cls-3,.cls-4{stroke-width:9px;}.cls-4{stroke:#fff;}.cls-6{clip-path:url(#clip-path);}.cls-7{fill:#4a484c;}.cls-9{fill:#030202;}.cls-10{stroke:#030202;stroke-width:3px;}</style><clipPath id="clip-path"><path class="cls-1" d="M26.81,14.38s6.3-.14,8,.33,3.76,1.34,6.24,1.28,3.89-.34,5.16,1.2,2.35,7.24,2.35,7.24,4.15,3.22,5.16,3.36,4.76,3.82,5.9,5.09,4.29,2.48,4.22,5.76S61.8,46.49,62.4,49s-.8,2.62-.67,3.69,1.08,2.28-.26,3.55-2.75,1-4.63,1.21S50.61,59,49.6,58.89a21.85,21.85,0,0,0-5.16,0,39.45,39.45,0,0,1-7.58.74c-2.27-.14-5.63.13-7-.27s-6.83-.61-7.91-.2l-7.3-3.29s-1.61-2.55-.67-4.62-1.34-6.51-1.34-6.51l-2.69-4a19,19,0,0,1-.53-4.57c.07-2.21,1.67-6.5,1.81-8s-.47-1.41,1-2.48,2.55-3.29,4.63-4,4.36-5.09,4.56-5.63A5.79,5.79,0,0,1,26.81,14.38Z"/></clipPath></defs><g id="Layer_4" data-name="Layer 4"><path class="cls-2" d="M68.86,60.63a8.54,8.54,0,0,1-8.51,8.51H13a8.53,8.53,0,0,1-8.5-8.51V13.25A8.52,8.52,0,0,1,13,4.75H60.35a8.53,8.53,0,0,1,8.51,8.5Z"/><path class="cls-3" d="M68.86,60.63a8.54,8.54,0,0,1-8.51,8.51H13a8.53,8.53,0,0,1-8.5-8.51V13.25A8.52,8.52,0,0,1,13,4.75H60.35a8.53,8.53,0,0,1,8.51,8.5Z"/><path class="cls-2" d="M67.41,59.19a8.52,8.52,0,0,1-8.5,8.5H14.41a8.52,8.52,0,0,1-8.5-8.5V14.69a8.53,8.53,0,0,1,8.5-8.5h44.5a8.52,8.52,0,0,1,8.5,8.5Z"/><path class="cls-4" d="M67.41,59.19a8.52,8.52,0,0,1-8.5,8.5H14.41a8.52,8.52,0,0,1-8.5-8.5V14.69a8.53,8.53,0,0,1,8.5-8.5h44.5a8.52,8.52,0,0,1,8.5,8.5Z"/><g id="rock"><path class="cls-5" d="M26.81,14.38s6.3-.14,8,.33,3.76,1.34,6.24,1.28,3.89-.34,5.16,1.2,2.35,7.24,2.35,7.24,4.15,3.22,5.16,3.36,4.76,3.82,5.9,5.09,4.29,2.48,4.22,5.76S61.8,46.49,62.4,49s-.8,2.62-.67,3.69,1.08,2.28-.26,3.55-2.75,1-4.63,1.21S50.61,59,49.6,58.89a21.85,21.85,0,0,0-5.16,0,39.45,39.45,0,0,1-7.58.74c-2.27-.14-5.63.13-7-.27s-6.83-.61-7.91-.2l-7.3-3.29s-1.61-2.55-.67-4.62-1.34-6.51-1.34-6.51l-2.69-4a19,19,0,0,1-.53-4.57c.07-2.21,1.67-6.5,1.81-8s-.47-1.41,1-2.48,2.55-3.29,4.63-4,4.36-5.09,4.56-5.63A5.79,5.79,0,0,1,26.81,14.38Z"/><g class="cls-6"><path class="cls-7" d="M61.87,58.28l2.41-5.22.2-6.1,1.41-7.91-1.48-5.57L61,34.61l-2.86-6.42-5.56-2.68s-3.22-4.83-3.35-6.1-4-4.29-4-4.29l-6.77-.88s5.63,3.49,6.44,5.9A36.1,36.1,0,0,1,46,26.71l3.62,3.82s3.22,4.63,4.22,5.37,4.43,2.21,4.56,3.75.73,5.3.67,6.3-1.38,3.89-1.24,4.5.57,3.46.3,3.81-1.54,5.09-1.54,5.09Z"/><path class="cls-7" d="M53,32.28l-5.36-5.84-4.16-.06-6-1.75L30,25.21s11.47,3.18,11,3.92-4.36,7.81-4.36,7.81S42,29.8,43.5,30s6.3,4.18,7.91,5,6,2.79,6,3.22S53,32.28,53,32.28Z"/><path class="cls-7" d="M11.26,27.24s1.11,4.31,2.06,5.24a37.1,37.1,0,0,1,3,4.15s.68,5.63.63,6.4a17.09,17.09,0,0,0,1,4.36,46.87,46.87,0,0,1,1.2,7.48c-.06.8,0,4.07,0,4.07l-7.87-1.06L9.78,43.54,6.9,37.3l4.36-10.06"/><path class="cls-7" d="M26.14,48.3a4.92,4.92,0,0,1-.94,3.42A5.59,5.59,0,0,0,24,54.87S23.12,56,22.52,56s-.6.06-1.41-1.14-2.08-3.82-2-5.77-1.54-2.37-1.85-3.87-2.08,3.4-2.08,3.4l2.16,11,4.82,1,4.29-1.69-1.34-.66S28.55,53.46,26.14,48.3Z"/><path class="cls-7" d="M25.13,56.81s6,1,7.58.4,3.22.4,5.09.27a2,2,0,0,0,2.08-1.61s-.45,2,1.55-1,3.48-2.75,4.22-5.37,2.48-4.35,2.61-6c0,0-1.18,6.5-1.94,8.18A10.49,10.49,0,0,0,50,50.24a15.5,15.5,0,0,0,3-2.85S52,50.35,50.85,51,47.24,52.33,46,53.13s-3.1,1.64-3.46,3.43a22,22,0,0,1-1.1,3.53L28.82,61l-5.23-1.68Z"/><path class="cls-7" d="M24.06,56c-1.67-3.15-1.81-4.43-1.88-6.37A2.23,2.23,0,0,0,21.31,52c.41,1.48.54,3.36.81,4.63S24.06,56,24.06,56Z"/><path class="cls-7" d="M41.43,57.88s3.28-4.51,6-5.47S55,52.12,56.57,50s.67-3.28.67-3.28l.57-4.49s-.31-3.77-.91-4.57,2.69,1.68,2.69,1.68l.53,12.61-1.81,7.73L44.44,61.84l-4.56-3.22Z"/><path class="cls-7" d="M12.4,30.53s2.14,3.15,3.35,3.15c0,0,.7-1,4.56-2.27s6.7-4.5,7.44-5.23,1.67-1.61,1.67-1.61S27.61,21,26.88,19a36.32,36.32,0,0,1,2.75,4.78,7.83,7.83,0,0,0,.73,1.79l-4.52,3.36c-.28.2-3,2.13-3.58,2.48S19,33,18.15,34a29.47,29.47,0,0,0-1.86,2.62l-2.22-1.2Z"/></g><path class="cls-8" d="M26.81,14.38s6.3-.14,8,.33,3.76,1.34,6.24,1.28,3.89-.34,5.16,1.2,2.35,7.24,2.35,7.24,4.15,3.22,5.16,3.36,4.76,3.82,5.9,5.09,4.29,2.48,4.22,5.76S61.8,46.49,62.4,49s-.8,2.62-.67,3.69,1.08,2.28-.26,3.55-2.75,1-4.63,1.21S50.61,59,49.6,58.89a21.85,21.85,0,0,0-5.16,0,39.45,39.45,0,0,1-7.58.74c-2.27-.14-5.63.13-7-.27s-6.83-.61-7.91-.2l-7.3-3.29s-1.61-2.55-.67-4.62-1.34-6.51-1.34-6.51l-2.69-4a19,19,0,0,1-.53-4.57c.07-2.21,1.67-6.5,1.81-8s-.47-1.41,1-2.48,2.55-3.29,4.63-4,4.36-5.09,4.56-5.63A5.79,5.79,0,0,1,26.81,14.38Z"/><path class="cls-9" d="M17.13,57.9a72.79,72.79,0,0,0,0-7.67c0-.3,0-.62-.08-.88a4.74,4.74,0,0,0-.15-.75c-.17-.57-.4-1.13-.65-1.78a7.26,7.26,0,0,1-.53-2.28,6.62,6.62,0,0,1,.07-1.19c0-.31.08-.58.11-.9a24.08,24.08,0,0,0-.06-3.79c0-.32-.06-.63-.1-.94A3,3,0,0,0,15.6,37a11,11,0,0,0-1-1.54,11.76,11.76,0,0,1-1.16-1.7,2.85,2.85,0,0,1-.11-.3,1,1,0,0,0-.06-.21l-.15-.45-.35-.92c-.48-1.22-1-2.43-1.49-3.64.66,1.13,1.31,2.28,1.94,3.43l.47.88.22.45a1.56,1.56,0,0,1,.11.26c0,.09.05.09.08.15a13,13,0,0,0,1.25,1.4,11,11,0,0,1,1.36,1.59,3.57,3.57,0,0,1,.43,1.08c.1.34.17.67.25,1a25.65,25.65,0,0,1,.56,4c0,.34,0,.72,0,1.07a4.72,4.72,0,0,0,.06.77,4.86,4.86,0,0,0,.58,1.48c.28.54.63,1.16.93,1.82a7.29,7.29,0,0,1,.39,1.14c.11.37.17.71.25,1.06a77.12,77.12,0,0,1,1,8Z"/><path class="cls-9" d="M16.14,36.9a7.07,7.07,0,0,1,2.23-4.34,13.35,13.35,0,0,1,2-1.4c.6-.39,1.19-.81,1.79-1.24,1.2-.86,2.4-1.75,3.69-2.52l2-1.15,1-.58c.3-.17.68-.46.84-.55l.49-.29.17.06a11.2,11.2,0,0,0,4.19.82,19.86,19.86,0,0,1,2.31.26l2.22.34q1.11.17,2.22.39a16.46,16.46,0,0,1,2.27.61,5.39,5.39,0,0,1,.68.34l.51.33,1,.63,1.8,1.24c.59.41,1.2.8,1.73,1.13a3.6,3.6,0,0,0,.33.17l0,0-.07,0h-.08l.08,0a2.38,2.38,0,0,1,.38.11l.19.07.09,0,.18.1a1.82,1.82,0,0,1,.32.18,5.87,5.87,0,0,1,.52.34c1.29.9,2.37,1.85,3.5,2.74.56.43,1.11.9,1.61,1.23l.32.19c.07,0,0,0,0,0s0,0,0,0a2.38,2.38,0,0,0,.79-.2c1.27-.49,2.59-1.22,3.93-1.87l.19.23a17.43,17.43,0,0,1-3.23,3.25A4.6,4.6,0,0,1,57,38.3a1.62,1.62,0,0,1-.52.08,2.74,2.74,0,0,1-.56-.06,5.75,5.75,0,0,1-.7-.23A15.81,15.81,0,0,1,53.07,37c-1.3-.77-2.56-1.6-3.71-2.34l-.4-.25-.17-.09-.06,0,0,0,.06,0,.12,0h0l-.09,0-.19,0-.33-.11-.2-.09c-.28-.14-.42-.24-.63-.36a23,23,0,0,1-1.88-1.4c-.58-.47-1.15-1-1.7-1.42l-.82-.69a6.58,6.58,0,0,0-.67-.5c-.52-.27-1.24-.58-1.88-.87l-2-.88c-.67-.28-1.35-.56-2-.79a9.81,9.81,0,0,0-2-.51c-1.56,0-3-.36-4.5-.53l.66-.23c-.36.47-.57.65-.85,1l-.8.86c-.53.57-1.08,1.11-1.64,1.64a23.46,23.46,0,0,1-3.73,2.75,22,22,0,0,1-2.1,1.12c-.83.38-1.36.51-1.95.86a9.56,9.56,0,0,0-3.1,2.9Z"/><path class="cls-9" d="M29.12,25.74c-.06-.59-.13-1.2-.22-1.78,0-.26-.13-.63-.13-.72l-.41-.84-.8-1.67A10.71,10.71,0,0,1,26.88,19,9.69,9.69,0,0,0,28,20.46l1.2,1.39.61.69a5.46,5.46,0,0,1,.53,1c.27.59.5,1.16.74,1.75Z"/><path class="cls-9" d="M44.74,29.74l-2,1.94-1,1-.62.55a2.27,2.27,0,0,0-.44.34c-1.34,1.2-2.67,2.5-4,3.76.79-1.66,1.55-3.31,2.41-5a4.16,4.16,0,0,1,.42-.71c0-.07.15-.31.24-.49l.58-1.21,1.15-2.47Z"/><path class="cls-9" d="M23.32,58.06A20.58,20.58,0,0,0,25,56a9.88,9.88,0,0,0,1.3-2.28c.07-.19.11-.37.16-.56l.08-.7a13.14,13.14,0,0,0,.09-1.39,8.07,8.07,0,0,0-.52-2.75A8.32,8.32,0,0,1,27.4,51a14.53,14.53,0,0,1,.3,1.46l.1.73a4.82,4.82,0,0,1,0,.85A11.51,11.51,0,0,1,27,57a23.11,23.11,0,0,1-1.27,2.79Z"/><path class="cls-9" d="M39,58.62a21.82,21.82,0,0,1,2.53-4.23c.13-.17.28-.34.43-.51l.39-.41.76-.78c.49-.52,1-1,1.4-1.55a14,14,0,0,0,2.15-3.53,42.24,42.24,0,0,0,1.56-4.07A44.16,44.16,0,0,1,47.9,48a15.79,15.79,0,0,1-1.2,4.47c-.31.72-.66,1.41-1,2.08l-.52,1-.24.47-.16.39a18.14,18.14,0,0,0-1,3.74Z"/><path class="cls-9" d="M42.21,53.34a19.62,19.62,0,0,1,2.43-1.14,15.21,15.21,0,0,1,2.56-.78,9.46,9.46,0,0,1,1.26-.15,8.58,8.58,0,0,0,1.13-.18,8.34,8.34,0,0,0,2.22-.85A8.5,8.5,0,0,1,50,52a9.29,9.29,0,0,1-1.09.71,7.51,7.51,0,0,0-1,.59,11.87,11.87,0,0,0-1.68,1.44,17,17,0,0,0-1.45,1.67Z"/><path class="cls-10" d="M56.57,37.3s2.08,2,2.08,3.15A11.63,11.63,0,0,0,59,44.28c.4,1-1.28,5.22-1.21,6s1,3.35.33,4-1.27,3.22-1.27,3.22"/></g></g></svg>