<svg xmlns="http://www.w3.org/2000/svg" xmlns:xlink="http://www.w3.org/1999/xlink" viewBox="0 0 77.65 78.26"><defs><style>.cls-1,.cls-5{fill:#5c5a5f;}.cls-1,.cls-8{stroke:#000;stroke-width:5px;}.cls-1,.cls-10,.cls-3,.cls-4,.cls-8{stroke-miterlimit:10;}.cls-2{fill:#cd2028;}.cls-10,.cls-3,.cls-4,.cls-8{fill:none;}.cls-3{stroke:#cd2028;}.cls-3,.cls-4{stroke-width:9px;}.cls-4{stroke:#fff;}.cls-6{clip-path:url(#clip-path);}.cls-7{fill:#4a484c;}.cls-9{fill:#030202;}.cls-10{stroke:#030202;stroke-width:3px;}</style><clipPath id="clip-path"><path class="cls-1" d="M29.1,16.56s6.3-.13,8,.34,3.75,1.34,6.23,1.27,3.89-.33,5.16,1.21,2.35,7.24,2.35,7.24S55,29.84,56,30s4.76,3.82,5.9,5.1,4.29,2.48,4.22,5.76-2.07,7.84-1.47,10.39-.81,2.61-.67,3.69,1.07,2.28-.27,3.55-2.75,1-4.62,1.21-6.24,1.47-7.24,1.4a22,22,0,0,0-5.17,0,38.58,38.58,0,0,1-7.57.73c-2.28-.13-5.63.14-7-.27s-6.84-.6-7.91-.2L17,58.06s-1.61-2.55-.67-4.63S15,46.93,15,46.93l-2.68-4a19.4,19.4,0,0,1-.54-4.57c.07-2.21,1.68-6.5,1.81-8s-.47-1.4,1-2.48,2.55-3.28,4.62-3.95,4.36-5.1,4.56-5.63A5.78,5.78,0,0,1,29.1,16.56Z"/></clipPath></defs><g id="Layer_4" data-name="Layer 4"><path class="cls-2" d="M71.14,62.82a8.52,8.52,0,0,1-8.5,8.5H15.26a8.53,8.53,0,0,1-8.51-8.5V15.44a8.54,8.54,0,0,1,8.51-8.51H62.64a8.53,8.53,0,0,1,8.5,8.51Z"/><path class="cls-3" d="M71.14,62.82a8.52,8.52,0,0,1-8.5,8.5H15.26a8.53,8.53,0,0,1-8.51-8.5V15.44a8.54,8.54,0,0,1,8.51-8.51H62.64a8.53,8.53,0,0,1,8.5,8.51Z"/><path class="cls-2" d="M69.7,61.38a8.53,8.53,0,0,1-8.5,8.5H16.7a8.53,8.53,0,0,1-8.51-8.5V16.88A8.54,8.54,0,0,1,16.7,8.37H61.2a8.53,8.53,0,0,1,8.5,8.51Z"/><path class="cls-4" d="M69.7,61.38a8.53,8.53,0,0,1-8.5,8.5H16.7a8.53,8.53,0,0,1-8.51-8.5V16.88A8.54,8.54,0,0,1,16.7,8.37H61.2a8.53,8.53,0,0,1,8.5,8.51Z"/><g id="rock"><path class="cls-5" d="M29.1,16.56s6.3-.13,8,.34,3.75,1.34,6.23,1.27,3.89-.33,5.16,1.21,2.35,7.24,2.35,7.24S55,29.84,56,30s4.76,3.82,5.9,5.1,4.29,2.48,4.22,5.76-2.07,7.84-1.47,10.39-.81,2.61-.67,3.69,1.07,2.28-.27,3.55-2.75,1-4.62,1.21-6.24,1.47-7.24,1.4a22,22,0,0,0-5.17,0,38.58,38.58,0,0,1-7.57.73c-2.28-.13-5.63.14-7-.27s-6.84-.6-7.91-.2L17,58.06s-1.61-2.55-.67-4.63S15,46.93,15,46.93l-2.68-4a19.4,19.4,0,0,1-.54-4.57c.07-2.21,1.68-6.5,1.81-8s-.47-1.4,1-2.48,2.55-3.28,4.62-3.95,4.36-5.1,4.56-5.63A5.78,5.78,0,0,1,29.1,16.56Z"/><g class="cls-6"><path class="cls-7" d="M64.15,60.47l2.42-5.23.2-6.1,1.41-7.91L66.7,35.67l-3.45,1.12L60.4,30.37l-5.56-2.68s-3.22-4.82-3.36-6.1-4-4.29-4-4.29l-6.77-.88s5.64,3.5,6.44,5.91a36.34,36.34,0,0,1,1.14,6.57l3.62,3.82s3.21,4.63,4.22,5.36,4.42,2.21,4.56,3.76.73,5.29.66,6.3S60,52,60.1,52.64s.56,3.45.3,3.81-1.54,5.09-1.54,5.09Z"/><path class="cls-7" d="M55.3,34.46l-5.36-5.83-4.15-.07-6-1.74-7.52.57s11.48,3.18,11,3.92S39,39.13,39,39.13s5.29-7.15,6.84-7,6.3,4.18,7.91,5,5.94,2.78,6,3.21S55.3,34.46,55.3,34.46Z"/><path class="cls-7" d="M13.54,29.42s1.12,4.32,2.07,5.25a35.78,35.78,0,0,1,3,4.15s.69,5.62.63,6.4a18.19,18.19,0,0,0,1,4.36,46.79,46.79,0,0,1,1.21,7.47c-.06.81,0,4.07,0,4.07l-7.88-1.06L12.07,45.72,9.19,39.49l4.35-10.07"/><path class="cls-7" d="M28.42,50.48a4.94,4.94,0,0,1-.93,3.42,5.59,5.59,0,0,0-1.21,3.15s-.87,1.14-1.47,1.14-.61.07-1.41-1.14-2.08-3.82-2-5.76-1.54-2.37-1.85-3.87-2.09,3.4-2.09,3.4l2.16,11,4.83,1,4.29-1.7-1.34-.65S30.84,55.64,28.42,50.48Z"/><path class="cls-7" d="M27.42,59s6,1,7.57.4,3.22.4,5.1.27a2.05,2.05,0,0,0,2.08-1.61s-.46,2,1.55-1,3.47-2.75,4.21-5.36,2.48-4.36,2.62-6c0,0-1.19,6.51-1.95,8.18a10.45,10.45,0,0,0,3.69-1.47,15.62,15.62,0,0,0,3-2.85s-1,3-2.17,3.57-3.61,1.37-4.86,2.17S45.18,57,44.81,58.75a21.39,21.39,0,0,1-1.09,3.53l-12.61.94-5.23-1.68Z"/><path class="cls-7" d="M26.35,58.19c-1.68-3.15-1.81-4.42-1.88-6.37a2.25,2.25,0,0,0-.87,2.35c.4,1.47.53,3.35.8,4.63S26.35,58.19,26.35,58.19Z"/><path class="cls-7" d="M43.72,60.06s3.28-4.51,6-5.47,7.54-.29,9.15-2.43.67-3.29.67-3.29l.57-4.49s-.31-3.76-.91-4.56,2.68,1.68,2.68,1.68l.54,12.6L60.6,61.83,46.72,64l-4.55-3.21Z"/><path class="cls-7" d="M14.68,32.72s2.15,3.15,3.35,3.15c0,0,.71-1,4.56-2.28S29.3,29.1,30,28.36s1.68-1.61,1.68-1.61-1.81-3.62-2.55-5.56A35.66,35.66,0,0,1,31.91,26a8.38,8.38,0,0,0,.74,1.79l-4.53,3.35c-.28.21-3,2.14-3.58,2.48s-3.26,1.61-4.1,2.61a30.54,30.54,0,0,0-1.87,2.62l-2.21-1.21Z"/></g><path class="cls-8" d="M29.1,16.56s6.3-.13,8,.34,3.75,1.34,6.23,1.27,3.89-.33,5.16,1.21,2.35,7.24,2.35,7.24S55,29.84,56,30s4.76,3.82,5.9,5.1,4.29,2.48,4.22,5.76-2.07,7.84-1.47,10.39-.81,2.61-.67,3.69,1.07,2.28-.27,3.55-2.75,1-4.62,1.21-6.24,1.47-7.24,1.4a22,22,0,0,0-5.17,0,38.58,38.58,0,0,1-7.57.73c-2.28-.13-5.63.14-7-.27s-6.84-.6-7.91-.2L17,58.06s-1.61-2.55-.67-4.63S15,46.93,15,46.93l-2.68-4a19.4,19.4,0,0,1-.54-4.57c.07-2.21,1.68-6.5,1.81-8s-.47-1.4,1-2.48,2.55-3.28,4.62-3.95,4.36-5.1,4.56-5.63A5.78,5.78,0,0,1,29.1,16.56Z"/><path class="cls-9" d="M19.42,60.09a75.59,75.59,0,0,0,0-7.67c0-.3,0-.62-.09-.88a3.68,3.68,0,0,0-.14-.75c-.17-.57-.4-1.13-.65-1.79a7.2,7.2,0,0,1-.53-2.28,6.53,6.53,0,0,1,.06-1.18c.05-.31.09-.59.11-.9a24,24,0,0,0,0-3.79c0-.32-.06-.64-.11-.94a2.76,2.76,0,0,0-.17-.78,10.53,10.53,0,0,0-1-1.53,12.14,12.14,0,0,1-1.16-1.71,1.68,1.68,0,0,1-.1-.29,1.66,1.66,0,0,0-.06-.21l-.16-.46L15,34c-.48-1.22-1-2.44-1.5-3.65.66,1.14,1.32,2.28,2,3.44l.47.87.22.46c0,.07.07.16.11.25a.79.79,0,0,0,.08.16A11.91,11.91,0,0,0,17.62,37,10.85,10.85,0,0,1,19,38.53a4.37,4.37,0,0,1,.43,1.09c.09.34.17.67.24,1a26.74,26.74,0,0,1,.57,4c0,.35,0,.73,0,1.07a4.93,4.93,0,0,0,.06.78A5.09,5.09,0,0,0,20.86,48c.29.54.64,1.15.93,1.81a7,7,0,0,1,.4,1.14c.1.38.16.71.24,1.06a80.53,80.53,0,0,1,1,8Z"/><path class="cls-9" d="M18.43,39.08a7,7,0,0,1,2.23-4.33,12.65,12.65,0,0,1,2-1.4c.59-.39,1.19-.82,1.79-1.24,1.2-.86,2.4-1.75,3.69-2.52l1.95-1.15,1-.58c.29-.17.68-.46.83-.55l.5-.3.17.07a10.94,10.94,0,0,0,4.18.81,19.55,19.55,0,0,1,2.31.27l2.22.33q1.11.18,2.22.39a17.69,17.69,0,0,1,2.27.62,4.31,4.31,0,0,1,.68.34l.52.32.94.64L49.69,32c.59.41,1.2.8,1.73,1.13a2.65,2.65,0,0,0,.33.17l0,0-.07,0h0l.38.11.19.07.09,0,.18.09.32.18.52.35c1.29.89,2.37,1.84,3.49,2.74.56.43,1.11.9,1.62,1.22l.31.2c.07,0,0,0,0,0s0,0,0,0a2.43,2.43,0,0,0,.79-.2c1.27-.48,2.59-1.21,3.92-1.87l.2.23a16.94,16.94,0,0,1-3.24,3.26,4.65,4.65,0,0,1-1.23.65,2.1,2.1,0,0,1-.52.08,3.69,3.69,0,0,1-.56-.06,5.23,5.23,0,0,1-.7-.23,17.07,17.07,0,0,1-2.14-1.08c-1.3-.76-2.56-1.59-3.71-2.33l-.41-.25a1,1,0,0,0-.16-.09l-.06,0h0l0,0a.27.27,0,0,0,.12,0s0,0,0,0l-.09,0-.18,0a2.74,2.74,0,0,1-.34-.11l-.19-.09a5.78,5.78,0,0,1-.64-.37,20.69,20.69,0,0,1-1.87-1.4c-.59-.47-1.15-1-1.71-1.42l-.82-.68a7,7,0,0,0-.67-.51c-.51-.26-1.23-.58-1.87-.86s-1.33-.6-2-.88-1.35-.56-2-.79a9.15,9.15,0,0,0-2-.51c-1.55-.05-3-.36-4.5-.53l.67-.24c-.36.47-.57.66-.85,1l-.8.86c-.53.56-1.08,1.11-1.65,1.63a22,22,0,0,1-3.73,2.75,19.85,19.85,0,0,1-2.09,1.13,19.44,19.44,0,0,0-2,.86,9.72,9.72,0,0,0-3.1,2.89Z"/><path class="cls-9" d="M31.41,27.93c-.06-.59-.14-1.2-.23-1.78,0-.27-.12-.64-.13-.73l-.4-.83-.8-1.68a11.23,11.23,0,0,1-.69-1.72,11,11,0,0,0,1.11,1.46L31.48,24l.61.68a6.66,6.66,0,0,1,.53,1c.26.59.5,1.16.73,1.76Z"/><path class="cls-9" d="M47,31.92l-2,1.94-1,1-.62.56a2.63,2.63,0,0,0-.44.34c-1.33,1.2-2.66,2.49-4,3.76.78-1.67,1.55-3.32,2.4-5a7.11,7.11,0,0,1,.42-.7c0-.08.16-.32.24-.49l.59-1.21,1.15-2.47Z"/><path class="cls-9" d="M25.6,60.24a20.53,20.53,0,0,0,1.72-2.07,10,10,0,0,0,1.29-2.28,3,3,0,0,0,.16-.57l.09-.7A12.79,12.79,0,0,0,29,53.24a7.9,7.9,0,0,0-.53-2.76,8.23,8.23,0,0,1,1.27,2.65A12.72,12.72,0,0,1,30,54.6l.11.73a6,6,0,0,1,0,.85,11.5,11.5,0,0,1-.77,3A22.37,22.37,0,0,1,28,62Z"/><path class="cls-9" d="M41.33,60.8a21.75,21.75,0,0,1,2.53-4.22c.13-.17.28-.35.42-.51l.4-.42.75-.78c.5-.51,1-1,1.4-1.54A13.7,13.7,0,0,0,49,49.8q.87-2,1.56-4.08a44.11,44.11,0,0,1-.36,4.42A15.81,15.81,0,0,1,49,54.61c-.31.71-.65,1.41-1,2.08l-.52,1-.24.47-.17.4a18.2,18.2,0,0,0-.94,3.73Z"/><path class="cls-9" d="M44.5,55.52a20.3,20.3,0,0,1,2.42-1.14,15.47,15.47,0,0,1,2.56-.77,9.79,9.79,0,0,1,1.27-.15,9.19,9.19,0,0,0,1.13-.19,8.23,8.23,0,0,0,2.22-.84,9,9,0,0,1-1.79,1.75,10.13,10.13,0,0,1-1.09.7,8.5,8.5,0,0,0-1,.59,12.65,12.65,0,0,0-1.68,1.45,15.78,15.78,0,0,0-1.46,1.66Z"/><path class="cls-10" d="M58.86,39.49s2.08,1.94,2.08,3.15a11.83,11.83,0,0,0,.33,3.82c.4,1-1.27,5.23-1.21,6s1,3.35.34,4-1.27,3.22-1.27,3.22"/></g></g></svg>