<svg xmlns="http://www.w3.org/2000/svg" xmlns:xlink="http://www.w3.org/1999/xlink" viewBox="0 0 77.65 78.26"><defs><style>.cls-1,.cls-5{fill:#5c5a5f;}.cls-1,.cls-8{stroke:#000;stroke-width:5px;}.cls-1,.cls-10,.cls-3,.cls-4,.cls-8{stroke-miterlimit:10;}.cls-2{fill:#6c96ce;}.cls-10,.cls-3,.cls-4,.cls-8{fill:none;}.cls-3{stroke:#6c96ce;}.cls-3,.cls-4{stroke-width:9px;}.cls-4{stroke:#fff;}.cls-6{clip-path:url(#clip-path);}.cls-7{fill:#4a484c;}.cls-9{fill:#030202;}.cls-10{stroke:#030202;stroke-width:3px;}</style><clipPath id="clip-path"><path class="cls-1" d="M28.18,16.56s6.3-.13,8,.34,3.76,1.34,6.24,1.27,3.89-.33,5.16,1.21S50,26.62,50,26.62s4.15,3.22,5.16,3.35,4.76,3.82,5.9,5.1,4.29,2.48,4.22,5.76-2.08,7.84-1.47,10.39-.81,2.61-.68,3.69,1.08,2.28-.26,3.55-2.75,1-4.63,1.21S52,61.14,51,61.07a22,22,0,0,0-5.16,0,38.66,38.66,0,0,1-7.57.73c-2.28-.13-5.63.14-7-.27s-6.83-.6-7.91-.2l-7.3-3.28s-1.61-2.55-.67-4.63S14,46.93,14,46.93l-2.68-4a18.82,18.82,0,0,1-.54-4.57c.07-2.21,1.68-6.5,1.81-8s-.47-1.4,1-2.48,2.54-3.28,4.62-3.95,4.36-5.1,4.56-5.63A5.77,5.77,0,0,1,28.18,16.56Z"/></clipPath></defs><g id="Layer_4" data-name="Layer 4"><path class="cls-2" d="M70.23,62.82a8.53,8.53,0,0,1-8.51,8.5H14.34a8.52,8.52,0,0,1-8.5-8.5V15.44a8.53,8.53,0,0,1,8.5-8.51H61.72a8.54,8.54,0,0,1,8.51,8.51Z"/><path class="cls-3" d="M70.23,62.82a8.53,8.53,0,0,1-8.51,8.5H14.34a8.52,8.52,0,0,1-8.5-8.5V15.44a8.53,8.53,0,0,1,8.5-8.51H61.72a8.54,8.54,0,0,1,8.51,8.51Z"/><path class="cls-2" d="M68.79,61.38a8.53,8.53,0,0,1-8.51,8.5H15.78a8.53,8.53,0,0,1-8.5-8.5V16.88a8.53,8.53,0,0,1,8.5-8.51h44.5a8.54,8.54,0,0,1,8.51,8.51Z"/><path class="cls-4" d="M68.79,61.38a8.53,8.53,0,0,1-8.51,8.5H15.78a8.53,8.53,0,0,1-8.5-8.5V16.88a8.53,8.53,0,0,1,8.5-8.51h44.5a8.54,8.54,0,0,1,8.51,8.51Z"/><g id="rock"><path class="cls-5" d="M28.18,16.56s6.3-.13,8,.34,3.76,1.34,6.24,1.27,3.89-.33,5.16,1.21S50,26.62,50,26.62s4.15,3.22,5.16,3.35,4.76,3.82,5.9,5.1,4.29,2.48,4.22,5.76-2.08,7.84-1.47,10.39-.81,2.61-.68,3.69,1.08,2.28-.26,3.55-2.75,1-4.63,1.21S52,61.14,51,61.07a22,22,0,0,0-5.16,0,38.66,38.66,0,0,1-7.57.73c-2.28-.13-5.63.14-7-.27s-6.83-.6-7.91-.2l-7.3-3.28s-1.61-2.55-.67-4.63S14,46.93,14,46.93l-2.68-4a18.82,18.82,0,0,1-.54-4.57c.07-2.21,1.68-6.5,1.81-8s-.47-1.4,1-2.48,2.54-3.28,4.62-3.95,4.36-5.1,4.56-5.63A5.77,5.77,0,0,1,28.18,16.56Z"/><g class="cls-6"><path class="cls-7" d="M63.24,60.47l2.41-5.23.2-6.1,1.41-7.91-1.47-5.56-3.45,1.12-2.85-6.42-5.57-2.68s-3.22-4.82-3.35-6.1-4-4.29-4-4.29l-6.77-.88s5.64,3.5,6.44,5.91a36,36,0,0,1,1.13,6.57L51,32.72s3.22,4.63,4.23,5.36,4.42,2.21,4.55,3.76.73,5.29.67,6.3-1.37,3.89-1.24,4.5.57,3.45.31,3.81-1.55,5.09-1.55,5.09Z"/><path class="cls-7" d="M54.39,34.46,49,28.63l-4.16-.07-6-1.74-7.52.57s11.47,3.18,11,3.92S38,39.13,38,39.13s5.3-7.15,6.84-7,6.3,4.18,7.91,5,5.95,2.78,6,3.21S54.39,34.46,54.39,34.46Z"/><path class="cls-7" d="M12.63,29.42s1.11,4.32,2.06,5.25a35,35,0,0,1,3,4.15s.68,5.62.63,6.4a17.28,17.28,0,0,0,1,4.36,46.79,46.79,0,0,1,1.21,7.47c-.06.81,0,4.07,0,4.07l-7.88-1.06L11.15,45.72,8.27,39.49l4.36-10.07"/><path class="cls-7" d="M27.51,50.48a4.91,4.91,0,0,1-.94,3.42,5.62,5.62,0,0,0-1.2,3.15s-.88,1.14-1.48,1.14-.6.07-1.41-1.14-2.08-3.82-2-5.76S19,48.92,18.65,47.42s-2.08,3.4-2.08,3.4l2.16,11,4.83,1,4.29-1.7-1.34-.65S29.92,55.64,27.51,50.48Z"/><path class="cls-7" d="M26.51,59s6,1,7.57.4,3.22.4,5.09.27a2.05,2.05,0,0,0,2.08-1.61s-.45,2,1.55-1S46.28,54.3,47,51.69s2.48-4.36,2.61-6c0,0-1.18,6.51-1.94,8.18a10.36,10.36,0,0,0,3.68-1.47,15.5,15.5,0,0,0,3-2.85s-1,3-2.17,3.57-3.61,1.37-4.86,2.17S44.27,57,43.9,58.75a22,22,0,0,1-1.1,3.53l-12.61.94L25,61.54Z"/><path class="cls-7" d="M25.43,58.19c-1.67-3.15-1.81-4.42-1.87-6.37a2.25,2.25,0,0,0-.88,2.35c.41,1.47.54,3.35.81,4.63S25.43,58.19,25.43,58.19Z"/><path class="cls-7" d="M42.8,60.06s3.28-4.51,6-5.47,7.54-.29,9.15-2.43.67-3.29.67-3.29l.57-4.49s-.3-3.76-.9-4.56S61,41.5,61,41.5l.54,12.6-1.81,7.73L45.81,64l-4.56-3.21Z"/><path class="cls-7" d="M13.77,32.72s2.14,3.15,3.35,3.15c0,0,.7-1,4.56-2.28s6.7-4.49,7.44-5.23,1.68-1.61,1.68-1.61S29,23.13,28.25,21.19A35.66,35.66,0,0,1,31,26a8.09,8.09,0,0,0,.73,1.79l-4.52,3.35c-.28.21-3,2.14-3.58,2.48s-3.26,1.61-4.1,2.61a28.27,28.27,0,0,0-1.87,2.62l-2.22-1.21Z"/></g><path class="cls-8" d="M28.18,16.56s6.3-.13,8,.34,3.76,1.34,6.24,1.27,3.89-.33,5.16,1.21S50,26.62,50,26.62s4.15,3.22,5.16,3.35,4.76,3.82,5.9,5.1,4.29,2.48,4.22,5.76-2.08,7.84-1.47,10.39-.81,2.61-.68,3.69,1.08,2.28-.26,3.55-2.75,1-4.63,1.21S52,61.14,51,61.07a22,22,0,0,0-5.16,0,38.66,38.66,0,0,1-7.57.73c-2.28-.13-5.63.14-7-.27s-6.83-.6-7.91-.2l-7.3-3.28s-1.61-2.55-.67-4.63S14,46.93,14,46.93l-2.68-4a18.82,18.82,0,0,1-.54-4.57c.07-2.21,1.68-6.5,1.81-8s-.47-1.4,1-2.48,2.54-3.28,4.62-3.95,4.36-5.1,4.56-5.63A5.77,5.77,0,0,1,28.18,16.56Z"/><path class="cls-9" d="M18.51,60.09c.11-2.55.18-5.2,0-7.67,0-.3-.05-.62-.09-.88a3.69,3.69,0,0,0-.15-.75c-.17-.57-.39-1.13-.65-1.79a7.48,7.48,0,0,1-.53-2.28,6.51,6.51,0,0,1,.07-1.18c.05-.31.08-.59.11-.9a25.29,25.29,0,0,0,0-3.79c0-.32-.06-.64-.11-.94a3.11,3.11,0,0,0-.18-.78,10.42,10.42,0,0,0-1-1.53,12.14,12.14,0,0,1-1.16-1.71c0-.08-.09-.24-.11-.29a1.6,1.6,0,0,0,0-.21l-.16-.46L14.12,34c-.48-1.22-1-2.44-1.49-3.65.66,1.14,1.31,2.28,1.94,3.44l.47.87.23.46c0,.07.07.16.1.25a.76.76,0,0,0,.09.16A11.91,11.91,0,0,0,16.71,37a10.85,10.85,0,0,1,1.36,1.58,4,4,0,0,1,.42,1.09c.1.34.18.67.25,1a26.74,26.74,0,0,1,.57,4c0,.35,0,.73,0,1.07a4,4,0,0,0,.05.78A5.14,5.14,0,0,0,20,48c.29.54.64,1.15.93,1.81a7,7,0,0,1,.39,1.14c.11.38.17.71.25,1.06a80.53,80.53,0,0,1,1,8Z"/><path class="cls-9" d="M17.51,39.08a7.08,7.08,0,0,1,2.23-4.33,12.69,12.69,0,0,1,2-1.4c.59-.39,1.19-.82,1.79-1.24,1.2-.86,2.39-1.75,3.68-2.52l2-1.15,1-.58c.3-.17.69-.46.84-.55l.5-.3.16.07a11,11,0,0,0,4.19.81,19.8,19.8,0,0,1,2.31.27l2.22.33q1.11.18,2.22.39a18.14,18.14,0,0,1,2.27.62,4.79,4.79,0,0,1,.68.34l.51.32.95.64L48.78,32c.58.41,1.19.8,1.73,1.13a2.67,2.67,0,0,0,.32.17l.06,0-.07,0h0l.39.11.18.07.09,0,.18.09.32.18.52.35c1.29.89,2.37,1.84,3.5,2.74.56.43,1.11.9,1.62,1.22.13.1.22.14.31.2s0,0,0,0,0,0,0,0a2.38,2.38,0,0,0,.79-.2C60,37.74,61.3,37,62.64,36.35l.19.23a16.89,16.89,0,0,1-3.23,3.26,4.9,4.9,0,0,1-1.24.65,2,2,0,0,1-.52.08,3.69,3.69,0,0,1-.56-.06,6.4,6.4,0,0,1-.7-.23,17.07,17.07,0,0,1-2.14-1.08c-1.3-.76-2.56-1.59-3.71-2.33l-.4-.25a1.65,1.65,0,0,0-.16-.09l-.07,0h0l.06,0a.27.27,0,0,0,.12,0s0,0,0,0l-.09,0-.19,0-.33-.11-.2-.09a6.61,6.61,0,0,1-.63-.37,20.88,20.88,0,0,1-1.88-1.4c-.58-.47-1.14-1-1.7-1.42l-.82-.68a7,7,0,0,0-.67-.51c-.52-.26-1.23-.58-1.88-.86s-1.33-.6-2-.88-1.35-.56-2-.79a9.07,9.07,0,0,0-2-.51c-1.56-.05-3-.36-4.5-.53l.66-.24c-.36.47-.57.66-.85,1l-.79.86c-.54.56-1.08,1.11-1.65,1.63A22.44,22.44,0,0,1,25,34.29a20,20,0,0,1-2.1,1.13,19.17,19.17,0,0,0-2,.86,9.52,9.52,0,0,0-3.1,2.89Z"/><path class="cls-9" d="M30.49,27.93c-.06-.59-.13-1.2-.22-1.78,0-.27-.12-.64-.13-.73l-.41-.83-.79-1.68a9.51,9.51,0,0,1-.69-1.72,10.23,10.23,0,0,0,1.11,1.46L30.56,24l.62.68a6.45,6.45,0,0,1,.52,1c.27.59.5,1.16.74,1.76Z"/><path class="cls-9" d="M46.11,31.92l-2,1.94-1,1-.62.56a2.27,2.27,0,0,0-.44.34c-1.34,1.2-2.67,2.49-4,3.76.79-1.67,1.55-3.32,2.41-5a4.57,4.57,0,0,1,.42-.7c0-.08.16-.32.24-.49l.58-1.21,1.15-2.47Z"/><path class="cls-9" d="M24.69,60.24a22,22,0,0,0,1.72-2.07,10,10,0,0,0,1.29-2.28c.07-.19.11-.38.16-.57l.09-.7c0-.46.08-.92.08-1.38a8.12,8.12,0,0,0-.52-2.76,8.42,8.42,0,0,1,1.26,2.65,12.77,12.77,0,0,1,.3,1.47l.1.73a4.83,4.83,0,0,1,0,.85,11.89,11.89,0,0,1-.77,3A22.37,22.37,0,0,1,27.12,62Z"/><path class="cls-9" d="M40.41,60.8a22.26,22.26,0,0,1,2.53-4.22c.13-.17.28-.35.43-.51l.39-.42.76-.78c.49-.51,1-1,1.4-1.54a14,14,0,0,0,2.15-3.53,42.43,42.43,0,0,0,1.56-4.08c-.05,1.47-.16,2.94-.35,4.42a16.15,16.15,0,0,1-1.21,4.47c-.31.71-.66,1.41-1,2.08l-.51,1-.25.47-.16.4a18.21,18.21,0,0,0-1,3.73Z"/><path class="cls-9" d="M43.58,55.52A21.18,21.18,0,0,1,46,54.38a15.19,15.19,0,0,1,2.56-.77,9.41,9.41,0,0,1,1.27-.15A9.19,9.19,0,0,0,51,53.27a8,8,0,0,0,2.21-.84,9,9,0,0,1-1.78,1.75,10.27,10.27,0,0,1-1.1.7,9.15,9.15,0,0,0-1,.59,12,12,0,0,0-1.68,1.45,15.78,15.78,0,0,0-1.46,1.66Z"/><path class="cls-10" d="M57.94,39.49S60,41.43,60,42.64a11.55,11.55,0,0,0,.34,3.82c.4,1-1.28,5.23-1.21,6s1,3.35.34,4-1.28,3.22-1.28,3.22"/></g></g></svg>