<svg xmlns="http://www.w3.org/2000/svg" xmlns:xlink="http://www.w3.org/1999/xlink" viewBox="0 0 77.65 78.26"><defs><style>.cls-1,.cls-5{fill:#5c5a5f;}.cls-1,.cls-8{stroke:#000;stroke-width:5px;}.cls-1,.cls-10,.cls-3,.cls-4,.cls-8{stroke-miterlimit:10;}.cls-2{fill:#118442;}.cls-10,.cls-3,.cls-4,.cls-8{fill:none;}.cls-3{stroke:#118442;}.cls-3,.cls-4{stroke-width:9px;}.cls-4{stroke:#fff;}.cls-6{clip-path:url(#clip-path);}.cls-7{fill:#4a484c;}.cls-9{fill:#030202;}.cls-10{stroke:#030202;stroke-width:3px;}</style><clipPath id="clip-path"><path class="cls-1" d="M29.1,17.21s6.3-.14,8,.33,3.75,1.34,6.23,1.28,3.89-.34,5.16,1.2,2.35,7.24,2.35,7.24S55,30.48,56,30.61s4.76,3.83,5.9,5.1,4.29,2.48,4.22,5.76-2.07,7.85-1.47,10.39-.81,2.62-.67,3.69,1.07,2.28-.27,3.55-2.75,1-4.62,1.21-6.24,1.47-7.24,1.41a21.94,21.94,0,0,0-5.17,0,38.58,38.58,0,0,1-7.57.73c-2.28-.13-5.63.14-7-.26s-6.84-.61-7.91-.2L17,58.7s-1.61-2.55-.67-4.62S15,47.57,15,47.57l-2.68-4A19.3,19.3,0,0,1,11.73,39c.07-2.21,1.68-6.5,1.81-8s-.47-1.41,1-2.48,2.55-3.29,4.62-4,4.36-5.09,4.56-5.63A5.78,5.78,0,0,1,29.1,17.21Z"/></clipPath></defs><g id="Layer_4" data-name="Layer 4"><path class="cls-2" d="M71.14,63.46A8.53,8.53,0,0,1,62.64,72H15.26a8.54,8.54,0,0,1-8.51-8.51V16.08a8.53,8.53,0,0,1,8.51-8.5H62.64a8.52,8.52,0,0,1,8.5,8.5Z"/><path class="cls-3" d="M71.14,63.46A8.53,8.53,0,0,1,62.64,72H15.26a8.54,8.54,0,0,1-8.51-8.51V16.08a8.53,8.53,0,0,1,8.51-8.5H62.64a8.52,8.52,0,0,1,8.5,8.5Z"/><path class="cls-2" d="M69.7,62a8.52,8.52,0,0,1-8.5,8.5H16.7A8.53,8.53,0,0,1,8.19,62V17.52A8.53,8.53,0,0,1,16.7,9H61.2a8.52,8.52,0,0,1,8.5,8.5Z"/><path class="cls-4" d="M69.7,62a8.52,8.52,0,0,1-8.5,8.5H16.7A8.53,8.53,0,0,1,8.19,62V17.52A8.53,8.53,0,0,1,16.7,9H61.2a8.52,8.52,0,0,1,8.5,8.5Z"/><g id="rock"><path class="cls-5" d="M29.1,17.21s6.3-.14,8,.33,3.75,1.34,6.23,1.28,3.89-.34,5.16,1.2,2.35,7.24,2.35,7.24S55,30.48,56,30.61s4.76,3.83,5.9,5.1,4.29,2.48,4.22,5.76-2.07,7.85-1.47,10.39-.81,2.62-.67,3.69,1.07,2.28-.27,3.55-2.75,1-4.62,1.21-6.24,1.47-7.24,1.41a21.94,21.94,0,0,0-5.17,0,38.58,38.58,0,0,1-7.57.73c-2.28-.13-5.63.14-7-.26s-6.84-.61-7.91-.2L17,58.7s-1.61-2.55-.67-4.62S15,47.57,15,47.57l-2.68-4A19.3,19.3,0,0,1,11.73,39c.07-2.21,1.68-6.5,1.81-8s-.47-1.41,1-2.48,2.55-3.29,4.62-4,4.36-5.09,4.56-5.63A5.78,5.78,0,0,1,29.1,17.21Z"/><g class="cls-6"><path class="cls-7" d="M64.15,61.11l2.42-5.22.2-6.1,1.41-7.91L66.7,36.31l-3.45,1.12L60.4,31l-5.56-2.68s-3.22-4.83-3.36-6.1-4-4.29-4-4.29l-6.77-.88s5.64,3.49,6.44,5.9a36.48,36.48,0,0,1,1.14,6.57l3.62,3.82S55.1,38,56.11,38.73s4.42,2.21,4.56,3.75.73,5.29.66,6.3S60,52.67,60.1,53.28s.56,3.46.3,3.81-1.54,5.09-1.54,5.09Z"/><path class="cls-7" d="M55.3,35.11l-5.36-5.84-4.15-.06-6-1.75L32.3,28s11.48,3.18,11,3.92S39,39.77,39,39.77s5.29-7.14,6.84-6.94,6.3,4.17,7.91,5,5.94,2.79,6,3.22S55.3,35.11,55.3,35.11Z"/><path class="cls-7" d="M13.54,30.07s1.12,4.31,2.07,5.24a36.68,36.68,0,0,1,3,4.15s.69,5.63.63,6.4a18,18,0,0,0,1,4.36,46.91,46.91,0,0,1,1.21,7.48c-.06.8,0,4.07,0,4.07L13.54,60.7,12.07,46.37,9.19,40.13l4.35-10.06"/><path class="cls-7" d="M28.42,51.13a4.91,4.91,0,0,1-.93,3.41,5.63,5.63,0,0,0-1.21,3.16s-.87,1.14-1.47,1.14-.61.06-1.41-1.14-2.08-3.83-2-5.77-1.54-2.37-1.85-3.87-2.09,3.4-2.09,3.4l2.16,11,4.83,1,4.29-1.69-1.34-.66S30.84,56.29,28.42,51.13Z"/><path class="cls-7" d="M27.42,59.64s6,1,7.57.4,3.22.4,5.1.27a2,2,0,0,0,2.08-1.61s-.46,2,1.55-1,3.47-2.75,4.21-5.37,2.48-4.35,2.62-6c0,0-1.19,6.5-1.95,8.17a10.45,10.45,0,0,0,3.69-1.47,15.62,15.62,0,0,0,3-2.85s-1,3-2.17,3.57S49.52,55.16,48.27,56s-3.09,1.64-3.46,3.43a21.39,21.39,0,0,1-1.09,3.53l-12.61.94-5.23-1.68Z"/><path class="cls-7" d="M26.35,58.84c-1.68-3.16-1.81-4.43-1.88-6.37a2.23,2.23,0,0,0-.87,2.34c.4,1.48.53,3.35.8,4.63S26.35,58.84,26.35,58.84Z"/><path class="cls-7" d="M43.72,60.7s3.28-4.5,6-5.46,7.54-.29,9.15-2.44.67-3.28.67-3.28L60.1,45s-.31-3.77-.91-4.57,2.68,1.68,2.68,1.68l.54,12.61L60.6,62.48,46.72,64.67l-4.55-3.22Z"/><path class="cls-7" d="M14.68,33.36s2.15,3.15,3.35,3.15c0,0,.71-1,4.56-2.28S29.3,29.74,30,29s1.68-1.61,1.68-1.61-1.81-3.62-2.55-5.57a36.32,36.32,0,0,1,2.75,4.78,8.1,8.1,0,0,0,.74,1.79l-4.53,3.36c-.28.2-3,2.13-3.58,2.47s-3.26,1.62-4.1,2.61a30.54,30.54,0,0,0-1.87,2.62l-2.21-1.2Z"/></g><path class="cls-8" d="M29.1,17.21s6.3-.14,8,.33,3.75,1.34,6.23,1.28,3.89-.34,5.16,1.2,2.35,7.24,2.35,7.24S55,30.48,56,30.61s4.76,3.83,5.9,5.1,4.29,2.48,4.22,5.76-2.07,7.85-1.47,10.39-.81,2.62-.67,3.69,1.07,2.28-.27,3.55-2.75,1-4.62,1.21-6.24,1.47-7.24,1.41a21.94,21.94,0,0,0-5.17,0,38.58,38.58,0,0,1-7.57.73c-2.28-.13-5.63.14-7-.26s-6.84-.61-7.91-.2L17,58.7s-1.61-2.55-.67-4.62S15,47.57,15,47.57l-2.68-4A19.3,19.3,0,0,1,11.73,39c.07-2.21,1.68-6.5,1.81-8s-.47-1.41,1-2.48,2.55-3.29,4.62-4,4.36-5.09,4.56-5.63A5.78,5.78,0,0,1,29.1,17.21Z"/><path class="cls-9" d="M19.42,60.73a75.59,75.59,0,0,0,0-7.67c0-.3,0-.62-.09-.88a3.82,3.82,0,0,0-.14-.75c-.17-.57-.4-1.13-.65-1.78a7.26,7.26,0,0,1-.53-2.28,6.64,6.64,0,0,1,.06-1.19,8.85,8.85,0,0,0,.11-.9,24.06,24.06,0,0,0,0-3.79c0-.32-.06-.63-.11-.94a2.68,2.68,0,0,0-.17-.77,10.59,10.59,0,0,0-1-1.54,12.14,12.14,0,0,1-1.16-1.71,1.25,1.25,0,0,1-.1-.29c0-.07,0-.13-.06-.21l-.16-.45L15,34.66c-.48-1.22-1-2.43-1.5-3.64.66,1.13,1.32,2.27,2,3.43l.47.88.22.45a2.26,2.26,0,0,1,.11.26.68.68,0,0,0,.08.15,11.16,11.16,0,0,0,1.25,1.4A10.45,10.45,0,0,1,19,39.18a4.18,4.18,0,0,1,.43,1.08c.09.34.17.67.24,1a26.87,26.87,0,0,1,.57,4.05c0,.34,0,.72,0,1.06a4.75,4.75,0,0,0,.06.78,5.09,5.09,0,0,0,.57,1.48c.29.54.64,1.16.93,1.82a6.42,6.42,0,0,1,.4,1.14c.1.37.16.71.24,1.06a80,80,0,0,1,1,8Z"/><path class="cls-9" d="M18.43,39.73a7,7,0,0,1,2.23-4.34,13.35,13.35,0,0,1,2-1.4c.59-.39,1.19-.81,1.79-1.24,1.2-.86,2.4-1.75,3.69-2.52l1.95-1.15,1-.58c.29-.17.68-.46.83-.55l.5-.29.17.06a11.15,11.15,0,0,0,4.18.82A19.62,19.62,0,0,1,39,28.8l2.22.33c.74.12,1.48.25,2.22.4a16.09,16.09,0,0,1,2.27.61,4.31,4.31,0,0,1,.68.34c.19.11.36.22.52.33l.94.63,1.81,1.24c.59.41,1.2.8,1.73,1.13a2.65,2.65,0,0,0,.33.17l0,0-.07,0h-.08l.08,0a3.18,3.18,0,0,1,.38.11l.19.07.09,0,.18.1.32.18.52.34c1.29.9,2.37,1.85,3.49,2.74.56.43,1.11.9,1.62,1.22l.31.2c.07,0,0,0,0,0s0,0,0,0a2.73,2.73,0,0,0,.79-.2c1.27-.49,2.59-1.22,3.92-1.87l.2.23a17.19,17.19,0,0,1-3.24,3.25,4.38,4.38,0,0,1-1.23.65,1.72,1.72,0,0,1-.52.08,2.74,2.74,0,0,1-.56-.06,5.23,5.23,0,0,1-.7-.23,14.73,14.73,0,0,1-2.14-1.08c-1.3-.76-2.56-1.59-3.71-2.33l-.41-.25-.16-.09-.06,0,0,0,0,0,.12,0h0l-.09,0-.18,0a2.74,2.74,0,0,1-.34-.11l-.19-.09c-.29-.14-.43-.24-.64-.36a20.73,20.73,0,0,1-1.87-1.41c-.59-.46-1.15-1-1.71-1.41L45.33,33c-.29-.23-.51-.41-.67-.51-.51-.26-1.23-.57-1.87-.86s-1.33-.59-2-.88-1.35-.56-2-.79a9.15,9.15,0,0,0-2-.51c-1.55,0-3-.36-4.5-.53l.67-.23c-.36.47-.57.65-.85,1l-.8.86c-.53.57-1.08,1.11-1.65,1.64a22.58,22.58,0,0,1-3.73,2.75,21.82,21.82,0,0,1-2.09,1.12c-.83.38-1.37.51-2,.86a9.76,9.76,0,0,0-3.1,2.9Z"/><path class="cls-9" d="M31.41,28.57c-.06-.59-.14-1.2-.23-1.78,0-.27-.12-.63-.13-.72l-.4-.84-.8-1.67a11.77,11.77,0,0,1-.69-1.73,10.41,10.41,0,0,0,1.11,1.46l1.21,1.39.61.69a6.19,6.19,0,0,1,.53,1c.26.58.5,1.16.73,1.75Z"/><path class="cls-9" d="M47,32.57l-2,1.94-1,1-.62.56a2.63,2.63,0,0,0-.44.34c-1.33,1.2-2.66,2.49-4,3.76.78-1.66,1.55-3.31,2.4-5a6.12,6.12,0,0,1,.42-.71c0-.07.16-.31.24-.49l.59-1.21,1.15-2.47Z"/><path class="cls-9" d="M25.6,60.89a20.66,20.66,0,0,0,1.72-2.08,9.84,9.84,0,0,0,1.29-2.28,3.17,3.17,0,0,0,.16-.56l.09-.7A13.14,13.14,0,0,0,29,53.88a7.85,7.85,0,0,0-.53-2.75,8.13,8.13,0,0,1,1.27,2.65A12.16,12.16,0,0,1,30,55.24l.11.73a6,6,0,0,1,0,.85,11.5,11.5,0,0,1-.77,3A23.19,23.19,0,0,1,28,62.65Z"/><path class="cls-9" d="M41.33,61.45a21.82,21.82,0,0,1,2.53-4.23c.13-.17.28-.34.42-.51l.4-.42.75-.77c.5-.52,1-1,1.4-1.55A13.7,13.7,0,0,0,49,50.44c.58-1.31,1.1-2.68,1.56-4.07a44.16,44.16,0,0,1-.36,4.41A15.81,15.81,0,0,1,49,55.25c-.31.72-.65,1.41-1,2.08l-.52,1-.24.47-.17.4a18.13,18.13,0,0,0-.94,3.74Z"/><path class="cls-9" d="M44.5,56.17A18.85,18.85,0,0,1,46.92,55a14.6,14.6,0,0,1,2.56-.78,9.79,9.79,0,0,1,1.27-.15,9.14,9.14,0,0,0,1.13-.18,8.61,8.61,0,0,0,2.22-.85,8.74,8.74,0,0,1-1.79,1.75,10.2,10.2,0,0,1-1.09.71,6.43,6.43,0,0,0-1,.59,11.87,11.87,0,0,0-1.68,1.44,15.86,15.86,0,0,0-1.46,1.67Z"/><path class="cls-10" d="M58.86,40.13s2.08,1.95,2.08,3.15a11.83,11.83,0,0,0,.33,3.82c.4,1-1.27,5.23-1.21,6s1,3.35.34,4-1.27,3.22-1.27,3.22"/></g></g></svg>