<svg xmlns="http://www.w3.org/2000/svg" xmlns:xlink="http://www.w3.org/1999/xlink" viewBox="0 0 73.91 73.65"><defs><style>.cls-1,.cls-5{fill:#5c5a5f;}.cls-1,.cls-8{stroke:#000;stroke-width:5px;}.cls-1,.cls-10,.cls-3,.cls-4,.cls-8{stroke-miterlimit:10;}.cls-2{fill:#cd2028;}.cls-10,.cls-3,.cls-4,.cls-8{fill:none;}.cls-3{stroke:#cd2028;}.cls-3,.cls-4{stroke-width:9px;}.cls-4{stroke:#fff;}.cls-6{clip-path:url(#clip-path);}.cls-7{fill:#4a484c;}.cls-9{fill:#030202;}.cls-10{stroke:#030202;stroke-width:3px;}</style><clipPath id="clip-path"><path class="cls-1" d="M27.24,14.45s6.3-.14,8.05.33,3.75,1.34,6.23,1.28,3.89-.34,5.16,1.2S49,24.5,49,24.5s4.15,3.22,5.16,3.35S59,31.67,60.09,33s4.29,2.48,4.22,5.76-2.08,7.85-1.47,10.39-.81,2.62-.67,3.69,1.07,2.28-.27,3.55-2.75,1-4.63,1.21S51,59,50,59a21.84,21.84,0,0,0-5.16,0,38.58,38.58,0,0,1-7.57.73c-2.28-.13-5.63.14-7-.26s-6.84-.61-7.91-.21l-7.31-3.28s-1.61-2.55-.67-4.62-1.34-6.51-1.34-6.51l-2.68-4a18.82,18.82,0,0,1-.54-4.57c.07-2.21,1.68-6.5,1.81-8s-.47-1.41,1-2.48,2.54-3.29,4.62-4,4.36-5.09,4.56-5.63A5.77,5.77,0,0,1,27.24,14.45Z"/></clipPath></defs><g id="Layer_4" data-name="Layer 4"><path class="cls-2" d="M69.29,60.7a8.54,8.54,0,0,1-8.51,8.51H13.4A8.53,8.53,0,0,1,4.9,60.7V13.32a8.53,8.53,0,0,1,8.5-8.51H60.78a8.54,8.54,0,0,1,8.51,8.51Z"/><path class="cls-3" d="M69.29,60.7a8.54,8.54,0,0,1-8.51,8.51H13.4A8.53,8.53,0,0,1,4.9,60.7V13.32a8.53,8.53,0,0,1,8.5-8.51H60.78a8.54,8.54,0,0,1,8.51,8.51Z"/><path class="cls-2" d="M67.85,59.26a8.53,8.53,0,0,1-8.51,8.5H14.84a8.52,8.52,0,0,1-8.5-8.5V14.76a8.52,8.52,0,0,1,8.5-8.5h44.5a8.53,8.53,0,0,1,8.51,8.5Z"/><path class="cls-4" d="M67.85,59.26a8.53,8.53,0,0,1-8.51,8.5H14.84a8.52,8.52,0,0,1-8.5-8.5V14.76a8.52,8.52,0,0,1,8.5-8.5h44.5a8.53,8.53,0,0,1,8.51,8.5Z"/><g id="rock"><path class="cls-5" d="M27.24,14.45s6.3-.14,8.05.33,3.75,1.34,6.23,1.28,3.89-.34,5.16,1.2S49,24.5,49,24.5s4.15,3.22,5.16,3.35S59,31.67,60.09,33s4.29,2.48,4.22,5.76-2.08,7.85-1.47,10.39-.81,2.62-.67,3.69,1.07,2.28-.27,3.55-2.75,1-4.63,1.21S51,59,50,59a21.84,21.84,0,0,0-5.16,0,38.58,38.58,0,0,1-7.57.73c-2.28-.13-5.63.14-7-.26s-6.84-.61-7.91-.21l-7.31-3.28s-1.61-2.55-.67-4.62-1.34-6.51-1.34-6.51l-2.68-4a18.82,18.82,0,0,1-.54-4.57c.07-2.21,1.68-6.5,1.81-8s-.47-1.41,1-2.48,2.54-3.29,4.62-4,4.36-5.09,4.56-5.63A5.77,5.77,0,0,1,27.24,14.45Z"/><g class="cls-6"><path class="cls-7" d="M62.3,58.35l2.41-5.23.2-6.09,1.41-7.91-1.47-5.57L61.4,34.67l-2.85-6.41L53,25.57s-3.22-4.82-3.35-6.1-4-4.29-4-4.29l-6.77-.88s5.64,3.5,6.44,5.91a36.1,36.1,0,0,1,1.13,6.57L50,30.6s3.22,4.63,4.23,5.36,4.42,2.22,4.55,3.76.73,5.29.67,6.3-1.37,3.89-1.24,4.5.57,3.45.31,3.81S57,59.42,57,59.42Z"/><path class="cls-7" d="M53.45,32.34l-5.36-5.83-4.16-.06L38,24.7l-7.52.57s11.47,3.19,11,3.92S37.09,37,37.09,37s5.3-7.15,6.84-6.94,6.3,4.17,7.91,5,5.95,2.79,6,3.21S53.45,32.34,53.45,32.34Z"/><path class="cls-7" d="M11.69,27.31s1.11,4.31,2.06,5.24a35,35,0,0,1,3,4.15s.68,5.62.63,6.4a17.09,17.09,0,0,0,1,4.36,47,47,0,0,1,1.21,7.47c-.06.81,0,4.08,0,4.08l-7.88-1.07L10.22,43.61,7.33,37.37l4.36-10.06"/><path class="cls-7" d="M26.57,48.37a4.89,4.89,0,0,1-.94,3.41,5.64,5.64,0,0,0-1.2,3.15s-.88,1.14-1.48,1.14-.6.07-1.41-1.14-2.07-3.82-2-5.76S18,46.8,17.71,45.3s-2.08,3.4-2.08,3.4l2.16,11,4.83,1L26.91,59l-1.34-.66S29,53.53,26.57,48.37Z"/><path class="cls-7" d="M25.57,56.88s6,1,7.57.4,3.22.4,5.09.27a2,2,0,0,0,2.08-1.61s-.45,2,1.55-1,3.48-2.74,4.22-5.36,2.48-4.35,2.61-6c0,0-1.18,6.5-1.94,8.17a10.36,10.36,0,0,0,3.68-1.47,15.5,15.5,0,0,0,3-2.85s-1,3-2.17,3.57-3.61,1.37-4.86,2.17S43.33,54.84,43,56.63a22,22,0,0,1-1.1,3.53l-12.61.94L24,59.42Z"/><path class="cls-7" d="M24.49,56.07c-1.67-3.15-1.81-4.42-1.87-6.36a2.22,2.22,0,0,0-.87,2.34c.4,1.48.53,3.35.8,4.63S24.49,56.07,24.49,56.07Z"/><path class="cls-7" d="M41.86,57.94s3.28-4.5,6-5.46S55.4,52.19,57,50s.67-3.28.67-3.28l.57-4.49s-.3-3.77-.9-4.57S60,39.38,60,39.38L60.56,52l-1.81,7.73L44.87,61.91l-4.56-3.22Z"/><path class="cls-7" d="M12.83,30.6s2.14,3.15,3.35,3.15c0,0,.7-1,4.56-2.28s6.7-4.49,7.44-5.22,1.68-1.61,1.68-1.61S28.05,21,27.31,19.07a36.32,36.32,0,0,1,2.75,4.78,7.83,7.83,0,0,0,.73,1.79L26.27,29c-.28.2-3,2.13-3.58,2.47s-3.26,1.62-4.1,2.61a28.27,28.27,0,0,0-1.87,2.62l-2.21-1.2Z"/></g><path class="cls-8" d="M27.24,14.45s6.3-.14,8.05.33,3.75,1.34,6.23,1.28,3.89-.34,5.16,1.2S49,24.5,49,24.5s4.15,3.22,5.16,3.35S59,31.67,60.09,33s4.29,2.48,4.22,5.76-2.08,7.85-1.47,10.39-.81,2.62-.67,3.69,1.07,2.28-.27,3.55-2.75,1-4.63,1.21S51,59,50,59a21.84,21.84,0,0,0-5.16,0,38.58,38.58,0,0,1-7.57.73c-2.28-.13-5.63.14-7-.26s-6.84-.61-7.91-.21l-7.31-3.28s-1.61-2.55-.67-4.62-1.34-6.51-1.34-6.51l-2.68-4a18.82,18.82,0,0,1-.54-4.57c.07-2.21,1.68-6.5,1.81-8s-.47-1.41,1-2.48,2.54-3.29,4.62-4,4.36-5.09,4.56-5.63A5.77,5.77,0,0,1,27.24,14.45Z"/><path class="cls-9" d="M17.57,58c.11-2.55.18-5.2,0-7.67,0-.3-.05-.62-.09-.88a3.83,3.83,0,0,0-.15-.75c-.17-.57-.39-1.13-.64-1.79a7.13,7.13,0,0,1-.54-2.27,6.62,6.62,0,0,1,.07-1.19c0-.31.08-.59.11-.9a25.33,25.33,0,0,0-.05-3.79c0-.32-.06-.63-.11-.94A3,3,0,0,0,16,37a10.48,10.48,0,0,0-1-1.54,12.14,12.14,0,0,1-1.16-1.71,2.12,2.12,0,0,1-.11-.29,2.09,2.09,0,0,0-.05-.21l-.16-.45-.35-.92c-.48-1.22-1-2.43-1.49-3.64.66,1.13,1.31,2.27,2,3.43l.46.88.23.45c0,.07.07.16.1.25a.57.57,0,0,0,.09.16,11.16,11.16,0,0,0,1.25,1.4,10.85,10.85,0,0,1,1.36,1.58,4,4,0,0,1,.42,1.09c.1.34.18.67.25,1a26.87,26.87,0,0,1,.57,4c0,.34,0,.72,0,1.06a3.89,3.89,0,0,0,.05.78A5.14,5.14,0,0,0,19,45.87c.29.54.64,1.16.93,1.82a6.39,6.39,0,0,1,.39,1.14c.11.37.17.7.25,1.06a80,80,0,0,1,1,8Z"/><path class="cls-9" d="M16.57,37a7.08,7.08,0,0,1,2.23-4.33,13.39,13.39,0,0,1,2-1.4c.59-.39,1.19-.81,1.79-1.24,1.2-.86,2.39-1.75,3.69-2.52l1.95-1.15,1-.58c.29-.17.68-.46.83-.55l.5-.29.16.06a11,11,0,0,0,4.19.81,19.8,19.8,0,0,1,2.31.27l2.22.33q1.11.18,2.22.39a18.14,18.14,0,0,1,2.27.62,4.79,4.79,0,0,1,.68.34c.19.11.35.22.51.33l1,.63,1.81,1.24c.58.41,1.19.8,1.73,1.13a2.67,2.67,0,0,0,.32.17l.06,0-.07,0H49.8l.07,0a2.85,2.85,0,0,1,.39.11l.18.07.09,0,.18.1a1.82,1.82,0,0,1,.32.18c.19.11.37.23.53.34,1.28.89,2.36,1.85,3.49,2.74.56.43,1.11.9,1.62,1.22.13.1.22.14.31.2s0,0,0,0,0,0,0,0a2.46,2.46,0,0,0,.78-.21c1.27-.48,2.59-1.21,3.93-1.86l.19.23a17.13,17.13,0,0,1-3.23,3.25,4.73,4.73,0,0,1-1.24.65,1.62,1.62,0,0,1-.52.08,2.55,2.55,0,0,1-.55-.06,6,6,0,0,1-.71-.23,15.26,15.26,0,0,1-2.14-1.08c-1.3-.76-2.56-1.59-3.71-2.33l-.4-.25a1,1,0,0,0-.16-.09l-.07,0,0,0,.06,0,.12,0h0l-.09,0-.19,0-.33-.11-.2-.09c-.28-.14-.42-.24-.63-.36A22.45,22.45,0,0,1,46,32.37c-.58-.46-1.14-.95-1.7-1.42l-.82-.68c-.29-.23-.51-.41-.67-.51-.52-.26-1.23-.57-1.88-.86l-2-.88c-.67-.28-1.35-.56-2-.79a9.07,9.07,0,0,0-2-.51c-1.56,0-3-.36-4.5-.53L31,26c-.37.47-.58.65-.86,1l-.79.86c-.53.57-1.08,1.11-1.65,1.64A22.58,22.58,0,0,1,24,32.18a22,22,0,0,1-2.1,1.12c-.83.38-1.36.51-1.95.86a9.73,9.73,0,0,0-3.1,2.89Z"/><path class="cls-9" d="M29.55,25.81c-.06-.59-.13-1.2-.22-1.78,0-.27-.12-.63-.13-.73l-.41-.83L28,20.8a9.91,9.91,0,0,1-.69-1.73,10.23,10.23,0,0,0,1.11,1.46l1.2,1.39.62.69a6,6,0,0,1,.52,1c.27.58.51,1.16.74,1.75Z"/><path class="cls-9" d="M45.17,29.81l-2,1.94-1,1-.62.56a2.27,2.27,0,0,0-.44.34c-1.34,1.2-2.67,2.49-4,3.76.79-1.66,1.56-3.31,2.41-5a4.16,4.16,0,0,1,.42-.71c0-.07.16-.32.24-.49L40.74,30l1.15-2.47Z"/><path class="cls-9" d="M23.75,58.13a22.1,22.1,0,0,0,1.72-2.08,9.84,9.84,0,0,0,1.29-2.28,4,4,0,0,0,.16-.57l.09-.69a13.1,13.1,0,0,0,.08-1.39,8,8,0,0,0-.52-2.75A8.32,8.32,0,0,1,27.83,51a12.19,12.19,0,0,1,.3,1.46l.1.73a4.82,4.82,0,0,1,0,.85,11.89,11.89,0,0,1-.77,3,23.19,23.19,0,0,1-1.28,2.79Z"/><path class="cls-9" d="M39.47,58.69A22.33,22.33,0,0,1,42,54.46c.13-.17.28-.34.43-.51l.4-.42.75-.77c.49-.52,1-1,1.4-1.55a13.67,13.67,0,0,0,2.15-3.53,39.77,39.77,0,0,0,1.56-4.07A44.12,44.12,0,0,1,48.34,48a16.15,16.15,0,0,1-1.21,4.47c-.31.72-.66,1.41-1,2.08l-.52,1-.25.47-.16.4a18.21,18.21,0,0,0-1,3.73Z"/><path class="cls-9" d="M42.64,53.41a19.62,19.62,0,0,1,2.43-1.14,14.34,14.34,0,0,1,2.56-.78,9.41,9.41,0,0,1,1.27-.15A9.14,9.14,0,0,0,50,51.16a8.41,8.41,0,0,0,2.21-.85,9,9,0,0,1-1.78,1.75,12.19,12.19,0,0,1-1.1.71,6.78,6.78,0,0,0-1,.59,11.87,11.87,0,0,0-1.68,1.44,16.85,16.85,0,0,0-1.46,1.66Z"/><path class="cls-10" d="M57,37.37s2.08,2,2.08,3.15a11.55,11.55,0,0,0,.34,3.82c.4,1-1.28,5.23-1.21,6s1,3.35.34,4-1.28,3.22-1.28,3.22"/></g></g></svg>