<svg xmlns="http://www.w3.org/2000/svg" xmlns:xlink="http://www.w3.org/1999/xlink" viewBox="0 0 73.41 73.65"><defs><style>.cls-1,.cls-5{fill:#eaecea;}.cls-1,.cls-8,.cls-9{stroke:#000;}.cls-1,.cls-10,.cls-3,.cls-4,.cls-8,.cls-9{stroke-miterlimit:10;}.cls-2{fill:#6c96ce;}.cls-3,.cls-4,.cls-8{fill:none;}.cls-3{stroke:#6c96ce;}.cls-3,.cls-4{stroke-width:9px;}.cls-4{stroke:#fff;}.cls-6{clip-path:url(#clip-path);}.cls-7{fill:#d2d3d5;}.cls-9{fill:#eaa62d;}.cls-10{fill:#fff;stroke:#d2d3d5;}.cls-11{clip-path:url(#clip-path-2);}.cls-12{fill:#f3dfc6;}</style><clipPath id="clip-path"><path class="cls-1" d="M27.05,42.25s5.32-2,10.16.73L59.77,27.74s6.84-4.85,7.22-9.29L33.69,35.92s-4.86,1.74-7.6,2.79S27.05,42.25,27.05,42.25Z"/></clipPath><clipPath id="clip-path-2"><path class="cls-1" d="M34.21,48S35.4,42.49,32,38.1L43.75,13.54S47.54,6.06,51.88,5L39.49,40.54s-1,5.07-1.64,7.92S34.21,48,34.21,48Z"/></clipPath></defs><g id="Layer_4" data-name="Layer 4"><path class="cls-2" d="M69.06,60.51a8.52,8.52,0,0,1-8.5,8.5H13.17a8.52,8.52,0,0,1-8.5-8.5V13.13a8.53,8.53,0,0,1,8.5-8.51H60.56a8.53,8.53,0,0,1,8.5,8.51Z"/><path class="cls-3" d="M69.06,60.51a8.52,8.52,0,0,1-8.5,8.5H13.17a8.52,8.52,0,0,1-8.5-8.5V13.13a8.53,8.53,0,0,1,8.5-8.51H60.56a8.53,8.53,0,0,1,8.5,8.51Z"/><path class="cls-2" d="M67.62,59.07a8.53,8.53,0,0,1-8.51,8.5H14.62a8.53,8.53,0,0,1-8.51-8.5V14.57a8.53,8.53,0,0,1,8.51-8.5H59.11a8.53,8.53,0,0,1,8.51,8.5Z"/><path class="cls-4" d="M67.62,59.07a8.53,8.53,0,0,1-8.51,8.5H14.62a8.53,8.53,0,0,1-8.51-8.5V14.57a8.53,8.53,0,0,1,8.51-8.5H59.11a8.53,8.53,0,0,1,8.51,8.5Z"/><path class="cls-5" d="M27.05,42.25s5.32-2,10.16.73L59.77,27.74s6.84-4.85,7.22-9.29L33.69,35.92s-4.86,1.74-7.6,2.79S27.05,42.25,27.05,42.25Z"/><g class="cls-6"><path class="cls-7" d="M67,18.45,38.77,36.6a6.32,6.32,0,0,0-4.18-1.15A33.27,33.27,0,0,0,27.08,37l-1.95,2.73,1.82,4,10.69.17,6-4.14,22.42-16,1.53-4.86-.64-.4"/></g><path class="cls-8" d="M27.05,42.25s5.32-2,10.16.73L59.77,27.74s6.84-4.85,7.22-9.29L33.69,35.92s-4.86,1.74-7.6,2.79S27.05,42.25,27.05,42.25Z"/><path class="cls-9" d="M13.62,36.89a8.07,8.07,0,1,0,8.82,10.57h0s1.62-3.84,5-4.83a8.09,8.09,0,0,0-1.55-4.21s-3.59,1.4-6.3-.07h0A8,8,0,0,0,13.62,36.89Zm.47,3.16A4.88,4.88,0,1,1,10,45.59,4.88,4.88,0,0,1,14.09,40.05Z"/><circle class="cls-10" cx="35.73" cy="38.76" r="1.61"/><path class="cls-7" d="M36.8,38.42a1.31,1.31,0,0,1-.86.72,1.28,1.28,0,0,1-1.09-.25,1.25,1.25,0,0,1,1.95-.47Z"/><path class="cls-7" d="M36.11,39.8a1.51,1.51,0,0,1-.76-1,1.53,1.53,0,0,1,.21-1.21,1.44,1.44,0,0,1,.76,1A1.49,1.49,0,0,1,36.11,39.8Z"/><path class="cls-5" d="M34.21,48S35.4,42.49,32,38.1L43.75,13.54S47.54,6.06,51.88,5L39.49,40.54s-1,5.07-1.64,7.92S34.21,48,34.21,48Z"/><g class="cls-11"><path class="cls-7" d="M51.88,5,38.07,35.62a6.33,6.33,0,0,1,1.76,4,33.28,33.28,0,0,1-.39,7.65L37,49.56l-4.2-1.22L31.09,37.8l3.2-6.59L46.81,6.69l4.58-2.23.49.57"/></g><path class="cls-8" d="M34.21,48S35.4,42.49,32,38.1L43.75,13.54S47.54,6.06,51.88,5L39.49,40.54s-1,5.07-1.64,7.92S34.21,48,34.21,48Z"/><path class="cls-9" d="M39.16,54.88v0c-1.85-2.46-1-6.21-1-6.21a8.07,8.07,0,0,0-4.39-.92c-.49,3.46-4,5.63-4,5.63h0a8.07,8.07,0,1,0,9.43,1.52ZM33.41,65.41a4.88,4.88,0,1,1,4.88-4.88A4.88,4.88,0,0,1,33.41,65.41Z"/><circle class="cls-10" cx="36.38" cy="38.94" r="1.61"/><path class="cls-7" d="M36.57,37.84a1.25,1.25,0,0,1-.19,2,1.26,1.26,0,0,1-.4-1A1.22,1.22,0,0,1,36.57,37.84Z"/><path class="cls-7" d="M35.29,38.72a1.51,1.51,0,0,1,2.24.22,1.53,1.53,0,0,1-2.24-.22Z"/><path class="cls-12" d="M27.81,65.6a7.74,7.74,0,0,0,5.29,2.22,7.13,7.13,0,0,0,5.43-2.48c.21-.24-.14-.59-.35-.35a6.66,6.66,0,0,1-5.08,2.33,7.28,7.28,0,0,1-4.94-2.07c-.22-.24-.57.12-.35.35Z"/><path class="cls-12" d="M39.08,64.76a2.75,2.75,0,0,0,1.06-1.91.25.25,0,0,0-.5,0v0s0,0,0,0a.52.52,0,0,1,0,.11,1,1,0,0,1-.06.23,2.13,2.13,0,0,1-.18.41l-.12.21-.07.09,0,0,0,0-.16.18-.08.07,0,0,0,0a.25.25,0,0,0-.09.34.24.24,0,0,0,.34.09Z"/></g></svg>