<svg xmlns="http://www.w3.org/2000/svg" xmlns:xlink="http://www.w3.org/1999/xlink" viewBox="0 0 73.18 73.65"><defs><style>.cls-1,.cls-5{fill:#eaecea;}.cls-1,.cls-8,.cls-9{stroke:#000;}.cls-1,.cls-10,.cls-3,.cls-4,.cls-8,.cls-9{stroke-miterlimit:10;}.cls-2{fill:#118442;}.cls-3,.cls-4,.cls-8{fill:none;}.cls-3{stroke:#118442;}.cls-3,.cls-4{stroke-width:9px;}.cls-4{stroke:#fff;}.cls-6{clip-path:url(#clip-path);}.cls-7{fill:#d2d3d5;}.cls-9{fill:#eaa62d;}.cls-10{fill:#fff;stroke:#d2d3d5;}.cls-11{clip-path:url(#clip-path-2);}.cls-12{fill:#f3dfc6;}</style><clipPath id="clip-path"><path class="cls-1" d="M26.57,42.25s5.32-2,10.16.74L59.29,27.75s6.84-4.85,7.23-9.29L33.22,35.92s-4.87,1.75-7.6,2.79S26.57,42.25,26.57,42.25Z"/></clipPath><clipPath id="clip-path-2"><path class="cls-1" d="M33.73,48.05s1.2-5.56-2.22-9.95L43.27,13.55S47.07,6.07,51.4,5L39,40.54s-1,5.07-1.65,7.93S33.73,48.05,33.73,48.05Z"/></clipPath></defs><g id="Layer_4" data-name="Layer 4"><path class="cls-2" d="M68.58,60.51A8.53,8.53,0,0,1,60.08,69H12.7a8.54,8.54,0,0,1-8.51-8.51V13.13a8.53,8.53,0,0,1,8.51-8.5H60.08a8.52,8.52,0,0,1,8.5,8.5Z"/><path class="cls-3" d="M68.58,60.51A8.53,8.53,0,0,1,60.08,69H12.7a8.54,8.54,0,0,1-8.51-8.51V13.13a8.53,8.53,0,0,1,8.51-8.5H60.08a8.52,8.52,0,0,1,8.5,8.5Z"/><path class="cls-2" d="M67.14,59.07a8.53,8.53,0,0,1-8.5,8.51H14.14a8.54,8.54,0,0,1-8.51-8.51V14.57a8.53,8.53,0,0,1,8.51-8.5h44.5a8.53,8.53,0,0,1,8.5,8.5Z"/><path class="cls-4" d="M67.14,59.07a8.53,8.53,0,0,1-8.5,8.51H14.14a8.54,8.54,0,0,1-8.51-8.51V14.57a8.53,8.53,0,0,1,8.51-8.5h44.5a8.53,8.53,0,0,1,8.5,8.5Z"/><path class="cls-5" d="M26.57,42.25s5.32-2,10.16.74L59.29,27.75s6.84-4.85,7.23-9.29L33.22,35.92s-4.87,1.75-7.6,2.79S26.57,42.25,26.57,42.25Z"/><g class="cls-6"><path class="cls-7" d="M66.52,18.46,38.29,36.61a6.36,6.36,0,0,0-4.18-1.16A33.53,33.53,0,0,0,26.61,37l-2,2.73,1.83,4,10.68.17,6-4.13,22.42-16,1.53-4.85-.63-.4"/></g><path class="cls-8" d="M26.57,42.25s5.32-2,10.16.74L59.29,27.75s6.84-4.85,7.23-9.29L33.22,35.92s-4.87,1.75-7.6,2.79S26.57,42.25,26.57,42.25Z"/><path class="cls-9" d="M13.14,36.9A8.07,8.07,0,1,0,22,47.47h0s1.63-3.84,5-4.83a8.06,8.06,0,0,0-1.55-4.21s-3.59,1.39-6.29-.07h0A8,8,0,0,0,13.14,36.9Zm.47,3.15A4.88,4.88,0,1,1,9.5,45.59,4.88,4.88,0,0,1,13.61,40.05Z"/><circle class="cls-10" cx="35.26" cy="38.77" r="1.61"/><path class="cls-7" d="M36.32,38.42a1.26,1.26,0,0,1-1.94.48,1.28,1.28,0,0,1,.85-.73A1.31,1.31,0,0,1,36.32,38.42Z"/><path class="cls-7" d="M35.63,39.81a1.49,1.49,0,0,1-.75-1,1.46,1.46,0,0,1,.21-1.21,1.55,1.55,0,0,1,.76,1A1.5,1.5,0,0,1,35.63,39.81Z"/><path class="cls-5" d="M33.73,48.05s1.2-5.56-2.22-9.95L43.27,13.55S47.07,6.07,51.4,5L39,40.54s-1,5.07-1.65,7.93S33.73,48.05,33.73,48.05Z"/><g class="cls-11"><path class="cls-7" d="M51.4,5,37.59,35.62a6.34,6.34,0,0,1,1.76,4A33.18,33.18,0,0,1,39,47.23l-2.41,2.33-4.2-1.22L30.62,37.8l3.19-6.58L46.33,6.69l4.58-2.22L51.4,5"/></g><path class="cls-8" d="M33.73,48.05s1.2-5.56-2.22-9.95L43.27,13.55S47.07,6.07,51.4,5L39,40.54s-1,5.07-1.65,7.93S33.73,48.05,33.73,48.05Z"/><path class="cls-9" d="M38.68,54.88h0c-1.85-2.46-1-6.22-1-6.22a8,8,0,0,0-4.39-.91c-.49,3.45-4.05,5.62-4.05,5.62h0a8.06,8.06,0,1,0,9.43,1.51ZM32.93,65.42a4.88,4.88,0,1,1,4.88-4.88A4.88,4.88,0,0,1,32.93,65.42Z"/><circle class="cls-10" cx="35.91" cy="38.94" r="1.61"/><path class="cls-7" d="M36.09,37.84a1.31,1.31,0,0,1,.41,1,1.29,1.29,0,0,1-.59.95,1.25,1.25,0,0,1-.41-1A1.31,1.31,0,0,1,36.09,37.84Z"/><path class="cls-7" d="M34.82,38.72A1.53,1.53,0,0,1,36,38.33a1.48,1.48,0,0,1,1.07.61,1.49,1.49,0,0,1-1.16.39A1.52,1.52,0,0,1,34.82,38.72Z"/><path class="cls-12" d="M27.36,65.35a7.71,7.71,0,0,0,5.29,2.21,7.12,7.12,0,0,0,5.43-2.47c.21-.24-.14-.6-.36-.35a6.65,6.65,0,0,1-5.07,2.32A7.19,7.19,0,0,1,27.71,65c-.22-.23-.57.12-.35.36Z"/><path class="cls-12" d="M38.63,64.51a2.77,2.77,0,0,0,1.06-1.92.26.26,0,0,0-.25-.25.25.25,0,0,0-.25.25v.06s0,0,0,0,0,.08,0,.11L39.1,63a2.53,2.53,0,0,1-.18.42l-.13.2-.06.1,0,0,0,0-.17.18-.08.08,0,0s-.06,0,0,0a.27.27,0,0,0-.09.34.27.27,0,0,0,.35.09Z"/></g></svg>