<svg xmlns="http://www.w3.org/2000/svg" xmlns:xlink="http://www.w3.org/1999/xlink" viewBox="0 0 77.65 78.26"><defs><style>.cls-1,.cls-5{fill:#eaecea;}.cls-1,.cls-8,.cls-9{stroke:#000;}.cls-1,.cls-10,.cls-3,.cls-4,.cls-8,.cls-9{stroke-miterlimit:10;}.cls-2{fill:#118442;}.cls-3,.cls-4,.cls-8{fill:none;}.cls-3{stroke:#118442;}.cls-3,.cls-4{stroke-width:9px;}.cls-4{stroke:#fff;}.cls-6{clip-path:url(#clip-path);}.cls-7{fill:#d2d3d5;}.cls-9{fill:#eaa62d;}.cls-10{fill:#fff;stroke:#d2d3d5;}.cls-11{clip-path:url(#clip-path-2);}.cls-12{fill:#f3dfc6;}</style><clipPath id="clip-path"><path class="cls-1" d="M29,46s5.32-2,10.16.74L61.73,31.49S68.57,26.64,69,22.2L35.65,39.66s-4.86,1.75-7.6,2.8S29,46,29,46Z"/></clipPath><clipPath id="clip-path-2"><path class="cls-1" d="M36.17,51.79s1.19-5.56-2.22-9.95L45.71,17.29s3.79-7.48,8.13-8.51L41.45,44.28s-1,5.08-1.64,7.93S36.17,51.79,36.17,51.79Z"/></clipPath></defs><g id="Layer_4" data-name="Layer 4"><path class="cls-2" d="M71,64.26a8.53,8.53,0,0,1-8.51,8.5H15.13a8.52,8.52,0,0,1-8.5-8.5V16.87a8.52,8.52,0,0,1,8.5-8.5H62.51A8.53,8.53,0,0,1,71,16.87Z"/><path class="cls-3" d="M71,64.26a8.53,8.53,0,0,1-8.51,8.5H15.13a8.52,8.52,0,0,1-8.5-8.5V16.87a8.52,8.52,0,0,1,8.5-8.5H62.51A8.53,8.53,0,0,1,71,16.87Z"/><path class="cls-2" d="M69.58,62.82a8.53,8.53,0,0,1-8.51,8.5H16.57a8.53,8.53,0,0,1-8.5-8.5V18.32a8.53,8.53,0,0,1,8.5-8.51h44.5a8.54,8.54,0,0,1,8.51,8.51Z"/><path class="cls-4" d="M69.58,62.82a8.53,8.53,0,0,1-8.51,8.5H16.57a8.53,8.53,0,0,1-8.5-8.5V18.32a8.53,8.53,0,0,1,8.5-8.51h44.5a8.54,8.54,0,0,1,8.51,8.51Z"/><path class="cls-5" d="M29,46s5.32-2,10.16.74L61.73,31.49S68.57,26.64,69,22.2L35.65,39.66s-4.86,1.75-7.6,2.8S29,46,29,46Z"/><g class="cls-6"><path class="cls-7" d="M69,22.2,40.73,40.35a6.36,6.36,0,0,0-4.18-1.16A33.67,33.67,0,0,0,29,40.7l-1.95,2.73,1.82,4,10.69.17,6-4.13,22.42-16,1.53-4.86L69,22.2"/></g><path class="cls-8" d="M29,46s5.32-2,10.16.74L61.73,31.49S68.57,26.64,69,22.2L35.65,39.66s-4.86,1.75-7.6,2.8S29,46,29,46Z"/><path class="cls-9" d="M15.58,40.64A8.07,8.07,0,1,0,24.4,51.21h0s1.62-3.84,5-4.83a8.06,8.06,0,0,0-1.55-4.21s-3.59,1.4-6.3-.07h0A8,8,0,0,0,15.58,40.64Zm.47,3.15a4.88,4.88,0,1,1-4.11,5.55A4.89,4.89,0,0,1,16.05,43.79Z"/><circle class="cls-10" cx="37.69" cy="42.51" r="1.61"/><path class="cls-7" d="M38.75,42.16a1.28,1.28,0,0,1-.85.73,1.31,1.31,0,0,1-1.09-.25,1.24,1.24,0,0,1,.85-.72A1.26,1.26,0,0,1,38.75,42.16Z"/><path class="cls-7" d="M38.07,43.55a1.51,1.51,0,0,1-.55-2.18,1.51,1.51,0,0,1,.55,2.18Z"/><path class="cls-5" d="M36.17,51.79s1.19-5.56-2.22-9.95L45.71,17.29s3.79-7.48,8.13-8.51L41.45,44.28s-1,5.08-1.64,7.93S36.17,51.79,36.17,51.79Z"/><g class="cls-11"><path class="cls-7" d="M53.84,8.78,40,39.36a6.38,6.38,0,0,1,1.76,4A33.28,33.28,0,0,1,41.4,51L39,53.31l-4.2-1.22L33.05,41.55,36.25,35,48.77,10.43l4.58-2.22.49.57"/></g><path class="cls-8" d="M36.17,51.79s1.19-5.56-2.22-9.95L45.71,17.29s3.79-7.48,8.13-8.51L41.45,44.28s-1,5.08-1.64,7.93S36.17,51.79,36.17,51.79Z"/><path class="cls-9" d="M41.12,58.62h0c-1.85-2.46-1-6.22-1-6.22a8,8,0,0,0-4.39-.91c-.49,3.45-4,5.63-4,5.63h0a8.06,8.06,0,1,0,9.43,1.51ZM35.37,69.16a4.88,4.88,0,1,1,4.88-4.88A4.88,4.88,0,0,1,35.37,69.16Z"/><circle class="cls-10" cx="38.34" cy="42.68" r="1.61"/><path class="cls-7" d="M38.53,41.58a1.27,1.27,0,0,1,.4,1.05,1.22,1.22,0,0,1-.59.94,1.25,1.25,0,0,1,.19-2Z"/><path class="cls-7" d="M37.25,42.46a1.54,1.54,0,0,1,1.17-.38,1.48,1.48,0,0,1,1.07.6,1.5,1.5,0,0,1-1.17.39A1.52,1.52,0,0,1,37.25,42.46Z"/><path class="cls-12" d="M29.79,69.09a7.77,7.77,0,0,0,5.3,2.22,7.16,7.16,0,0,0,5.42-2.48c.21-.24-.14-.6-.35-.35a6.66,6.66,0,0,1-5.07,2.33,7.26,7.26,0,0,1-4.94-2.07c-.22-.24-.58.12-.36.35Z"/><path class="cls-12" d="M41.06,68.25a2.75,2.75,0,0,0,1.06-1.92.25.25,0,0,0-.25-.25.26.26,0,0,0-.25.25v.06s0,0,0,0a.36.36,0,0,0,0,.1,2.17,2.17,0,0,1-.07.24,1.65,1.65,0,0,1-.18.41,1.32,1.32,0,0,1-.12.2.86.86,0,0,1-.07.1v0l0,0a.93.93,0,0,1-.16.18l-.08.08,0,0,0,0a.26.26,0,0,0-.09.34.25.25,0,0,0,.34.09Z"/></g></svg>