<svg xmlns="http://www.w3.org/2000/svg" xmlns:xlink="http://www.w3.org/1999/xlink" viewBox="0 0 77.65 78.26"><defs><style>.cls-1,.cls-5{fill:#eaecea;}.cls-1,.cls-8,.cls-9{stroke:#000;}.cls-1,.cls-10,.cls-3,.cls-4,.cls-8,.cls-9{stroke-miterlimit:10;}.cls-2{fill:#6c96ce;}.cls-3,.cls-4,.cls-8{fill:none;}.cls-3{stroke:#6c96ce;}.cls-3,.cls-4{stroke-width:9px;}.cls-4{stroke:#fff;}.cls-6{clip-path:url(#clip-path);}.cls-7{fill:#d2d3d5;}.cls-9{fill:#eaa62d;}.cls-10{fill:#fff;stroke:#d2d3d5;}.cls-11{clip-path:url(#clip-path-2);}.cls-12{fill:#f3dfc6;}</style><clipPath id="clip-path"><path class="cls-1" d="M29,43.84s5.32-2,10.16.74L61.73,29.34s6.84-4.85,7.22-9.29L35.65,37.51s-4.86,1.75-7.6,2.8S29,43.84,29,43.84Z"/></clipPath><clipPath id="clip-path-2"><path class="cls-1" d="M36.17,49.64s1.19-5.56-2.22-10L45.71,15.14s3.79-7.48,8.13-8.51L41.45,42.13s-1,5.08-1.64,7.93S36.17,49.64,36.17,49.64Z"/></clipPath></defs><g id="Layer_4" data-name="Layer 4"><path class="cls-2" d="M71,62.11a8.53,8.53,0,0,1-8.51,8.5H15.13a8.52,8.52,0,0,1-8.5-8.5V14.73a8.53,8.53,0,0,1,8.5-8.51H62.51A8.54,8.54,0,0,1,71,14.73Z"/><path class="cls-3" d="M71,62.11a8.53,8.53,0,0,1-8.51,8.5H15.13a8.52,8.52,0,0,1-8.5-8.5V14.73a8.53,8.53,0,0,1,8.5-8.51H62.51A8.54,8.54,0,0,1,71,14.73Z"/><path class="cls-2" d="M69.58,60.67a8.53,8.53,0,0,1-8.51,8.5H16.57a8.53,8.53,0,0,1-8.5-8.5V16.17a8.53,8.53,0,0,1,8.5-8.51h44.5a8.54,8.54,0,0,1,8.51,8.51Z"/><path class="cls-4" d="M69.58,60.67a8.53,8.53,0,0,1-8.51,8.5H16.57a8.53,8.53,0,0,1-8.5-8.5V16.17a8.53,8.53,0,0,1,8.5-8.51h44.5a8.54,8.54,0,0,1,8.51,8.51Z"/><path class="cls-5" d="M29,43.84s5.32-2,10.16.74L61.73,29.34s6.84-4.85,7.22-9.29L35.65,37.51s-4.86,1.75-7.6,2.8S29,43.84,29,43.84Z"/><g class="cls-6"><path class="cls-7" d="M69,20.05,40.73,38.2a6.32,6.32,0,0,0-4.18-1.15A33.27,33.27,0,0,0,29,38.55l-1.95,2.73,1.82,4,10.69.16,6-4.13,22.42-16,1.53-4.86-.64-.4"/></g><path class="cls-8" d="M29,43.84s5.32-2,10.16.74L61.73,29.34s6.84-4.85,7.22-9.29L35.65,37.51s-4.86,1.75-7.6,2.8S29,43.84,29,43.84Z"/><path class="cls-9" d="M15.58,38.49A8.07,8.07,0,1,0,24.4,49.06h0s1.62-3.84,5-4.83A8.06,8.06,0,0,0,27.83,40s-3.59,1.4-6.3-.07h0A8,8,0,0,0,15.58,38.49Zm.47,3.15a4.88,4.88,0,1,1-4.11,5.55A4.89,4.89,0,0,1,16.05,41.64Z"/><circle class="cls-10" cx="37.69" cy="40.36" r="1.61"/><path class="cls-7" d="M38.75,40a1.28,1.28,0,0,1-.85.73,1.31,1.31,0,0,1-1.09-.25,1.24,1.24,0,0,1,.85-.72A1.26,1.26,0,0,1,38.75,40Z"/><path class="cls-7" d="M38.07,41.4a1.52,1.52,0,0,1-.76-1,1.54,1.54,0,0,1,.21-1.21,1.51,1.51,0,0,1,.55,2.18Z"/><path class="cls-5" d="M36.17,49.64s1.19-5.56-2.22-10L45.71,15.14s3.79-7.48,8.13-8.51L41.45,42.13s-1,5.08-1.64,7.93S36.17,49.64,36.17,49.64Z"/><g class="cls-11"><path class="cls-7" d="M53.84,6.63,40,37.21a6.38,6.38,0,0,1,1.76,4,33.28,33.28,0,0,1-.39,7.65L39,51.16l-4.2-1.22L33.05,39.4l3.2-6.59L48.77,8.29l4.58-2.23.49.57"/></g><path class="cls-8" d="M36.17,49.64s1.19-5.56-2.22-10L45.71,15.14s3.79-7.48,8.13-8.51L41.45,42.13s-1,5.08-1.64,7.93S36.17,49.64,36.17,49.64Z"/><path class="cls-9" d="M41.12,56.47h0c-1.85-2.46-1-6.22-1-6.22a8,8,0,0,0-4.39-.91c-.49,3.45-4,5.63-4,5.63h0a8.06,8.06,0,1,0,9.43,1.51ZM35.37,67a4.88,4.88,0,1,1,4.88-4.88A4.88,4.88,0,0,1,35.37,67Z"/><circle class="cls-10" cx="38.34" cy="40.53" r="1.61"/><path class="cls-7" d="M38.53,39.43a1.27,1.27,0,0,1,.4,1,1.25,1.25,0,0,1-.59,1,1.27,1.27,0,0,1-.4-1A1.25,1.25,0,0,1,38.53,39.43Z"/><path class="cls-7" d="M37.25,40.31a1.54,1.54,0,0,1,1.17-.38,1.48,1.48,0,0,1,1.07.6,1.5,1.5,0,0,1-1.17.39A1.52,1.52,0,0,1,37.25,40.31Z"/><path class="cls-12" d="M29.77,67.2a7.74,7.74,0,0,0,5.29,2.22,7.17,7.17,0,0,0,5.43-2.48c.21-.24-.14-.6-.35-.35a6.66,6.66,0,0,1-5.08,2.33,7.28,7.28,0,0,1-4.94-2.07c-.22-.24-.57.12-.35.35Z"/><path class="cls-12" d="M41,66.36a2.75,2.75,0,0,0,1.06-1.92.25.25,0,0,0-.5,0v.06s0,0,0,0a.52.52,0,0,1,0,.11c0,.07,0,.15-.06.23a2.13,2.13,0,0,1-.18.41l-.12.2-.07.1s0,0,0,0l0,0a1.45,1.45,0,0,1-.16.18.6.6,0,0,0-.08.08l0,0s-.06,0,0,0a.25.25,0,1,0,.25.43Z"/></g></svg>