<svg xmlns="http://www.w3.org/2000/svg" xmlns:xlink="http://www.w3.org/1999/xlink" viewBox="0 0 77.65 78.26"><defs><style>.cls-1,.cls-5{fill:#eaecea;}.cls-1,.cls-8,.cls-9{stroke:#000;}.cls-1,.cls-10,.cls-3,.cls-4,.cls-8,.cls-9{stroke-miterlimit:10;}.cls-2{fill:#cd2028;}.cls-3,.cls-4,.cls-8{fill:none;}.cls-3{stroke:#cd2028;}.cls-3,.cls-4{stroke-width:9px;}.cls-4{stroke:#fff;}.cls-6{clip-path:url(#clip-path);}.cls-7{fill:#d2d3d5;}.cls-9{fill:#eaa62d;}.cls-10{fill:#fff;stroke:#d2d3d5;}.cls-11{clip-path:url(#clip-path-2);}.cls-12{fill:#f3dfc6;}</style><clipPath id="clip-path"><path class="cls-1" d="M28.28,43.5s5.32-2,10.17.74L61,29s6.84-4.85,7.22-9.29L34.93,37.17s-4.87,1.75-7.6,2.79S28.28,43.5,28.28,43.5Z"/></clipPath><clipPath id="clip-path-2"><path class="cls-1" d="M35.45,49.3s1.19-5.56-2.23-9.95L45,14.8s3.79-7.48,8.13-8.51L40.73,41.79s-1,5.07-1.64,7.93S35.45,49.3,35.45,49.3Z"/></clipPath></defs><g id="Layer_4" data-name="Layer 4"><path class="cls-2" d="M70.3,61.77a8.53,8.53,0,0,1-8.51,8.5H14.41a8.52,8.52,0,0,1-8.5-8.5V14.38a8.52,8.52,0,0,1,8.5-8.5H61.79a8.53,8.53,0,0,1,8.51,8.5Z"/><path class="cls-3" d="M70.3,61.77a8.53,8.53,0,0,1-8.51,8.5H14.41a8.52,8.52,0,0,1-8.5-8.5V14.38a8.52,8.52,0,0,1,8.5-8.5H61.79a8.53,8.53,0,0,1,8.51,8.5Z"/><path class="cls-2" d="M68.85,60.32a8.53,8.53,0,0,1-8.5,8.51H15.85a8.53,8.53,0,0,1-8.5-8.51V15.83a8.53,8.53,0,0,1,8.5-8.51h44.5a8.53,8.53,0,0,1,8.5,8.51Z"/><path class="cls-4" d="M68.85,60.32a8.53,8.53,0,0,1-8.5,8.51H15.85a8.53,8.53,0,0,1-8.5-8.51V15.83a8.53,8.53,0,0,1,8.5-8.51h44.5a8.53,8.53,0,0,1,8.5,8.51Z"/><path class="cls-5" d="M28.28,43.5s5.32-2,10.17.74L61,29s6.84-4.85,7.22-9.29L34.93,37.17s-4.87,1.75-7.6,2.79S28.28,43.5,28.28,43.5Z"/><g class="cls-6"><path class="cls-7" d="M68.23,19.71,40,37.86a6.36,6.36,0,0,0-4.18-1.16,33.67,33.67,0,0,0-7.51,1.51l-1.95,2.73,1.82,4,10.68.17L44.92,41,67.34,25l1.52-4.85-.63-.4"/></g><path class="cls-8" d="M28.28,43.5s5.32-2,10.17.74L61,29s6.84-4.85,7.22-9.29L34.93,37.17s-4.87,1.75-7.6,2.79S28.28,43.5,28.28,43.5Z"/><path class="cls-9" d="M14.86,38.15a8.07,8.07,0,1,0,8.82,10.57h0s1.63-3.84,5-4.83a8.06,8.06,0,0,0-1.55-4.21s-3.6,1.39-6.3-.07h0A8,8,0,0,0,14.86,38.15Zm.47,3.15a4.88,4.88,0,1,1-4.11,5.54A4.89,4.89,0,0,1,15.33,41.3Z"/><circle class="cls-10" cx="36.97" cy="40.02" r="1.61"/><path class="cls-7" d="M38,39.67a1.26,1.26,0,0,1-1.94.48,1.28,1.28,0,0,1,.85-.73A1.3,1.3,0,0,1,38,39.67Z"/><path class="cls-7" d="M37.35,41.06a1.55,1.55,0,0,1-.76-1,1.49,1.49,0,0,1,.21-1.21,1.51,1.51,0,0,1,.76,1A1.53,1.53,0,0,1,37.35,41.06Z"/><path class="cls-5" d="M35.45,49.3s1.19-5.56-2.23-9.95L45,14.8s3.79-7.48,8.13-8.51L40.73,41.79s-1,5.07-1.64,7.93S35.45,49.3,35.45,49.3Z"/><g class="cls-11"><path class="cls-7" d="M53.12,6.29,39.31,36.87a6.34,6.34,0,0,1,1.75,4,33.4,33.4,0,0,1-.38,7.64l-2.41,2.34L34.06,49.6,32.33,39.05l3.2-6.58L48.05,7.94l4.58-2.22.49.57"/></g><path class="cls-8" d="M35.45,49.3s1.19-5.56-2.23-9.95L45,14.8s3.79-7.48,8.13-8.51L40.73,41.79s-1,5.07-1.64,7.93S35.45,49.3,35.45,49.3Z"/><path class="cls-9" d="M40.4,56.13h0c-1.85-2.46-1-6.22-1-6.22A8,8,0,0,0,35,49c-.49,3.45-4,5.62-4,5.62h0a8.06,8.06,0,1,0,9.43,1.51ZM34.65,66.67a4.88,4.88,0,1,1,4.88-4.88A4.88,4.88,0,0,1,34.65,66.67Z"/><circle class="cls-10" cx="37.62" cy="40.19" r="1.61"/><path class="cls-7" d="M37.8,39.09a1.28,1.28,0,0,1,.41,1,1.26,1.26,0,0,1-.59.95,1.25,1.25,0,0,1,.18-2Z"/><path class="cls-7" d="M36.53,40a1.54,1.54,0,0,1,1.17-.39,1.55,1.55,0,0,1,1.07.61A1.51,1.51,0,0,1,36.53,40Z"/><path class="cls-12" d="M29.22,66.72a7.72,7.72,0,0,0,5.29,2.22,7.16,7.16,0,0,0,5.43-2.48c.21-.24-.15-.59-.36-.35a6.66,6.66,0,0,1-5.07,2.33,7.26,7.26,0,0,1-4.94-2.07c-.22-.24-.58.12-.35.35Z"/><path class="cls-12" d="M40.48,65.88A2.75,2.75,0,0,0,41.54,64c0-.13-.12-.25-.25-.25A.27.27,0,0,0,41,64V64s0,0,0,0,0,.07,0,.11l-.06.23a3,3,0,0,1-.18.41,2.39,2.39,0,0,1-.13.21l-.07.09s0,0,0,0l0,0a1.29,1.29,0,0,1-.16.17.3.3,0,0,1-.08.08l0,0,0,0a.26.26,0,0,0-.09.34.25.25,0,0,0,.34.09Z"/></g></svg>