<svg xmlns="http://www.w3.org/2000/svg" xmlns:xlink="http://www.w3.org/1999/xlink" viewBox="0 0 73.53 73.53"><defs><style>.cls-1,.cls-5{fill:#eaecea;}.cls-1,.cls-8,.cls-9{stroke:#000;}.cls-1,.cls-10,.cls-3,.cls-4,.cls-8,.cls-9{stroke-miterlimit:10;}.cls-2{fill:#cd2028;}.cls-3,.cls-4,.cls-8{fill:none;}.cls-3{stroke:#cd2028;}.cls-3,.cls-4{stroke-width:9px;}.cls-4{stroke:#fff;}.cls-6{clip-path:url(#clip-path);}.cls-7{fill:#d2d3d5;}.cls-9{fill:#eaa62d;}.cls-10{fill:#fff;stroke:#d2d3d5;}.cls-11{clip-path:url(#clip-path-2);}.cls-12{fill:#f3dfc6;}</style><clipPath id="clip-path"><path class="cls-1" d="M27,42.14s5.32-2,10.16.74L59.75,27.64s6.84-4.86,7.23-9.3L33.68,35.81s-4.87,1.75-7.6,2.79S27,42.14,27,42.14Z"/></clipPath><clipPath id="clip-path-2"><path class="cls-1" d="M34.19,47.93S35.39,42.38,32,38L43.73,13.44S47.53,6,51.86,4.93L39.48,40.43s-1,5.07-1.65,7.93S34.19,47.93,34.19,47.93Z"/></clipPath></defs><g id="Layer_4" data-name="Layer 4"><path class="cls-2" d="M69,60.4a8.53,8.53,0,0,1-8.5,8.51H13.16A8.54,8.54,0,0,1,4.65,60.4V13a8.53,8.53,0,0,1,8.51-8.5H60.54A8.52,8.52,0,0,1,69,13Z"/><path class="cls-3" d="M69,60.4a8.53,8.53,0,0,1-8.5,8.51H13.16A8.54,8.54,0,0,1,4.65,60.4V13a8.53,8.53,0,0,1,8.51-8.5H60.54A8.52,8.52,0,0,1,69,13Z"/><path class="cls-2" d="M67.6,59a8.52,8.52,0,0,1-8.5,8.5H14.6A8.52,8.52,0,0,1,6.1,59V14.46A8.52,8.52,0,0,1,14.6,6H59.1a8.53,8.53,0,0,1,8.5,8.5Z"/><path class="cls-4" d="M67.6,59a8.52,8.52,0,0,1-8.5,8.5H14.6A8.52,8.52,0,0,1,6.1,59V14.46A8.52,8.52,0,0,1,14.6,6H59.1a8.53,8.53,0,0,1,8.5,8.5Z"/><path class="cls-5" d="M27,42.14s5.32-2,10.16.74L59.75,27.64s6.84-4.86,7.23-9.3L33.68,35.81s-4.87,1.75-7.6,2.79S27,42.14,27,42.14Z"/><g class="cls-6"><path class="cls-7" d="M67,18.34,38.75,36.49a6.39,6.39,0,0,0-4.18-1.15,32.94,32.94,0,0,0-7.5,1.51l-2,2.72,1.83,4,10.68.17,6-4.13,22.42-16,1.53-4.86-.63-.4"/></g><path class="cls-8" d="M27,42.14s5.32-2,10.16.74L59.75,27.64s6.84-4.86,7.23-9.3L33.68,35.81s-4.87,1.75-7.6,2.79S27,42.14,27,42.14Z"/><path class="cls-9" d="M13.6,36.78a8.07,8.07,0,1,0,8.83,10.57h0s1.63-3.83,5-4.82a8.06,8.06,0,0,0-1.55-4.21s-3.59,1.39-6.29-.08h0A8,8,0,0,0,13.6,36.78Zm.47,3.16A4.88,4.88,0,1,1,10,45.48,4.86,4.86,0,0,1,14.07,39.94Z"/><circle class="cls-10" cx="35.72" cy="38.65" r="1.61"/><path class="cls-7" d="M36.78,38.31a1.26,1.26,0,0,1-.85.72,1.24,1.24,0,0,1-1.09-.25,1.25,1.25,0,0,1,1.94-.47Z"/><path class="cls-7" d="M36.09,39.7a1.52,1.52,0,0,1-.54-2.18,1.5,1.5,0,0,1,.54,2.18Z"/><path class="cls-5" d="M34.19,47.93S35.39,42.38,32,38L43.73,13.44S47.53,6,51.86,4.93L39.48,40.43s-1,5.07-1.65,7.93S34.19,47.93,34.19,47.93Z"/><g class="cls-11"><path class="cls-7" d="M51.86,4.93,38.06,35.51a6.35,6.35,0,0,1,1.75,4,33.23,33.23,0,0,1-.39,7.65L37,49.45l-4.2-1.22L31.08,37.69l3.19-6.58L46.79,6.58l4.58-2.22.49.57"/></g><path class="cls-8" d="M34.19,47.93S35.39,42.38,32,38L43.73,13.44S47.53,6,51.86,4.93L39.48,40.43s-1,5.07-1.65,7.93S34.19,47.93,34.19,47.93Z"/><path class="cls-9" d="M39.14,54.77h0c-1.85-2.46-1-6.22-1-6.22a8.07,8.07,0,0,0-4.39-.92c-.49,3.46-4.05,5.63-4.05,5.63h0a8.07,8.07,0,1,0,9.43,1.52ZM33.39,65.31a4.88,4.88,0,1,1,4.88-4.88A4.88,4.88,0,0,1,33.39,65.31Z"/><circle class="cls-10" cx="36.37" cy="38.83" r="1.61"/><path class="cls-7" d="M36.55,37.73a1.25,1.25,0,0,1-.18,2,1.25,1.25,0,0,1-.41-1A1.29,1.29,0,0,1,36.55,37.73Z"/><path class="cls-7" d="M35.28,38.61a1.5,1.5,0,0,1,2.23.22,1.49,1.49,0,0,1-1.16.39A1.53,1.53,0,0,1,35.28,38.61Z"/><path class="cls-12" d="M28,65.36a7.81,7.81,0,0,0,5.29,2.22,7.17,7.17,0,0,0,5.43-2.48c.21-.24-.14-.6-.35-.35a6.66,6.66,0,0,1-5.08,2.33A7.22,7.22,0,0,1,28.32,65c-.23-.23-.58.12-.36.36Z"/><path class="cls-12" d="M39.23,64.52a2.77,2.77,0,0,0,1.06-1.92.25.25,0,0,0-.25-.25.26.26,0,0,0-.25.25v.06s0,0,0,0a.36.36,0,0,1,0,.1,1.05,1.05,0,0,1-.06.24,1.83,1.83,0,0,1-.18.41l-.12.2a.86.86,0,0,1-.07.1l0,0,0,0a.93.93,0,0,1-.16.18L39,64l0,0s-.06.05,0,0a.25.25,0,1,0,.25.43Z"/></g></svg>