<svg id="Layer_1" data-name="Layer 1" xmlns="http://www.w3.org/2000/svg" viewBox="0 0 385.8 43.83"><defs><style>.cls-1{fill:#3f79bd;}.cls-1,.cls-2,.cls-3,.cls-4{stroke:#fff;stroke-miterlimit:10;stroke-width:3px;stroke-dasharray:25 8 0;}.cls-2{fill:#fed402;}.cls-3{fill:#13a049;}.cls-4{fill:#ed1c27;}</style></defs><path class="cls-1" d="M28.77,4.19l-1,15.34c-.6-.1-1.89-.27-3.88-.51-1.36-.13-2.85-.21-4.46-.24L19,23.41q2.66.06,8.7-.13c-.18.6-.46,1.72-.85,3.35-.23,1-.43,2.12-.61,3.42a33.23,33.23,0,0,0-3.51-.44c-.87-.05-2.17-.06-3.88-.05L18.64,35q1.82,0,6.69-.32a22.64,22.64,0,0,0,3-.58c-.13.5-.43,1.7-.9,3.61-.23,1-.5,2.23-.82,3.73H4.94l-.7-19Q4,15.9,3.3,4.19Z" transform="translate(-1.7 -1.47)"/><path class="cls-2" d="M60.45,4.19l-.71,15.24q-.95-.15-3-.36-1.27-.08-4.17-.15c-.09.95-.26,3.26-.5,6.91s-.47,8.73-.88,15.58H39.43q-.2-4.89-.72-15.39-.26-3.63-.51-7.1l-3.83.15-3.47.36L30.3,4.19Z" transform="translate(-1.7 -1.47)"/><path class="cls-3" d="M89.26,19.43A11.94,11.94,0,0,0,85.85,19a9.52,9.52,0,0,0-6.31,2,8.08,8.08,0,0,0-2.73,6.57A7.41,7.41,0,0,0,79,33.11a7.76,7.76,0,0,0,5.69,2.15,9.35,9.35,0,0,0,4.56-1.19c-.17.66-.44,1.88-.83,3.66-.23,1.18-.44,2.41-.65,3.68a19.54,19.54,0,0,1-7,1.05,18.46,18.46,0,0,1-13.14-5.17q-5.91-5.62-5.91-14.64,0-8.32,5.09-13.47,5.43-5.47,15-5.48a29.94,29.94,0,0,1,6.67.53Z" transform="translate(-1.7 -1.47)"/><path class="cls-4" d="M128,4.19q-.4,6-1.09,19.41-.2,6.41-.68,17.81H113.86l-.26-8.14c-.29.1-.88.33-1.77.7a17.91,17.91,0,0,0-2.23,1.09l-1.26-3c-.26-.64-.69-1.56-1.29-2.74l-.24,12.07H93.17L92.46,23.6q-.21-7-1.09-19.41h17l-1.14,22.92a23,23,0,0,0,3.39.1c.69,0,1.63-.08,2.81-.19L112.22,4.19Z" transform="translate(-1.7 -1.47)"/><path class="cls-1" d="M169.56,41.41H156.3l-.9-3.22a31,31,0,0,0-2.78,1.48,27.19,27.19,0,0,0-3.18,2.45l-1.38-2.94c-.27-.58-.67-1.39-1.19-2.44l-1.31,4.67h-7q1.54-6,4.8-19.75,2-9.21,3.32-17.47h14.56q.67,3.79,3.71,17.71Q166.61,29.18,169.56,41.41Zm-15.29-7.95c-.28-.85-.76-2.24-1.46-4.17q-.63-1.59-1.91-4.41-.57,1.41-1.75,4.61-.65,1.85-1.55,5c.49,0,1.58-.1,3.3-.3A22.88,22.88,0,0,0,154.27,33.46Z" transform="translate(-1.7 -1.47)"/><path class="cls-2" d="M203.47,19.43a13.62,13.62,0,0,0-2.72-.41,3.23,3.23,0,0,0-2.08.77,3,3,0,0,0-1.14,2.45c0,.78.69,2.27,2.08,4.49a11.7,11.7,0,0,1,2.09,6.1,8.29,8.29,0,0,1-3.08,6.64,10.78,10.78,0,0,1-7.25,2.5,22.5,22.5,0,0,1-5.86-.56q-.22-1.11-.75-3.63c-.23-.91-.55-2.11-.95-3.61a19.26,19.26,0,0,0,3.59.65c2.4,0,3.61-.91,3.61-2.74a5.12,5.12,0,0,0-1.46-3.56l-4.75-4.19a12.51,12.51,0,0,1-4.6-9.67,10,10,0,0,1,4.36-8.85q3.81-2.62,10.13-2.62a36,36,0,0,1,8.05,1Z" transform="translate(-1.7 -1.47)"/><path class="cls-3" d="M240.6,6.12q-1.33,2.47-5.46,10.43-2.25,4.38-6.2,11.7c.22.36,1.53,1.85,3.92,4.49q2.12,2.25,6,5.74l-5.31,2.28q-2.06.91-5.79,2.69-.92-1.11-3.78-5.21c-1.07-1.62-2.09-3.34-3.08-5.16h-.09l-.25,8.33h-13.4l-.65-19.36q-.27-6.35-1.14-17.86h16.86l-.94,16.33h.17q1-2.85,3.27-9.43.93-2.85,2.38-7.85L234,4.74C236.18,5.23,238.4,5.69,240.6,6.12Z" transform="translate(-1.7 -1.47)"/><path class="cls-4" d="M267.06,4.19l-1,15.34c-.6-.1-1.89-.27-3.88-.51-1.35-.13-2.84-.21-4.46-.24l-.36,4.63q2.67.06,8.7-.13c-.18.6-.46,1.72-.85,3.35-.22,1-.43,2.12-.6,3.42a33.17,33.17,0,0,0-3.52-.44c-.87-.05-2.16-.06-3.87-.05L256.93,35q1.81,0,6.69-.32a22.07,22.07,0,0,0,3-.58c-.13.5-.43,1.7-.9,3.61-.22,1-.5,2.23-.82,3.73H243.24l-.7-19q-.19-6.51-.95-18.22Z" transform="translate(-1.7 -1.47)"/><path class="cls-1" d="M298.74,4.19,298,19.43q-.94-.15-3-.36-1.29-.08-4.17-.15c-.1.95-.27,3.26-.51,6.91s-.47,8.73-.87,15.58H277.73Q277.54,36.52,277,26q-.24-3.63-.51-7.1l-3.83.15-3.46.36-.61-15.24Z" transform="translate(-1.7 -1.47)"/><path class="cls-2" d="M327.56,19.43a12,12,0,0,0-3.42-.41,9.48,9.48,0,0,0-6.3,2,8.05,8.05,0,0,0-2.74,6.57,7.38,7.38,0,0,0,2.17,5.49A7.72,7.72,0,0,0,323,35.26a9.35,9.35,0,0,0,4.56-1.19c-.16.66-.44,1.88-.83,3.66-.22,1.18-.44,2.41-.65,3.68a19.54,19.54,0,0,1-7,1.05,18.42,18.42,0,0,1-13.13-5.17Q300,31.67,300,22.65q0-8.32,5.09-13.47,5.43-5.47,15-5.48a29.78,29.78,0,0,1,6.66.53Z" transform="translate(-1.7 -1.47)"/><path class="cls-3" d="M366.29,4.19q-.42,6-1.09,19.41Q365,30,364.52,41.41H352.16l-.27-8.14c-.29.1-.88.33-1.77.7a18.67,18.67,0,0,0-2.23,1.09l-1.26-3c-.26-.64-.69-1.56-1.28-2.74l-.25,12.07H331.46l-.7-17.81q-.22-7-1.09-19.41h17l-1.14,22.92a23,23,0,0,0,3.39.1c.7,0,1.64-.08,2.82-.19L350.51,4.19Z" transform="translate(-1.7 -1.47)"/><path class="cls-4" d="M385.6,4.19c-.9,3.82-1.83,8.2-2.78,13.11L381.41,24a30.6,30.6,0,0,0-.77,5.11,3.62,3.62,0,0,0,0,.63c-.08,0-.94.12-2.59.3-.92.11-1.91.25-3,.43q-.57-3.94-2-12.94-.86-4.09-2.59-13.35Zm-2.69,33.49a3.94,3.94,0,0,1-1.61,3.19,5.8,5.8,0,0,1-3.74,1.29,6.14,6.14,0,0,1-3.92-1.29A4,4,0,0,1,372,37.63a3.91,3.91,0,0,1,1.58-3.21,6.24,6.24,0,0,1,4-1.25,5.82,5.82,0,0,1,3.73,1.24A4,4,0,0,1,382.91,37.68Z" transform="translate(-1.7 -1.47)"/></svg>