<?xml version="1.0" encoding="utf-8"?>
<!-- Generator: Adobe Illustrator 24.3.0, SVG Export Plug-In . SVG Version: 6.00 Build 0)  -->
<svg version="1.1" id="Layer_1" xmlns="http://www.w3.org/2000/svg" xmlns:xlink="http://www.w3.org/1999/xlink" x="0px" y="0px"
	 viewBox="0 0 20.2 22.3" style="enable-background:new 0 0 20.2 22.3;" xml:space="preserve">
<path d="M9.2,17.3c0,1.1,0.3,2.1,0.8,3H2.2c-1.1,0-2-0.9-2-2v-16c0-1.1,0.9-2,2-2h1v7l2.5-1.5l2.5,1.5v-7h6c1.1,0,2,0.9,2,2v9.1
	c-0.3-0.1-0.7-0.1-1-0.1C11.9,11.3,9.2,14,9.2,17.3 M16.2,16.3v-3h-2v3h-3v2h3v3h2v-3h3v-2H16.2z"/>
</svg>
