<?xml version="1.0" encoding="utf-8"?>
<!-- Generator: Adobe Illustrator 24.3.0, SVG Export Plug-In . SVG Version: 6.00 Build 0)  -->
<svg version="1.1" id="Layer_1" xmlns="http://www.w3.org/2000/svg" xmlns:xlink="http://www.w3.org/1999/xlink" x="0px" y="0px"
	 viewBox="0 0 17.8 20.6" style="enable-background:new 0 0 17.8 20.6;" xml:space="preserve">
<path d="M13,20.4l-2.8-3l1.2-1.2l1.6,1.6l3.6-3.6l1.2,1.4L13,20.4 M2.3,20.2c-1.1,0-2-0.9-2-2v-16c0-1.1,0.9-2,2-2h1v7l2.5-1.5
	l2.5,1.5v-7h6c1.1,0,2,0.9,2,2v9.3c-0.6-0.2-1.3-0.3-2-0.3c-3.3,0-6,2.7-6,6c0,1.1,0.3,2.1,0.8,3H2.3z"/>
</svg>
